SplineFontDB: 3.0
FontName: Vazir-Bold
FullName: Vazir Bold
FamilyName: Vazir
Weight: Bold
Copyright: Copyright (c) 2003 by Bitstream, Inc. All Rights Reserved.\nDejaVu changes are in public domain\nChanges by Saber Rastikerdar are in public domain.\nNon-Arabic(Latin) glyphs and data are imported from Roboto font under the Apache License, Version 2.0.
Version: 9-beta
ItalicAngle: 0
UnderlinePosition: -500
UnderlineWidth: 100
Ascent: 1638
Descent: 410
InvalidEm: 0
LayerCount: 2
Layer: 0 1 "Back" 1
Layer: 1 1 "Fore" 0
PreferredKerning: 4
XUID: [1021 502 1027637223 15766027]
UniqueID: 4119612
UseUniqueID: 1
FSType: 0
OS2Version: 1
OS2_WeightWidthSlopeOnly: 0
OS2_UseTypoMetrics: 1
CreationTime: 1431850356
ModificationTime: 1490017881
PfmFamily: 33
TTFWeight: 700
TTFWidth: 5
LineGap: 0
VLineGap: 0
Panose: 2 11 6 3 3 8 4 2 2 4
OS2TypoAscent: 2350
OS2TypoAOffset: 0
OS2TypoDescent: -1100
OS2TypoDOffset: 0
OS2TypoLinegap: 0
OS2WinAscent: 2350
OS2WinAOffset: 0
OS2WinDescent: 1100
OS2WinDOffset: 0
HheadAscent: 2350
HheadAOffset: 0
HheadDescent: -1100
HheadDOffset: 0
OS2SubXSize: 1331
OS2SubYSize: 1433
OS2SubXOff: 0
OS2SubYOff: 286
OS2SupXSize: 1331
OS2SupYSize: 1433
OS2SupXOff: 0
OS2SupYOff: 983
OS2StrikeYSize: 102
OS2StrikeYPos: 530
OS2CapHeight: 1638
OS2XHeight: 1082
OS2Vendor: 'PfEd'
OS2CodePages: 00000041.20080000
OS2UnicodeRanges: 80002003.80000000.00000008.00000000
Lookup: 1 9 0 "'fina' Terminal Forms in Arabic lookup 9" { "'fina' Terminal Forms in Arabic lookup 9 subtable"  } ['fina' ('arab' <'KUR ' 'SND ' 'URD ' 'dflt' > ) ]
Lookup: 1 9 0 "'medi' Medial Forms in Arabic lookup 11" { "'medi' Medial Forms in Arabic lookup 11 subtable"  } ['medi' ('arab' <'KUR ' 'SND ' 'URD ' 'dflt' > ) ]
Lookup: 1 9 0 "'init' Initial Forms in Arabic lookup 13" { "'init' Initial Forms in Arabic lookup 13 subtable"  } ['init' ('arab' <'KUR ' 'SND ' 'URD ' 'dflt' > ) ]

StartChar: exclam
Encoding: 33 33 1
GlifName: exclam
Width: 681
VWidth: 2627
GlyphClass: 2
Flags: W
LayerCount: 2
Fore
SplineSet
158.528320312 184.180664062 m 0,0,1
 158.528320312 221.700195312 158.528320312 221.700195312 171.732421875 253.935546875 c 128,-1,2
 184.999023438 286.318359375 184.999023438 286.318359375 211.228515625 312.549804688 c 128,-1,3
 237.359375 338.678710938 237.359375 338.678710938 269.956054688 352.263671875 c 0,4,5
 302.256835938 365.727539062 302.256835938 365.727539062 340.837890625 366.497070312 c 0,6,7
 379.40625 365.727539062 379.40625 365.727539062 411.71484375 352.260742188 c 0,8,9
 444.32421875 338.671875 444.32421875 338.671875 470.447265625 312.548828125 c 0,10,11
 523.147460938 259.84765625 523.147460938 259.84765625 523.147460938 184.180664062 c 0,12,13
 523.147460938 147.266601562 523.147460938 147.266601562 509.711914062 114.455078125 c 128,-1,14
 496.27734375 81.642578125 496.27734375 81.642578125 470.447265625 55.8115234375 c 0,15,16
 457.48828125 42.8525390625 457.48828125 42.8525390625 442.749023438 32.927734375 c 128,-1,17
 428.009765625 23.001953125 428.009765625 23.001953125 411.7421875 16.2373046875 c 128,-1,18
 395.474609375 9.47265625 395.474609375 9.47265625 377.685546875 5.859375 c 128,-1,19
 359.896484375 2.24609375 359.896484375 2.24609375 340.837890625 1.865234375 c 0,20,21
 333.763671875 2.0068359375 333.763671875 2.0068359375 327.678710938 2.4580078125 c 128,-1,22
 321.59375 2.9091796875 321.59375 2.9091796875 315.891601562 3.7041015625 c 128,-1,23
 310.190429688 4.5 310.190429688 4.5 303.99609375 5.744140625 c 0,24,25
 286.260742188 9.3076171875 286.260742188 9.3076171875 269.961914062 16.1005859375 c 128,-1,26
 253.576171875 22.927734375 253.576171875 22.927734375 238.78515625 32.95703125 c 128,-1,27
 224.18359375 42.8564453125 224.18359375 42.8564453125 211.2265625 55.8125 c 0,28,29
 184.998046875 82.04296875 184.998046875 82.04296875 171.73046875 114.428710938 c 0,30,31
 165.09765625 130.624023438 165.09765625 130.624023438 161.8125 148.171875 c 128,-1,32
 158.528320312 165.719726562 158.528320312 165.719726562 158.528320312 184.180664062 c 0,0,1
196.524414062 1484.13769531 m 5,33,-1
 491.250976562 1484.13769531 l 5,34,-1
 466.27734375 485.8359375 l 1,35,-1
 222.74609375 485.8359375 l 1,36,-1
 196.524414062 1484.13769531 l 5,33,-1
EndSplineSet
EndChar

StartChar: period
Encoding: 46 46 2
GlifName: period
Width: 681
VWidth: 2627
GlyphClass: 2
Flags: W
LayerCount: 2
Fore
SplineSet
158.528320312 184.180664062 m 0,0,1
 158.528320312 221.700195312 158.528320312 221.700195312 171.732421875 253.935546875 c 128,-1,2
 184.999023438 286.318359375 184.999023438 286.318359375 211.228515625 312.549804688 c 128,-1,3
 237.359375 338.678710938 237.359375 338.678710938 269.956054688 352.263671875 c 0,4,5
 302.256835938 365.727539062 302.256835938 365.727539062 340.837890625 366.497070312 c 0,6,7
 379.40625 365.727539062 379.40625 365.727539062 411.71484375 352.260742188 c 0,8,9
 444.32421875 338.671875 444.32421875 338.671875 470.447265625 312.548828125 c 0,10,11
 523.147460938 259.84765625 523.147460938 259.84765625 523.147460938 184.180664062 c 0,12,13
 523.147460938 147.266601562 523.147460938 147.266601562 509.711914062 114.455078125 c 128,-1,14
 496.27734375 81.642578125 496.27734375 81.642578125 470.447265625 55.8115234375 c 0,15,16
 457.48828125 42.8525390625 457.48828125 42.8525390625 442.749023438 32.927734375 c 128,-1,17
 428.009765625 23.001953125 428.009765625 23.001953125 411.7421875 16.2373046875 c 128,-1,18
 395.474609375 9.47265625 395.474609375 9.47265625 377.685546875 5.859375 c 128,-1,19
 359.896484375 2.24609375 359.896484375 2.24609375 340.837890625 1.865234375 c 0,20,21
 333.763671875 2.0068359375 333.763671875 2.0068359375 327.678710938 2.4580078125 c 128,-1,22
 321.59375 2.9091796875 321.59375 2.9091796875 315.891601562 3.7041015625 c 128,-1,23
 310.190429688 4.5 310.190429688 4.5 303.99609375 5.744140625 c 0,24,25
 286.260742188 9.3076171875 286.260742188 9.3076171875 269.961914062 16.1005859375 c 128,-1,26
 253.576171875 22.927734375 253.576171875 22.927734375 238.78515625 32.95703125 c 128,-1,27
 224.18359375 42.8564453125 224.18359375 42.8564453125 211.2265625 55.8125 c 0,28,29
 184.998046875 82.04296875 184.998046875 82.04296875 171.73046875 114.428710938 c 0,30,31
 165.09765625 130.624023438 165.09765625 130.624023438 161.8125 148.171875 c 128,-1,32
 158.528320312 165.719726562 158.528320312 165.719726562 158.528320312 184.180664062 c 0,0,1
EndSplineSet
EndChar

StartChar: colon
Encoding: 58 58 3
GlifName: colon
Width: 680
VWidth: 2627
GlyphClass: 2
Flags: W
LayerCount: 2
Fore
SplineSet
158.528320312 998.701171875 m 0,0,1
 158.528320312 1023.53222656 158.528320312 1023.53222656 164.330078125 1046.10058594 c 0,2,3
 167.276367188 1057.55957031 167.276367188 1057.55957031 171.745117188 1068.47070312 c 128,-1,4
 176.213867188 1079.38085938 176.213867188 1079.38085938 182.139648438 1089.56445312 c 0,5,6
 193.852539062 1109.69335938 193.852539062 1109.69335938 211.227539062 1127.06933594 c 0,7,8
 263.6328125 1179.47460938 263.6328125 1179.47460938 340.837890625 1181.01757812 c 0,9,10
 418.04296875 1179.47460938 418.04296875 1179.47460938 470.447265625 1127.06933594 c 0,11,12
 523.147460938 1074.36816406 523.147460938 1074.36816406 523.147460938 998.701171875 c 128,-1,13
 523.147460938 923.034179688 523.147460938 923.034179688 470.447265625 870.33203125 c 0,14,15
 418.04296875 817.927734375 418.04296875 817.927734375 340.837890625 816.384765625 c 0,16,17
 321.370117188 816.7734375 321.370117188 816.7734375 303.998046875 820.263671875 c 0,18,19
 286.260742188 823.827148438 286.260742188 823.827148438 269.959960938 830.62109375 c 128,-1,20
 253.575195312 837.44921875 253.575195312 837.44921875 238.78515625 847.477539062 c 0,21,22
 233.890625 850.795898438 233.890625 850.795898438 229.173828125 854.46484375 c 128,-1,23
 224.458007812 858.1328125 224.458007812 858.1328125 219.984375 862.090820312 c 128,-1,24
 215.51171875 866.047851562 215.51171875 866.047851562 211.2265625 870.333007812 c 0,25,26
 184.998046875 896.563476562 184.998046875 896.563476562 171.73046875 928.94921875 c 0,27,28
 165.09765625 945.14453125 165.09765625 945.14453125 161.8125 962.692382812 c 128,-1,29
 158.528320312 980.240234375 158.528320312 980.240234375 158.528320312 998.701171875 c 0,0,1
158.528320312 184.180664062 m 0,30,31
 158.528320312 221.700195312 158.528320312 221.700195312 171.732421875 253.935546875 c 128,-1,32
 184.999023438 286.318359375 184.999023438 286.318359375 211.228515625 312.549804688 c 128,-1,33
 237.359375 338.678710938 237.359375 338.678710938 269.956054688 352.263671875 c 0,34,35
 302.256835938 365.727539062 302.256835938 365.727539062 340.837890625 366.497070312 c 0,36,37
 379.40625 365.727539062 379.40625 365.727539062 411.71484375 352.260742188 c 0,38,39
 444.32421875 338.671875 444.32421875 338.671875 470.447265625 312.548828125 c 0,40,41
 523.147460938 259.84765625 523.147460938 259.84765625 523.147460938 184.180664062 c 0,42,43
 523.147460938 147.266601562 523.147460938 147.266601562 509.711914062 114.455078125 c 128,-1,44
 496.27734375 81.642578125 496.27734375 81.642578125 470.447265625 55.8115234375 c 0,45,46
 457.48828125 42.8525390625 457.48828125 42.8525390625 442.749023438 32.927734375 c 128,-1,47
 428.009765625 23.001953125 428.009765625 23.001953125 411.7421875 16.2373046875 c 128,-1,48
 395.474609375 9.47265625 395.474609375 9.47265625 377.685546875 5.859375 c 128,-1,49
 359.896484375 2.24609375 359.896484375 2.24609375 340.837890625 1.865234375 c 0,50,51
 333.763671875 2.0068359375 333.763671875 2.0068359375 327.678710938 2.4580078125 c 128,-1,52
 321.59375 2.9091796875 321.59375 2.9091796875 315.891601562 3.7041015625 c 128,-1,53
 310.190429688 4.5 310.190429688 4.5 303.99609375 5.744140625 c 0,54,55
 286.260742188 9.3076171875 286.260742188 9.3076171875 269.961914062 16.1005859375 c 128,-1,56
 253.576171875 22.927734375 253.576171875 22.927734375 238.78515625 32.95703125 c 128,-1,57
 224.18359375 42.8564453125 224.18359375 42.8564453125 211.2265625 55.8125 c 0,58,59
 184.998046875 82.04296875 184.998046875 82.04296875 171.73046875 114.428710938 c 0,60,61
 165.09765625 130.624023438 165.09765625 130.624023438 161.8125 148.171875 c 128,-1,62
 158.528320312 165.719726562 158.528320312 165.719726562 158.528320312 184.180664062 c 0,30,31
EndSplineSet
EndChar

StartChar: afii57388
Encoding: 1548 1548 5
GlifName: afii57388
Width: 729
VWidth: 2634
GlyphClass: 2
Flags: W
LayerCount: 2
Fore
SplineSet
371.916992188 0.0263671875 m 0,0,1
 289.974609375 1.3583984375 289.974609375 1.3583984375 237.849609375 43.44921875 c 128,-1,2
 185.724609375 85.5400390625 185.724609375 85.5400390625 174.754882812 162.110351562 c 0,3,4
 163.534179688 240.43359375 163.534179688 240.43359375 186.370117188 344.00390625 c 0,5,6
 237.790039062 599.81640625 237.790039062 599.81640625 451.549804688 760.1796875 c 2,7,-1
 473.44140625 776.603515625 l 1,8,-1
 598.9765625 698.517578125 l 1,9,-1
 558.583007812 662.955078125 l 2,10,11
 422.75 543.3671875 422.75 543.3671875 398.333007812 369.395507812 c 1,12,13
 494.879882812 362.126953125 494.879882812 362.126953125 537.359375 309.233398438 c 0,14,15
 562.643554688 278.370117188 562.643554688 278.370117188 572.771484375 236.608398438 c 0,16,17
 582.313476562 197.271484375 582.313476562 197.271484375 577.887695312 148.41015625 c 0,18,19
 570.2734375 73.8759765625 570.2734375 73.8759765625 514.837890625 36.333984375 c 128,-1,20
 459.401367188 -1.2080078125 459.401367188 -1.2080078125 371.916992188 0.0263671875 c 0,0,1
EndSplineSet
EndChar

StartChar: uni0615
Encoding: 1557 1557 6
GlifName: uni0615
Width: -29
VWidth: 2659
GlyphClass: 4
Flags: W
AnchorPoint: "Anchor-10" 644.346 1592.23 mark 0
AnchorPoint: "Anchor-9" 644.346 1592.23 mark 0
AnchorPoint: "Anchor-1" 658.215 2398.3 basemark 0
AnchorPoint: "Anchor-1" 644.346 1592.23 mark 0
LayerCount: 2
Fore
SplineSet
534.321289062 1756.24511719 m 1,0,-1
 663.439453125 1756.24511719 l 2,1,2
 764.803710938 1756.24511719 764.803710938 1756.24511719 828.856445312 1794.55664062 c 0,3,4
 893.942382812 1833.48339844 893.942382812 1833.48339844 893.942382812 1879.28808594 c 0,5,6
 893.942382812 1894.29785156 893.942382812 1894.29785156 890.555664062 1906.31152344 c 128,-1,7
 887.16796875 1918.32519531 887.16796875 1918.32519531 880.233398438 1927.35839844 c 128,-1,8
 873.298828125 1936.39160156 873.298828125 1936.39160156 862.922851562 1942.01269531 c 0,9,10
 759.193359375 1999.90527344 759.193359375 1999.90527344 540.723632812 1763.18164062 c 2,11,-1
 534.321289062 1756.24511719 l 1,0,-1
972.229492188 1890.15917969 m 0,12,13
 972.3984375 1783.86621094 972.3984375 1783.86621094 903.174804688 1730.93164062 c 128,-1,14
 833.952148438 1677.99707031 833.952148438 1677.99707031 693.474609375 1677.99707031 c 2,15,-1
 345.5078125 1677.99707031 l 1,16,-1
 345.5078125 1756.24511719 l 1,17,-1
 451.28515625 1756.24511719 l 1,18,-1
 451.28515625 2277.21582031 l 1,19,-1
 530.825195312 2276.21972656 l 1,20,-1
 529.893554688 1831.82324219 l 1,21,-1
 537.150390625 1840.05273438 l 2,22,23
 739.078125 2069.05566406 739.078125 2069.05566406 883.095703125 2017.20019531 c 0,24,25
 972.559570312 1984.06542969 972.559570312 1984.06542969 972.229492188 1890.15917969 c 0,12,13
EndSplineSet
EndChar

StartChar: uni061B
Encoding: 1563 1563 7
GlifName: uni061B_
Width: 769
VWidth: 2634
GlyphClass: 2
Flags: W
LayerCount: 2
Fore
SplineSet
213.5625 184.180664062 m 0,0,1
 213.5625 259.84765625 213.5625 259.84765625 266.263671875 312.548828125 c 0,2,3
 318.66796875 364.954101562 318.66796875 364.954101562 395.873046875 366.497070312 c 0,4,5
 473.078125 364.954101562 473.078125 364.954101562 525.481445312 312.548828125 c 0,6,7
 578.18359375 259.84765625 578.18359375 259.84765625 578.18359375 184.180664062 c 128,-1,8
 578.18359375 108.513671875 578.18359375 108.513671875 525.481445312 55.8115234375 c 0,9,10
 473.078125 3.408203125 473.078125 3.408203125 395.873046875 1.865234375 c 0,11,12
 318.66796875 3.408203125 318.66796875 3.408203125 266.263671875 55.8115234375 c 0,13,14
 240.440429688 81.634765625 240.440429688 81.634765625 227.001953125 114.44921875 c 128,-1,15
 213.5625 147.262695312 213.5625 147.262695312 213.5625 184.180664062 c 0,0,1
391.9375 484.334960938 m 0,16,17
 309.881835938 485.577148438 309.881835938 485.577148438 257.737304688 527.6796875 c 128,-1,18
 205.591796875 569.78125 205.591796875 569.78125 194.736328125 646.544921875 c 0,19,20
 192.116210938 665.640625 192.116210938 665.640625 191.6171875 686.66796875 c 128,-1,21
 191.118164062 707.694335938 191.118164062 707.694335938 192.649414062 730.173828125 c 0,22,23
 193.647460938 745.252929688 193.647460938 745.252929688 195.509765625 761.1875 c 128,-1,24
 197.372070312 777.122070312 197.372070312 777.122070312 200.065429688 793.7578125 c 128,-1,25
 202.7578125 810.392578125 202.7578125 810.392578125 206.314453125 828.029296875 c 0,26,27
 258.716796875 1085.13085938 258.716796875 1085.13085938 471.577148438 1244.51269531 c 2,28,-1
 493.462890625 1260.89941406 l 1,29,-1
 618.9765625 1182.82714844 l 1,30,-1
 578.583984375 1147.26464844 l 2,31,32
 572.2109375 1141.65429688 572.2109375 1141.65429688 566.091796875 1135.94042969 c 128,-1,33
 559.97265625 1130.22558594 559.97265625 1130.22558594 554.116210938 1124.41796875 c 128,-1,34
 548.259765625 1118.61035156 548.259765625 1118.61035156 542.6640625 1112.70996094 c 128,-1,35
 537.069335938 1106.80957031 537.069335938 1106.80957031 531.721679688 1100.8046875 c 128,-1,36
 526.3828125 1094.80859375 526.3828125 1094.80859375 521.291015625 1088.70800781 c 128,-1,37
 516.19921875 1082.60742188 516.19921875 1082.60742188 511.359375 1076.40722656 c 128,-1,38
 506.51953125 1070.20800781 506.51953125 1070.20800781 501.9296875 1063.91015625 c 128,-1,39
 497.340820312 1057.61230469 497.340820312 1057.61230469 492.9921875 1051.20507812 c 0,40,41
 484.301757812 1038.39941406 484.301757812 1038.39941406 476.578125 1025.17480469 c 128,-1,42
 468.85546875 1011.94921875 468.85546875 1011.94921875 462.083007812 998.282226562 c 0,43,44
 448.543945312 970.958007812 448.543945312 970.958007812 438.763671875 941.75 c 0,45,46
 433.859375 927.103515625 433.859375 927.103515625 429.890625 911.981445312 c 128,-1,47
 425.921875 896.859375 425.921875 896.859375 422.888671875 881.240234375 c 0,48,49
 420.28125 867.817382812 420.28125 867.817382812 418.318359375 853.70703125 c 1,50,51
 514.879882812 846.435546875 514.879882812 846.435546875 557.360351562 793.54296875 c 0,52,53
 582.633789062 762.689453125 582.633789062 762.689453125 592.453125 721.916992188 c 128,-1,54
 602.2734375 681.143554688 602.2734375 681.143554688 597.887695312 632.720703125 c 0,55,56
 590.2734375 558.185546875 590.2734375 558.185546875 534.844726562 520.643554688 c 128,-1,57
 479.416015625 483.100585938 479.416015625 483.100585938 391.9375 484.334960938 c 0,16,17
EndSplineSet
EndChar

StartChar: uni061F
Encoding: 1567 1567 8
GlifName: uni061F_
Width: 1108
VWidth: 2627
GlyphClass: 2
Flags: W
LayerCount: 2
Fore
SplineSet
484.762695312 184.180664062 m 128,-1,1
 484.762695312 259.84765625 484.762695312 259.84765625 537.314941406 312.400878906 c 128,-1,2
 589.8671875 364.954101562 589.8671875 364.954101562 667.071350548 364.954528358 c 128,-1,3
 744.275513596 364.954955154 744.275513596 364.954955154 796.829651329 312.401305702 c 128,-1,4
 849.383789062 259.84765625 849.383789062 259.84765625 849.383789062 184.180664062 c 0,5,6
 849.383789062 79.4591986091 849.383789062 79.4591986091 759.107421875 26.6357421875 c 0,7,8
 718.535731905 2.89364669033 718.535731905 2.89364669033 654.201459702 3.15092490767 c 128,-1,9
 589.8671875 3.408203125 589.8671875 3.408203125 537.314941406 55.9609375 c 128,-1,0
 484.762695312 108.513671875 484.762695312 108.513671875 484.762695312 184.180664062 c 128,-1,1
528.896484375 483.04296875 m 1,10,11
 529.000679916 519.23617474 529.000679916 519.23617474 460.0703125 586.598632812 c 2,12,-1
 354.970703125 689.307617188 l 2,13,14
 174 866 174 866 170 1046.5 c 0,15,16
 166 1226 166 1226 302.262695312 1349.35644531 c 0,17,18
 428 1463 428 1463 651.58984375 1462.46386719 c 0,19,20
 885.538007086 1462.00091422 885.538007086 1462.00091422 1042.5625 1276.61523438 c 2,21,-1
 1063.31933594 1252.109375 l 1,22,-1
 916.889648438 1059.58300781 l 1,23,-1
 884.508789062 1091.08007812 l 2,24,25
 780 1193 780 1193 644.303710938 1192.609375 c 0,26,27
 559 1192 559 1192 509.147460938 1150.38085938 c 0,28,29
 447 1098 447 1098 447.01953125 1028.90429688 c 0,30,31
 451 953 451 953 568.184570312 836.643554688 c 6,32,-1
 675.909179688 730.116210938 l 2,33,34
 808 599 808 599 807.563476562 483.04296875 c 1,35,-1
 528.896484375 483.04296875 l 1,10,11
EndSplineSet
EndChar

StartChar: uni0621
Encoding: 1569 1569 9
GlifName: uni0621
Width: 935
VWidth: 2802
GlyphClass: 2
Flags: W
AnchorPoint: "Anchor-7" 473.186 -197.864 basechar 0
AnchorPoint: "Anchor-10" 425.117 1353.97 basechar 0
LayerCount: 2
Fore
SplineSet
94.548828125 -20.55859375 m 1,0,-1
 94.548828125 265.159179688 l 1,1,-1
 112.986328125 276.958984375 l 2,2,3
 191.891601562 327.4609375 191.891601562 327.4609375 260.884765625 358.6796875 c 1,4,5
 107.702148438 466.4765625 107.702148438 466.4765625 103.34375 627.568359375 c 0,6,7
 102.493164062 658.745117188 102.493164062 658.745117188 105.9765625 688.458984375 c 128,-1,8
 109.4609375 718.172851562 109.4609375 718.172851562 117.358398438 746.393554688 c 128,-1,9
 125.254882812 774.614257812 125.254882812 774.614257812 137.470703125 800.651367188 c 0,10,11
 166.9453125 865.06640625 166.9453125 865.06640625 214.609375 909.41015625 c 128,-1,12
 262.272460938 953.752929688 262.272460938 953.752929688 325.359375 976.529296875 c 128,-1,13
 388.4453125 999.305664062 388.4453125 999.305664062 465.514648438 1000.61425781 c 0,14,15
 555.521484375 1002.43847656 555.521484375 1002.43847656 633.556640625 975.306640625 c 128,-1,16
 711.591796875 948.17578125 711.591796875 948.17578125 774.869140625 892.556640625 c 2,17,-1
 796.922851562 873.171875 l 1,18,-1
 710.879882812 678.77734375 l 1,19,-1
 672.526367188 700.302734375 l 2,20,21
 650.877929688 712.453125 650.877929688 712.453125 629.7734375 721.50390625 c 128,-1,22
 608.66796875 730.5546875 608.66796875 730.5546875 588.486328125 736.392578125 c 128,-1,23
 568.303710938 742.231445312 568.303710938 742.231445312 549.012695312 745.10546875 c 128,-1,24
 529.720703125 747.979492188 529.720703125 747.979492188 511.0390625 747.973632812 c 0,25,26
 485.204101562 747.68359375 485.204101562 747.68359375 463.387695312 744.64453125 c 128,-1,27
 441.5703125 741.60546875 441.5703125 741.60546875 427.494140625 737.158203125 c 128,-1,28
 413.41796875 732.7109375 413.41796875 732.7109375 404.612304688 727.068359375 c 0,29,30
 348.02734375 690.573242188 348.02734375 690.573242188 345.372070312 631.85546875 c 0,31,32
 343.642578125 596.80859375 343.642578125 596.80859375 384.37890625 556.165039062 c 128,-1,33
 425.114257812 515.522460938 425.114257812 515.522460938 518.301757812 474.086914062 c 1,34,-1
 814.349609375 534.271484375 l 1,35,-1
 853.702148438 261.827148438 l 1,36,-1
 812.543945312 257.325195312 l 2,37,38
 536.44921875 227.123046875 536.44921875 227.123046875 154.106445312 12.8232421875 c 2,39,-1
 94.548828125 -20.55859375 l 1,0,-1
EndSplineSet
EndChar

StartChar: uni0627
Encoding: 1575 1575 15
GlifName: uni0627
Width: 532
VWidth: 2802
GlyphClass: 2
Flags: W
AnchorPoint: "Anchor-10" 259.197 1596.59 basechar 0
AnchorPoint: "Anchor-7" 272.005 -181.728 basechar 0
LayerCount: 2
Fore
SplineSet
144.422851562 1476.2890625 m 5,0,-1
 401.380859375 1476.2890625 l 5,1,-1
 401.380859375 0.7021484375 l 1,2,-1
 144.422851562 0.7021484375 l 1,3,-1
 144.422851562 1476.2890625 l 5,0,-1
EndSplineSet
Substitution2: "'fina' Terminal Forms in Arabic lookup 9 subtable" uniFE8E
EndChar

StartChar: uni062D
Encoding: 1581 1581 21
GlifName: uni062D_
Width: 1373
VWidth: 2802
GlyphClass: 2
Flags: W
AnchorPoint: "Anchor-10" 659.119 1320.36 basechar 0
AnchorPoint: "Anchor-7" 533.391 -857.848 basechar 0
LayerCount: 2
Fore
SplineSet
639.134765625 589.325195312 m 1,0,1
 567.197265625 604.021484375 567.197265625 604.021484375 514.733398438 609.35546875 c 128,-1,2
 462.270507812 614.689453125 462.270507812 614.689453125 434.1640625 611.1015625 c 0,3,4
 376.432617188 604.259765625 376.432617188 604.259765625 315.721679688 526.060546875 c 2,5,-1
 265.482421875 461.34765625 l 1,6,-1
 55.140625 585.619140625 l 1,7,-1
 94.28125 650.251953125 l 2,8,9
 224.358398438 865.192382812 224.358398438 865.192382812 404.500976562 879.9921875 c 0,10,11
 524.270507812 889.462890625 524.270507812 889.462890625 809.434570312 804.608398438 c 0,12,13
 1083.14453125 722.616210938 1083.14453125 722.616210938 1249.91796875 711.624023438 c 2,14,-1
 1290.08398438 708.977539062 l 1,15,-1
 1271.93066406 457.740234375 l 1,16,-1
 1237.60449219 455.081054688 l 2,17,18
 1079.36523438 442.82421875 1079.36523438 442.82421875 1026.90234375 433.357421875 c 0,19,20
 682.14453125 366.2734375 682.14453125 366.2734375 516.71875 234.123046875 c 128,-1,21
 351.291992188 101.971679688 351.291992188 101.971679688 350.69921875 -93.3994140625 c 0,22,23
 350.4921875 -199.40234375 350.4921875 -199.40234375 399.859375 -269.12890625 c 128,-1,24
 449.2265625 -338.85546875 449.2265625 -338.85546875 557.73046875 -375.646484375 c 128,-1,25
 666.234375 -412.436523438 666.234375 -412.436523438 836.465820312 -412.64453125 c 0,26,27
 898.854492188 -412.758789062 898.854492188 -412.758789062 960.060546875 -406.184570312 c 128,-1,28
 1021.26660156 -399.609375 1021.26660156 -399.609375 1081.37695312 -386.334960938 c 128,-1,29
 1141.48828125 -373.059570312 1141.48828125 -373.059570312 1200.58984375 -353.067382812 c 2,30,-1
 1243.63574219 -338.505859375 l 1,31,-1
 1295.14550781 -593.962890625 l 1,32,-1
 1261.91894531 -605.306640625 l 2,33,34
 1063.68164062 -672.986328125 1063.68164062 -672.986328125 832.076171875 -673.477539062 c 0,35,36
 473.334960938 -674.263671875 473.334960938 -674.263671875 285.290039062 -527.658203125 c 128,-1,37
 97.2451171875 -381.052734375 97.2451171875 -381.052734375 97.5244140625 -91.869140625 c 0,38,39
 97.7470703125 151.685546875 97.7470703125 151.685546875 235.06640625 323.1640625 c 128,-1,40
 372.38671875 494.642578125 372.38671875 494.642578125 639.134765625 589.325195312 c 1,0,1
EndSplineSet
Substitution2: "'fina' Terminal Forms in Arabic lookup 9 subtable" uniFEA2
Substitution2: "'medi' Medial Forms in Arabic lookup 11 subtable" uniFEA4
Substitution2: "'init' Initial Forms in Arabic lookup 13 subtable" uniFEA3
EndChar

StartChar: uni062F
Encoding: 1583 1583 23
GlifName: uni062F_
Width: 1032
VWidth: 2802
GlyphClass: 2
Flags: W
AnchorPoint: "Anchor-10" 411.35 1368.88 basechar 0
AnchorPoint: "Anchor-7" 460.033 -191.02 basechar 0
LayerCount: 2
Fore
SplineSet
127.153320312 290.704101562 m 2,0,1
 239.1796875 267.000976562 239.1796875 267.000976562 368.90625 267.036132812 c 0,2,3
 678.842773438 267.00390625 678.842773438 267.00390625 678.30078125 405.4140625 c 0,4,5
 678.240234375 429.409179688 678.240234375 429.409179688 670.991210938 454.745117188 c 128,-1,6
 663.7421875 480.08203125 663.7421875 480.08203125 648.84765625 507.544921875 c 128,-1,7
 633.952148438 535.0078125 633.952148438 535.0078125 610.025390625 564.71484375 c 128,-1,8
 586.098632812 594.421875 586.098632812 594.421875 553.806640625 625.188476562 c 0,9,10
 505.350585938 671.427734375 505.350585938 671.427734375 440.688476562 723.881835938 c 128,-1,11
 376.026367188 776.3359375 376.026367188 776.3359375 295.543945312 834.598632812 c 2,12,-1
 264.079101562 857.376953125 l 1,13,-1
 416.651367188 1081.69433594 l 1,14,-1
 449.719726562 1059.23339844 l 2,15,16
 936.74609375 728.415039062 936.74609375 728.415039062 940.823242188 410.512695312 c 0,17,18
 942.393554688 288.104492188 942.393554688 288.104492188 878.450195312 191.954101562 c 0,19,20
 749.15625 1.9931640625 749.15625 1.9931640625 383.268554688 2.1123046875 c 0,21,22
 216.547851562 1.9970703125 216.547851562 1.9970703125 110.051757812 26.07421875 c 2,23,-1
 78.873046875 33.1240234375 l 1,24,-1
 78.873046875 300.918945312 l 1,25,-1
 127.153320312 290.704101562 l 2,0,1
EndSplineSet
Substitution2: "'fina' Terminal Forms in Arabic lookup 9 subtable" uniFEAA
EndChar

StartChar: uni0631
Encoding: 1585 1585 25
GlifName: uni0631
Width: 869
VWidth: 2802
GlyphClass: 2
Flags: W
AnchorPoint: "Anchor-10" 472.58 1336.55 basechar 0
AnchorPoint: "Anchor-7" 373.872 -687.41 basechar 0
LayerCount: 2
Fore
SplineSet
399.572265625 548.1484375 m 1,0,-1
 641.890625 660.990234375 l 1,1,-1
 659.973632812 628.413085938 l 2,2,3
 727.678710938 506.440429688 727.678710938 506.440429688 761.374023438 388.901367188 c 128,-1,4
 795.0703125 271.361328125 795.0703125 271.361328125 794.03515625 158.49609375 c 0,5,6
 792.961914062 53.16796875 792.961914062 53.16796875 764.356445312 -42.052734375 c 128,-1,7
 735.751953125 -137.2734375 735.751953125 -137.2734375 679.962890625 -220.720703125 c 0,8,9
 514.856445312 -470.9921875 514.856445312 -470.9921875 56.8173828125 -514.909179688 c 2,10,-1
 20.1650390625 -518.423828125 l 1,11,-1
 -26.125 -261.56640625 l 1,12,-1
 16.96484375 -257.284179688 l 2,13,14
 351.7578125 -224.013671875 351.7578125 -224.013671875 467.166992188 -59.0439453125 c 0,15,16
 529.959960938 29.66796875 529.959960938 29.66796875 529.606445312 142.231445312 c 0,17,18
 529.034179688 323.250976562 529.034179688 323.250976562 421.333007812 510.344726562 c 2,19,-1
 399.572265625 548.1484375 l 1,0,-1
EndSplineSet
PairPos2: "'kern' Horizontal Kerning lookup 15-2" uniFBFE dx=57 dy=0 dh=57 dv=0 dx=0 dy=0 dh=0 dv=0
PairPos2: "'kern' Horizontal Kerning lookup 15-1" uniFEE7 dx=-170 dy=0 dh=-170 dv=0 dx=0 dy=0 dh=0 dv=0
PairPos2: "'kern' Horizontal Kerning lookup 15-2" uniFB90 dx=-216 dy=0 dh=-216 dv=0 dx=0 dy=0 dh=0 dv=0
PairPos2: "'kern' Horizontal Kerning lookup 15-2" uniFB8E dx=-216 dy=0 dh=-216 dv=0 dx=0 dy=0 dh=0 dv=0
PairPos2: "'kern' Horizontal Kerning lookup 15-2" uni06A9 dx=-216 dy=0 dh=-216 dv=0 dx=0 dy=0 dh=0 dv=0
PairPos2: "'kern' Horizontal Kerning lookup 15-2" uni064A dx=-57 dy=0 dh=-57 dv=0 dx=0 dy=0 dh=0 dv=0
PairPos2: "'kern' Horizontal Kerning lookup 15-2" afii57414 dx=-57 dy=0 dh=-57 dv=0 dx=0 dy=0 dh=0 dv=0
PairPos2: "'kern' Horizontal Kerning lookup 15-2" uni0649 dx=-57 dy=0 dh=-57 dv=0 dx=0 dy=0 dh=0 dv=0
PairPos2: "'kern' Horizontal Kerning lookup 15-2" uniFEEB dx=-170 dy=0 dh=-170 dv=0 dx=0 dy=0 dh=0 dv=0
PairPos2: "'kern' Horizontal Kerning lookup 15-2" uni0647 dx=-170 dy=0 dh=-170 dv=0 dx=0 dy=0 dh=0 dv=0
PairPos2: "'kern' Horizontal Kerning lookup 15-2" uni0646 dx=-57 dy=0 dh=-57 dv=0 dx=0 dy=0 dh=0 dv=0
PairPos2: "'kern' Horizontal Kerning lookup 15-2" uniFEE3 dx=-170 dy=0 dh=-170 dv=0 dx=0 dy=0 dh=0 dv=0
PairPos2: "'kern' Horizontal Kerning lookup 15-2" uni0645 dx=-170 dy=0 dh=-170 dv=0 dx=0 dy=0 dh=0 dv=0
PairPos2: "'kern' Horizontal Kerning lookup 15-2" uniFEFB dx=-136 dy=0 dh=-136 dv=0 dx=0 dy=0 dh=0 dv=0
PairPos2: "'kern' Horizontal Kerning lookup 15-2" uniFEDF dx=-136 dy=0 dh=-136 dv=0 dx=0 dy=0 dh=0 dv=0
PairPos2: "'kern' Horizontal Kerning lookup 15-2" uni0644 dx=-57 dy=0 dh=-57 dv=0 dx=0 dy=0 dh=0 dv=0
PairPos2: "'kern' Horizontal Kerning lookup 15-2" uniFEDB dx=-216 dy=0 dh=-216 dv=0 dx=0 dy=0 dh=0 dv=0
PairPos2: "'kern' Horizontal Kerning lookup 15-2" uni0643 dx=-136 dy=0 dh=-136 dv=0 dx=0 dy=0 dh=0 dv=0
PairPos2: "'kern' Horizontal Kerning lookup 15-2" uniFED7 dx=-170 dy=0 dh=-170 dv=0 dx=0 dy=0 dh=0 dv=0
PairPos2: "'kern' Horizontal Kerning lookup 15-2" uni0642 dx=-57 dy=0 dh=-57 dv=0 dx=0 dy=0 dh=0 dv=0
PairPos2: "'kern' Horizontal Kerning lookup 15-2" uniFED3 dx=-170 dy=0 dh=-170 dv=0 dx=0 dy=0 dh=0 dv=0
PairPos2: "'kern' Horizontal Kerning lookup 15-2" uni0641 dx=-170 dy=0 dh=-170 dv=0 dx=0 dy=0 dh=0 dv=0
PairPos2: "'kern' Horizontal Kerning lookup 15-2" uniFECF dx=-170 dy=0 dh=-170 dv=0 dx=0 dy=0 dh=0 dv=0
PairPos2: "'kern' Horizontal Kerning lookup 15-2" uniFECB dx=-170 dy=0 dh=-170 dv=0 dx=0 dy=0 dh=0 dv=0
PairPos2: "'kern' Horizontal Kerning lookup 15-2" uniFEC7 dx=-170 dy=0 dh=-170 dv=0 dx=0 dy=0 dh=0 dv=0
PairPos2: "'kern' Horizontal Kerning lookup 15-2" uni0638 dx=-170 dy=0 dh=-170 dv=0 dx=0 dy=0 dh=0 dv=0
PairPos2: "'kern' Horizontal Kerning lookup 15-2" uniFEC3 dx=-170 dy=0 dh=-170 dv=0 dx=0 dy=0 dh=0 dv=0
PairPos2: "'kern' Horizontal Kerning lookup 15-2" uni0637 dx=-170 dy=0 dh=-170 dv=0 dx=0 dy=0 dh=0 dv=0
PairPos2: "'kern' Horizontal Kerning lookup 15-2" uniFEBF dx=-170 dy=0 dh=-170 dv=0 dx=0 dy=0 dh=0 dv=0
PairPos2: "'kern' Horizontal Kerning lookup 15-2" uni0636 dx=-170 dy=0 dh=-170 dv=0 dx=0 dy=0 dh=0 dv=0
PairPos2: "'kern' Horizontal Kerning lookup 15-2" uniFEBB dx=-170 dy=0 dh=-170 dv=0 dx=0 dy=0 dh=0 dv=0
PairPos2: "'kern' Horizontal Kerning lookup 15-2" uni0635 dx=-170 dy=0 dh=-170 dv=0 dx=0 dy=0 dh=0 dv=0
PairPos2: "'kern' Horizontal Kerning lookup 15-2" uniFEB7 dx=-170 dy=0 dh=-170 dv=0 dx=0 dy=0 dh=0 dv=0
PairPos2: "'kern' Horizontal Kerning lookup 15-2" uni0634 dx=-170 dy=0 dh=-170 dv=0 dx=0 dy=0 dh=0 dv=0
PairPos2: "'kern' Horizontal Kerning lookup 15-2" uniFEB3 dx=-170 dy=0 dh=-170 dv=0 dx=0 dy=0 dh=0 dv=0
PairPos2: "'kern' Horizontal Kerning lookup 15-2" uni0633 dx=-170 dy=0 dh=-170 dv=0 dx=0 dy=0 dh=0 dv=0
PairPos2: "'kern' Horizontal Kerning lookup 15-2" uni0630 dx=-170 dy=0 dh=-170 dv=0 dx=0 dy=0 dh=0 dv=0
PairPos2: "'kern' Horizontal Kerning lookup 15-2" uni062F dx=-170 dy=0 dh=-170 dv=0 dx=0 dy=0 dh=0 dv=0
PairPos2: "'kern' Horizontal Kerning lookup 15-2" uniFEA7 dx=-170 dy=0 dh=-170 dv=0 dx=0 dy=0 dh=0 dv=0
PairPos2: "'kern' Horizontal Kerning lookup 15-2" uniFEA3 dx=-170 dy=0 dh=-170 dv=0 dx=0 dy=0 dh=0 dv=0
PairPos2: "'kern' Horizontal Kerning lookup 15-2" uniFE9F dx=-170 dy=0 dh=-170 dv=0 dx=0 dy=0 dh=0 dv=0
PairPos2: "'kern' Horizontal Kerning lookup 15-2" uniFE9B dx=-170 dy=0 dh=-170 dv=0 dx=0 dy=0 dh=0 dv=0
PairPos2: "'kern' Horizontal Kerning lookup 15-2" uni062B dx=-170 dy=0 dh=-170 dv=0 dx=0 dy=0 dh=0 dv=0
PairPos2: "'kern' Horizontal Kerning lookup 15-2" uniFE97 dx=-170 dy=0 dh=-170 dv=0 dx=0 dy=0 dh=0 dv=0
PairPos2: "'kern' Horizontal Kerning lookup 15-2" uni062A dx=-170 dy=0 dh=-170 dv=0 dx=0 dy=0 dh=0 dv=0
PairPos2: "'kern' Horizontal Kerning lookup 15-2" uni0629 dx=-170 dy=0 dh=-170 dv=0 dx=0 dy=0 dh=0 dv=0
PairPos2: "'kern' Horizontal Kerning lookup 15-2" uni0628 dx=-170 dy=0 dh=-170 dv=0 dx=0 dy=0 dh=0 dv=0
PairPos2: "'kern' Horizontal Kerning lookup 15-2" uni0627 dx=-136 dy=0 dh=-136 dv=0 dx=0 dy=0 dh=0 dv=0
PairPos2: "'kern' Horizontal Kerning lookup 15-2" uni0623 dx=-136 dy=0 dh=-136 dv=0 dx=0 dy=0 dh=0 dv=0
PairPos2: "'kern' Horizontal Kerning lookup 15-2" uni0622 dx=-136 dy=0 dh=-136 dv=0 dx=0 dy=0 dh=0 dv=0
PairPos2: "'kern' Horizontal Kerning lookup 15-2" uni0621 dx=-170 dy=0 dh=-170 dv=0 dx=0 dy=0 dh=0 dv=0
PairPos2: "'kern' Horizontal Kerning lookup 15-2" uniFB94 dx=-216 dy=0 dh=-216 dv=0 dx=0 dy=0 dh=0 dv=0
PairPos2: "'kern' Horizontal Kerning lookup 15-2" uniFB92 dx=-216 dy=0 dh=-216 dv=0 dx=0 dy=0 dh=0 dv=0
PairPos2: "'kern' Horizontal Kerning lookup 15-2" uni06AF dx=-216 dy=0 dh=-216 dv=0 dx=0 dy=0 dh=0 dv=0
PairPos2: "'kern' Horizontal Kerning lookup 15-2" afii57506 dx=-170 dy=0 dh=-170 dv=0 dx=0 dy=0 dh=0 dv=0
PairPos2: "'kern' Horizontal Kerning lookup 15-2" afii57440 dx=-170 dy=0 dh=-170 dv=0 dx=0 dy=0 dh=0 dv=0
PairPos2: "'kern' Horizontal Kerning lookup 15-2" uniFE8B dx=-170 dy=0 dh=-170 dv=0 dx=0 dy=0 dh=0 dv=0
Substitution2: "'fina' Terminal Forms in Arabic lookup 9 subtable" uniFEAE
EndChar

StartChar: uni0633
Encoding: 1587 1587 27
GlifName: uni0633
Width: 2487
VWidth: 2762
GlyphClass: 2
Flags: W
AnchorPoint: "Anchor-10" 740.104 1165.38 basechar 0
AnchorPoint: "Anchor-7" 563.969 -733.127 basechar 0
LayerCount: 2
Fore
SplineSet
2053.21875 0 m 0,0,1
 1896.17871094 0 1896.17871094 0 1801.19042969 119.208984375 c 1,2,3
 1708.09375 0 1708.09375 0 1551.96191406 0 c 0,4,5
 1468.61523438 0 1468.61523438 0 1401.57519531 37.556640625 c 1,6,7
 1389.26367188 -91.8359375 1389.26367188 -91.8359375 1336.38183594 -201.776367188 c 0,8,9
 1298.78125 -280.458007812 1298.78125 -280.458007812 1242.08984375 -339.790039062 c 128,-1,10
 1185.3984375 -399.123046875 1185.3984375 -399.123046875 1111.20117188 -438.127929688 c 128,-1,11
 1037.00292969 -477.133789062 1037.00292969 -477.133789062 946.165039062 -496.723632812 c 128,-1,12
 855.328125 -516.313476562 855.328125 -516.313476562 748.27734375 -516.422851562 c 0,13,14
 536.45703125 -516.623046875 536.45703125 -516.623046875 391.08984375 -448.908203125 c 128,-1,15
 245.723632812 -381.194335938 245.723632812 -381.194335938 170.819335938 -246.576171875 c 128,-1,16
 95.916015625 -111.958007812 95.916015625 -111.958007812 95.3291015625 85.541015625 c 0,17,18
 94.986328125 311.9375 94.986328125 311.9375 209.735351562 555.041992188 c 2,19,-1
 225.834960938 589.149414062 l 1,20,-1
 458.350585938 495.670898438 l 1,21,-1
 443.588867188 458.625976562 l 2,22,23
 357.022460938 241.380859375 357.022460938 241.380859375 357.462890625 93.318359375 c 0,24,25
 358.625 -81.8056640625 358.625 -81.8056640625 454.836914062 -165.755859375 c 128,-1,26
 551.048828125 -249.70703125 551.048828125 -249.70703125 757.16796875 -250.336914062 c 0,27,28
 762.122070312 -250.356445312 762.122070312 -250.356445312 766.997070312 -250.31640625 c 0,29,30
 963.592773438 -248.696289062 963.592773438 -248.696289062 1055.34082031 -154.658203125 c 128,-1,31
 1147.08789062 -60.619140625 1147.08789062 -60.619140625 1145.44824219 137.93359375 c 0,32,33
 1144.0546875 312.977539062 1144.0546875 312.977539062 1065.31542969 535.510742188 c 2,34,-1
 1051.91992188 573.370117188 l 1,35,-1
 1299.40332031 659.833984375 l 1,36,-1
 1378.08398438 407.348632812 l 2,37,38
 1401.37695312 333.026367188 1401.37695312 333.026367188 1443.98242188 299.555664062 c 128,-1,39
 1486.58886719 266.083984375 1486.58886719 266.083984375 1555.33886719 266.145507812 c 0,40,41
 1598.3125 266.09375 1598.3125 266.09375 1621.70898438 293.232421875 c 128,-1,42
 1645.10449219 320.372070312 1645.10449219 320.372070312 1652.68847656 389.797851562 c 2,43,-1
 1681.57519531 654.231445312 l 1,44,-1
 1906.52929688 654.231445312 l 1,45,-1
 1935.23730469 388.901367188 l 2,46,47
 1942.70703125 320.896484375 1942.70703125 320.896484375 1970.07714844 293.348632812 c 128,-1,48
 1997.44824219 265.80078125 1997.44824219 265.80078125 2052.16015625 266.318359375 c 0,49,50
 2097.24707031 266.885742188 2097.24707031 266.885742188 2121.44335938 307.767578125 c 128,-1,51
 2145.63964844 348.650390625 2145.63964844 348.650390625 2145.33398438 451.048828125 c 0,52,53
 2145.01367188 597.760742188 2145.01367188 597.760742188 2106.28808594 719.741210938 c 2,54,-1
 2092.47949219 763.23828125 l 1,55,-1
 2346.15136719 808.33984375 l 1,56,-1
 2356.71972656 774.844726562 l 2,57,58
 2403.03808594 628.040039062 2403.03808594 628.040039062 2401.99121094 458.677734375 c 0,59,60
 2401.47070312 238.700195312 2401.47070312 238.700195312 2313.53125 119.350585938 c 128,-1,61
 2225.59179688 0 2225.59179688 0 2053.21875 0 c 0,0,1
EndSplineSet
Substitution2: "'fina' Terminal Forms in Arabic lookup 9 subtable" uniFEB2
Substitution2: "'medi' Medial Forms in Arabic lookup 11 subtable" uniFEB4
Substitution2: "'init' Initial Forms in Arabic lookup 13 subtable" uniFEB3
EndChar

StartChar: uni0635
Encoding: 1589 1589 29
GlifName: uni0635
Width: 2607
VWidth: 2802
GlyphClass: 2
Flags: W
AnchorPoint: "Anchor-7" 563.969 -733.127 basechar 0
AnchorPoint: "Anchor-10" 740.104 1165.38 basechar 0
LayerCount: 2
Fore
SplineSet
1642.74414062 0 m 2,0,1
 1497.11425781 0 1497.11425781 0 1402.27832031 44.5068359375 c 1,2,3
 1390.91894531 -88.3935546875 1390.91894531 -88.3935546875 1336.38964844 -201.759765625 c 0,4,5
 1311.28515625 -254.291015625 1311.28515625 -254.291015625 1277.62304688 -298.248046875 c 128,-1,6
 1243.9609375 -342.205078125 1243.9609375 -342.205078125 1202.36230469 -377.012695312 c 128,-1,7
 1160.76367188 -411.821289062 1160.76367188 -411.821289062 1111.30664062 -438.040039062 c 128,-1,8
 1061.84960938 -464.258789062 1061.84960938 -464.258789062 1004.84570312 -481.592773438 c 128,-1,9
 947.841796875 -498.926757812 947.841796875 -498.926757812 883.69921875 -507.638671875 c 128,-1,10
 819.556640625 -516.349609375 819.556640625 -516.349609375 748.27734375 -516.422851562 c 0,11,12
 536.45703125 -516.623046875 536.45703125 -516.623046875 391.08984375 -448.908203125 c 128,-1,13
 245.723632812 -381.194335938 245.723632812 -381.194335938 170.819335938 -246.576171875 c 128,-1,14
 95.916015625 -111.958007812 95.916015625 -111.958007812 95.3291015625 85.541015625 c 0,15,16
 94.986328125 311.9375 94.986328125 311.9375 209.735351562 555.041992188 c 2,17,-1
 225.834960938 589.149414062 l 1,18,-1
 458.350585938 495.670898438 l 1,19,-1
 443.588867188 458.625976562 l 2,20,21
 357.022460938 241.380859375 357.022460938 241.380859375 357.462890625 93.318359375 c 0,22,23
 358.23828125 -23.5673828125 358.23828125 -23.5673828125 400.379882812 -98.9013671875 c 128,-1,24
 442.521484375 -174.236328125 442.521484375 -174.236328125 530.75 -212.075195312 c 128,-1,25
 618.977539062 -249.9140625 618.977539062 -249.9140625 757.182617188 -250.336914062 c 0,26,27
 766.631835938 -250.373046875 766.631835938 -250.373046875 775.83203125 -250.198242188 c 0,28,29
 970.221679688 -246.500976562 970.221679688 -246.500976562 1059.7890625 -152.643554688 c 128,-1,30
 1149.35644531 -58.78515625 1149.35644531 -58.78515625 1145.45507812 137.485351562 c 0,31,32
 1143.79785156 227.234375 1143.79785156 227.234375 1123.81542969 326.784179688 c 128,-1,33
 1103.83300781 426.333984375 1103.83300781 426.333984375 1065.30273438 535.545898438 c 2,34,-1
 1051.95410156 573.381835938 l 1,35,-1
 1299.40332031 659.833984375 l 1,36,-1
 1378.08203125 407.354492188 l 2,37,38
 1384.83496094 385.797851562 1384.83496094 385.797851562 1392.8359375 368.172851562 c 128,-1,39
 1400.8359375 350.548828125 1400.8359375 350.548828125 1407.93359375 339.797851562 c 128,-1,40
 1415.03027344 329.046875 1415.03027344 329.046875 1421.83300781 322.685546875 c 1,41,42
 1768.51074219 909.254882812 1768.51074219 909.254882812 2120.85058594 903.1953125 c 0,43,44
 2346.33886719 899.670898438 2346.33886719 899.670898438 2458.93359375 734.892578125 c 0,45,46
 2523.0078125 641.376953125 2523.0078125 641.376953125 2522.92871094 521.349609375 c 0,47,48
 2522.94824219 390.060546875 2522.94824219 390.060546875 2471.16894531 291.159179688 c 128,-1,49
 2419.38964844 192.258789062 2419.38964844 192.258789062 2318.89160156 128.1328125 c 128,-1,50
 2218.39257812 64.0078125 2218.39257812 64.0078125 2073.31054688 32.00390625 c 128,-1,51
 1928.22851562 0 1928.22851562 0 1739.13769531 0 c 2,52,-1
 1642.74414062 0 l 2,0,1
1682.68164062 266.391601562 m 1,53,-1
 1744.3984375 266.391601562 l 2,54,55
 2022.46289062 266.014648438 2022.46289062 266.014648438 2150.078125 338.458984375 c 0,56,57
 2263.09863281 402.38671875 2263.09863281 402.38671875 2263.52539062 502.838867188 c 0,58,59
 2263.88671875 560.182617188 2263.88671875 560.182617188 2223.4296875 596.278320312 c 0,60,61
 2202.55078125 615.154296875 2202.55078125 615.154296875 2172.04785156 624.943359375 c 128,-1,62
 2141.54492188 634.733398438 2141.54492188 634.733398438 2099.30664062 634.526367188 c 0,63,64
 2079.78417969 634.291015625 2079.78417969 634.291015625 2058.66992188 628.771484375 c 128,-1,65
 2037.55664062 623.251953125 2037.55664062 623.251953125 2014.5546875 612.361328125 c 128,-1,66
 1991.55371094 601.470703125 1991.55371094 601.470703125 1966.88183594 584.6796875 c 128,-1,67
 1942.20898438 567.889648438 1942.20898438 567.889648438 1916.05957031 545.622070312 c 128,-1,68
 1889.91015625 523.354492188 1889.91015625 523.354492188 1861.97851562 494.536132812 c 128,-1,69
 1834.046875 465.71875 1834.046875 465.71875 1805.04785156 431.318359375 c 128,-1,70
 1776.04980469 396.91796875 1776.04980469 396.91796875 1745.15625 355.31640625 c 128,-1,71
 1714.26367188 313.71484375 1714.26367188 313.71484375 1682.68164062 266.391601562 c 1,53,-1
EndSplineSet
Substitution2: "'fina' Terminal Forms in Arabic lookup 9 subtable" uniFEBA
Substitution2: "'medi' Medial Forms in Arabic lookup 11 subtable" uniFEBC
Substitution2: "'init' Initial Forms in Arabic lookup 13 subtable" uniFEBB
EndChar

StartChar: uni0637
Encoding: 1591 1591 31
GlifName: uni0637
Width: 1521
VWidth: 2802
GlyphClass: 2
Flags: W
AnchorPoint: "Anchor-10" 483.007 1597.04 basechar 0
AnchorPoint: "Anchor-7" 666.253 -181.983 basechar 0
LayerCount: 2
Fore
SplineSet
653.765625 0 m 2,0,-1
 88.9619140625 0 l 1,1,-1
 88.9619140625 266.176757812 l 1,2,-1
 306.048828125 266.3359375 l 1,3,4
 318 286 318 286 358.198242188 340.924804688 c 5,5,-1
 358.198242188 1476.96484375 l 5,6,-1
 615.155273438 1476.96484375 l 1,7,-1
 615.155273438 704.959960938 l 1,8,9
 810 904 810 904 1034.82617188 903.201171875 c 0,10,11
 1258 902 1258 902 1373.54882812 734.911132812 c 0,12,13
 1438 641 1438 641 1437.55664062 521.296875 c 0,14,15
 1438 347 1438 347 1346 230 c 0,16,17
 1165 0 1165 0 653.765625 0 c 2,0,-1
597.149414062 268.458984375 m 1,18,-1
 659.028320312 268.458984375 l 2,19,20
 942.036132812 268.021484375 942.036132812 268.021484375 1060.03271485 336.994628906 c 128,-1,21
 1178.02929688 405.967773438 1178.02929688 405.967773438 1178.15136719 502.612304688 c 0,22,23
 1178.03895908 558.276791385 1178.03895908 558.276791385 1137.63085938 596.666015625 c 0,24,25
 1095.14746094 634.921875 1095.14746094 634.921875 1013.5234375 634.234863281 c 128,-1,26
 931.899414062 633.547851562 931.899414062 633.547851562 825.65625 542.920898438 c 128,-1,27
 719.413085938 452.293945312 719.413085938 452.293945312 597.149414062 268.458984375 c 1,18,-1
EndSplineSet
Substitution2: "'fina' Terminal Forms in Arabic lookup 9 subtable" uniFEC2
Substitution2: "'medi' Medial Forms in Arabic lookup 11 subtable" uniFEC4
Substitution2: "'init' Initial Forms in Arabic lookup 13 subtable" uniFEC3
EndChar

StartChar: uni0639
Encoding: 1593 1593 33
GlifName: uni0639
Width: 1359
VWidth: 2802
GlyphClass: 2
Flags: W
AnchorPoint: "Anchor-7" 533.391 -857.848 basechar 0
AnchorPoint: "Anchor-10" 694.171 1389.34 basechar 0
LayerCount: 2
Fore
SplineSet
86.857421875 -103.329101562 m 0,0,1
 86.43359375 72.337890625 86.43359375 72.337890625 163.483398438 207.344726562 c 128,-1,2
 240.533203125 342.3515625 240.533203125 342.3515625 391.563476562 431.403320312 c 1,3,4
 365.319335938 464.591796875 365.319335938 464.591796875 345.650390625 495.548828125 c 0,5,6
 251.24609375 644.124023438 251.24609375 644.124023438 299.555664062 815.833007812 c 0,7,8
 325.807617188 909.142578125 325.807617188 909.142578125 391.064453125 977.844726562 c 0,9,10
 506.931640625 1101.25976562 506.931640625 1101.25976562 722.744140625 1098.03515625 c 0,11,12
 924.7578125 1094.80078125 924.7578125 1094.80078125 1100.22070312 973.634765625 c 2,13,-1
 1127.26074219 954.961914062 l 1,14,-1
 1029.46679688 729.34765625 l 1,15,-1
 990.353515625 752.756835938 l 2,16,17
 857.969726562 831.985351562 857.969726562 831.985351562 724.310546875 831.805664062 c 0,18,19
 692.96484375 831.625976562 692.96484375 831.625976562 667.633789062 826.680664062 c 128,-1,20
 642.302734375 821.736328125 642.302734375 821.736328125 622.814453125 812.03125 c 128,-1,21
 603.327148438 802.326171875 603.327148438 802.326171875 588.943359375 788.696289062 c 128,-1,22
 574.560546875 775.065429688 574.560546875 775.065429688 563.899414062 756.69921875 c 0,23,24
 527.338867188 694.046875 527.338867188 694.046875 562.247070312 634.500976562 c 0,25,26
 576.146484375 611.291992188 576.146484375 611.291992188 589.829101562 591.321289062 c 128,-1,27
 603.51171875 571.349609375 603.51171875 571.349609375 614.826171875 557.291015625 c 128,-1,28
 626.140625 543.232421875 626.140625 543.232421875 635.412109375 534.232421875 c 1,29,30
 917.87890625 579.458007812 917.87890625 579.458007812 1154.59667969 550.70703125 c 2,31,-1
 1194.27539062 545.887695312 l 1,32,-1
 1163.07617188 287.443359375 l 1,33,-1
 1126.08300781 289.036132812 l 2,34,35
 852.993164062 300.791015625 852.993164062 300.791015625 673.048828125 256.5703125 c 0,36,37
 500.998046875 213.893554688 500.998046875 213.893554688 420.280273438 125.249023438 c 128,-1,38
 339.563476562 36.6044921875 339.563476562 36.6044921875 340.032226562 -103.521484375 c 0,39,40
 340.458007812 -256.801757812 340.458007812 -256.801757812 464.40234375 -334.567382812 c 128,-1,41
 588.346679688 -412.333007812 588.346679688 -412.333007812 856.79296875 -412.64453125 c 0,42,43
 1012.47167969 -412.985351562 1012.47167969 -412.985351562 1189.94433594 -353.060546875 c 2,44,-1
 1232.97558594 -338.530273438 l 1,45,-1
 1284.48339844 -593.985351562 l 1,46,-1
 1251.22753906 -605.315429688 l 2,47,48
 1184.20898438 -628.1484375 1184.20898438 -628.1484375 1117.52539062 -643.352539062 c 128,-1,49
 1050.84179688 -658.556640625 1050.84179688 -658.556640625 984.452148438 -666.107421875 c 128,-1,50
 918.0625 -673.658203125 918.0625 -673.658203125 852.309570312 -673.477539062 c 0,51,52
 303.213867188 -674.631835938 303.213867188 -674.631835938 146.124023438 -371.34765625 c 0,53,54
 87.408203125 -256.8359375 87.408203125 -256.8359375 86.857421875 -103.329101562 c 0,0,1
EndSplineSet
Substitution2: "'fina' Terminal Forms in Arabic lookup 9 subtable" uniFECA
Substitution2: "'medi' Medial Forms in Arabic lookup 11 subtable" uniFECC
Substitution2: "'init' Initial Forms in Arabic lookup 13 subtable" uniFECB
EndChar

StartChar: afii57440
Encoding: 1600 1600 35
GlifName: afii57440
Width: 268
VWidth: 2802
GlyphClass: 2
Flags: W
AnchorPoint: "Anchor-10" 125.849 1523.96 basechar 0
AnchorPoint: "Anchor-7" 119.243 -155.759 basechar 0
LayerCount: 2
Fore
SplineSet
-6.478515625 0 m 2,0,1
 -60.96484375 0 -60.96484375 0 -92.4443359375 35.4423828125 c 128,-1,2
 -123.922851562 70.8857421875 -123.922851562 70.8857421875 -123.922851562 127.224609375 c 2,3,-1
 -123.922851562 144.836914062 l 2,4,5
 -123.922851562 201.888671875 -123.922851562 201.888671875 -92.609375 238.076171875 c 128,-1,6
 -61.296875 274.262695312 -61.296875 274.262695312 -6.478515625 274.262695312 c 2,7,-1
 275.17578125 274.262695312 l 2,8,9
 285.415039062 274.262695312 285.415039062 274.262695312 293.96484375 271.533203125 c 128,-1,10
 302.513671875 268.802734375 302.513671875 268.802734375 308.700195312 265.055664062 c 128,-1,11
 314.885742188 261.30859375 314.885742188 261.30859375 319.776367188 253.98046875 c 128,-1,12
 324.666992188 246.65234375 324.666992188 246.65234375 327.813476562 240.993164062 c 128,-1,13
 330.959960938 235.333984375 330.959960938 235.333984375 333.189453125 225.0078125 c 128,-1,14
 335.418945312 214.680664062 335.418945312 214.680664062 336.5234375 208.709960938 c 128,-1,15
 337.627929688 202.73828125 337.627929688 202.73828125 338.194335938 191.012695312 c 128,-1,16
 338.760742188 179.287109375 338.760742188 179.287109375 338.821289062 174.603515625 c 128,-1,17
 338.8828125 169.919921875 338.8828125 169.919921875 338.784179688 158.39453125 c 128,-1,18
 338.685546875 146.869140625 338.685546875 146.869140625 338.685546875 144.836914062 c 2,19,-1
 338.685546875 127.203125 l 2,20,21
 338.68359375 125.7109375 338.68359375 125.7109375 338.756835938 113.93359375 c 128,-1,22
 338.830078125 102.155273438 338.830078125 102.155273438 338.75 97.96484375 c 128,-1,23
 338.669921875 93.7744140625 338.669921875 93.7744140625 338.072265625 81.8984375 c 128,-1,24
 337.474609375 70.0224609375 337.474609375 70.0224609375 336.349609375 64.4501953125 c 128,-1,25
 335.224609375 58.8779296875 335.224609375 58.8779296875 332.974609375 48.4794921875 c 128,-1,26
 330.724609375 38.0810546875 330.724609375 38.0810546875 327.573242188 32.7041015625 c 128,-1,27
 324.421875 27.326171875 324.421875 27.326171875 319.538085938 19.982421875 c 128,-1,28
 314.655273438 12.638671875 314.655273438 12.638671875 308.49609375 9.0322265625 c 128,-1,29
 302.3359375 5.4267578125 302.3359375 5.4267578125 293.837890625 2.712890625 c 128,-1,30
 285.338867188 0 285.338867188 0 275.17578125 0 c 2,31,-1
 -6.478515625 0 l 2,0,1
EndSplineSet
EndChar

StartChar: uni0643
Encoding: 1603 1603 38
GlifName: uni0643
Width: 1898
VWidth: 2802
GlyphClass: 2
Flags: W
AnchorPoint: "Anchor-10" 974.03 1628.49 basechar 0
AnchorPoint: "Anchor-7" 659.919 -189.038 basechar 0
LayerCount: 2
Fore
SplineSet
901.278320312 266.162109375 m 0,0,1
 1010.3125 266.002929688 1010.3125 266.002929688 1125.74609375 275.928710938 c 0,2,3
 1339.47753906 294.547851562 1339.47753906 294.547851562 1436.15917969 369.719726562 c 128,-1,4
 1532.84082031 444.891601562 1532.84082031 444.891601562 1530.36230469 578.4296875 c 2,5,-1
 1530.36230469 1552.49121094 l 1,6,-1
 1790.65039062 1552.49121094 l 1,7,-1
 1790.65039062 581.081054688 l 2,8,9
 1790.8359375 382.013671875 1790.8359375 382.013671875 1693.5 248.791015625 c 128,-1,10
 1596.1640625 115.568359375 1596.1640625 115.568359375 1407.16503906 56.3486328125 c 0,11,12
 1232.21191406 1.01171875 1232.21191406 1.01171875 897.421875 0.384765625 c 0,13,14
 492.529296875 -0.8369140625 492.529296875 -0.8369140625 279.755859375 138.139648438 c 128,-1,15
 66.982421875 277.116210938 66.982421875 277.116210938 66.9619140625 556.849609375 c 0,16,17
 67.001953125 695.732421875 67.001953125 695.732421875 108.325195312 815.124023438 c 2,18,-1
 120.4453125 850.140625 l 1,19,-1
 347.48828125 790.518554688 l 1,20,-1
 340.098632812 753.560546875 l 2,21,22
 317.040039062 638.241210938 317.040039062 638.241210938 317.842773438 559.044921875 c 0,23,24
 318.72265625 488.834960938 318.72265625 488.834960938 352.286132812 435.57421875 c 128,-1,25
 385.849609375 382.313476562 385.849609375 382.313476562 455.319335938 344.064453125 c 128,-1,26
 524.7890625 305.815429688 524.7890625 305.815429688 636.6796875 286.091796875 c 128,-1,27
 748.5703125 266.369140625 748.5703125 266.369140625 901.278320312 266.162109375 c 0,0,1
724.529296875 866.743164062 m 2,28,29
 812.387695312 856.73046875 812.387695312 856.73046875 877.208984375 856.286132812 c 0,30,31
 915.815429688 856.021484375 915.815429688 856.021484375 945.370117188 859.211914062 c 128,-1,32
 974.923828125 862.401367188 974.923828125 862.401367188 990.671875 867.03515625 c 128,-1,33
 1006.41992188 871.66796875 1006.41992188 871.66796875 1016.28125 877.729492188 c 128,-1,34
 1026.14257812 883.791992188 1026.14257812 883.791992188 1028.88476562 888.147460938 c 128,-1,35
 1031.62792969 892.50390625 1031.62792969 892.50390625 1031.65039062 896.26171875 c 0,36,37
 1031.74414062 916.577148438 1031.74414062 916.577148438 1016.70703125 929.272460938 c 128,-1,38
 1001.67089844 941.967773438 1001.67089844 941.967773438 956.1953125 948.694335938 c 0,39,40
 842.91015625 965.758789062 842.91015625 965.758789062 781.245117188 1028.47167969 c 128,-1,41
 719.579101562 1091.18457031 719.579101562 1091.18457031 721.8203125 1192.98144531 c 0,42,43
 723.418945312 1254.27734375 723.418945312 1254.27734375 752.081054688 1301.61621094 c 128,-1,44
 780.744140625 1348.95507812 780.744140625 1348.95507812 833.686523438 1380.52148438 c 128,-1,45
 886.627929688 1412.08886719 886.627929688 1412.08886719 958.368164062 1430.57617188 c 128,-1,46
 1030.10839844 1449.06445312 1030.10839844 1449.06445312 1121.97753906 1455.47558594 c 2,47,-1
 1178 1459.38476562 l 1,48,-1
 1178 1250.45800781 l 1,49,-1
 1141.60644531 1247.16308594 l 2,50,51
 1092.93652344 1242.75683594 1092.93652344 1242.75683594 1054.28710938 1235.36035156 c 128,-1,52
 1015.63769531 1227.96289062 1015.63769531 1227.96289062 994.26953125 1220.57128906 c 128,-1,53
 972.900390625 1213.17871094 972.900390625 1213.17871094 958.81640625 1205.3515625 c 128,-1,54
 944.732421875 1197.5234375 944.732421875 1197.5234375 940.208984375 1192.53222656 c 128,-1,55
 935.685546875 1187.54101562 935.685546875 1187.54101562 935.7109375 1184.66796875 c 0,56,57
 935.741210938 1177.79882812 935.741210938 1177.79882812 940.48828125 1171.0859375 c 128,-1,58
 945.235351562 1164.37304688 945.235351562 1164.37304688 967.359375 1154.73242188 c 128,-1,59
 989.483398438 1145.09179688 989.483398438 1145.09179688 1027.40527344 1139.25976562 c 0,60,61
 1129.67871094 1123.265625 1129.67871094 1123.265625 1187.34667969 1069.06835938 c 128,-1,62
 1245.01464844 1014.87109375 1245.01464844 1014.87109375 1245.03808594 926.887695312 c 0,63,64
 1245.0234375 873.725585938 1245.0234375 873.725585938 1229.39550781 828.294921875 c 128,-1,65
 1213.76855469 782.864257812 1213.76855469 782.864257812 1182.81835938 746.559570312 c 128,-1,66
 1151.86914062 710.254882812 1151.86914062 710.254882812 1106.71875 684.87890625 c 0,67,68
 1085.06738281 672.825195312 1085.06738281 672.825195312 1059.57324219 664.247070312 c 128,-1,69
 1034.07910156 655.668945312 1034.07910156 655.668945312 1004.92675781 650.633789062 c 128,-1,70
 975.774414062 645.598632812 975.774414062 645.598632812 943.28125 643.65625 c 128,-1,71
 910.788085938 641.713867188 910.788085938 641.713867188 874.038085938 642.951171875 c 128,-1,72
 837.2890625 644.189453125 837.2890625 644.189453125 797.774414062 648.135742188 c 128,-1,73
 758.258789062 652.083007812 758.258789062 652.083007812 713.963867188 658.844726562 c 2,74,-1
 680 664.029296875 l 1,75,-1
 680 871.817382812 l 1,76,-1
 724.529296875 866.743164062 l 2,28,29
EndSplineSet
Substitution2: "'fina' Terminal Forms in Arabic lookup 9 subtable" uniFEDA
Substitution2: "'medi' Medial Forms in Arabic lookup 11 subtable" uniFEDC
Substitution2: "'init' Initial Forms in Arabic lookup 13 subtable" uniFEDB
EndChar

StartChar: uni0644
Encoding: 1604 1604 39
GlifName: uni0644
Width: 1444
VWidth: 2802
GlyphClass: 2
Flags: W
AnchorPoint: "Anchor-7" 563.969 -733.127 basechar 0
AnchorPoint: "Anchor-10" 595.06 1261.58 basechar 0
LayerCount: 2
Fore
SplineSet
1315.87792969 1476.14257812 m 1,0,-1
 1315.19921875 324.2109375 l 2,1,2
 1315 185 1315 185 1306.35351562 67.859375 c 0,3,4
 1285 -206 1285 -206 1153.77832031 -342.932617188 c 0,5,6
 989 -515 989 -515 708.504882812 -516.421875 c 0,7,8
 587 -517 587 -517 488.573242188 -494.16015625 c 0,9,10
 390 -471 390 -471 314.768554688 -423.849609375 c 0,11,12
 240 -377 240 -377 188.779296875 -306.716796875 c 0,13,14
 138 -237 138 -237 111.737304688 -143.178710938 c 0,15,16
 86 -50 86 -50 85.3291015625 65.5400390625 c 0,17,18
 85.0000753626 293.947683851 85.0000753626 293.947683851 179.72265625 495.014648438 c 2,19,-1
 195.80859375 529.16015625 l 1,20,-1
 428.336914062 435.676757812 l 1,21,-1
 413.594726562 398.639648438 l 2,22,23
 347 231 347 231 347.462890625 73.3203125 c 0,24,25
 348 -39 348 -39 387.185546875 -110.299804688 c 0,26,27
 426 -182 426 -182 507.48828125 -216.619140625 c 0,28,29
 589 -251 589 -251 716.674804688 -250.338867188 c 0,30,31
 888 -249 888 -249 970.552734375 -155.37109375 c 0,32,33
 1056.58848121 -58.4635199799 1056.58848121 -58.4635199799 1057.05761719 138.0546875 c 6,34,-1
 1060.25195312 1476.14257812 l 5,35,-1
 1315.87792969 1476.14257812 l 1,0,-1
EndSplineSet
Substitution2: "'fina' Terminal Forms in Arabic lookup 9 subtable" uniFEDE
Substitution2: "'medi' Medial Forms in Arabic lookup 11 subtable" uniFEE0
Substitution2: "'init' Initial Forms in Arabic lookup 13 subtable" uniFEDF
EndChar

StartChar: uni0645
Encoding: 1605 1605 40
GlifName: uni0645
Width: 1267
VWidth: 2494
GlyphClass: 2
Flags: W
AnchorPoint: "Anchor-7" 773.994 -275.441 basechar 0
AnchorPoint: "Anchor-10" 755.558 1365.57 basechar 0
LayerCount: 2
Fore
SplineSet
873.729492188 -19.9638671875 m 0,0,1
 738.61328125 -18.9208984375 738.61328125 -18.9208984375 592.912109375 60.9326171875 c 0,2,3
 552.58984375 83.0244140625 552.58984375 83.0244140625 511.875 105.909179688 c 0,4,5
 464.95703125 131.846679688 464.95703125 131.846679688 436.916015625 131.4296875 c 0,6,7
 420.564453125 131.247070312 420.564453125 131.247070312 406.044921875 117.556640625 c 128,-1,8
 391.525390625 103.865234375 391.525390625 103.865234375 378.112304688 73.51171875 c 128,-1,9
 364.69921875 43.1591796875 364.69921875 43.1591796875 356.801757812 -14.951171875 c 128,-1,10
 348.904296875 -73.0615234375 348.904296875 -73.0615234375 348.904296875 -152.80859375 c 2,11,-1
 348.904296875 -676.813476562 l 1,12,-1
 87.9619140625 -676.813476562 l 1,13,-1
 87.9619140625 -147.208984375 l 2,14,15
 88.0009765625 334.830078125 88.0009765625 334.830078125 373.487304688 398.71875 c 1,16,17
 432.407226562 540.334960938 432.407226562 540.334960938 519.387695312 650.463867188 c 0,18,19
 633.778320312 794.068359375 633.778320312 794.068359375 804.374023438 793.462890625 c 0,20,21
 834.034179688 793.376953125 834.034179688 793.376953125 861.911132812 789.165039062 c 128,-1,22
 889.7890625 784.953125 889.7890625 784.953125 915.576171875 776.706054688 c 128,-1,23
 941.364257812 768.459960938 941.364257812 768.459960938 965.109375 756.14453125 c 128,-1,24
 988.853515625 743.829101562 988.853515625 743.829101562 1010.23828125 727.620117188 c 128,-1,25
 1031.62304688 711.412109375 1031.62304688 711.412109375 1050.70507812 691.186523438 c 128,-1,26
 1069.78710938 670.9609375 1069.78710938 670.9609375 1086.23925781 646.978515625 c 0,27,28
 1135.6875 574.28125 1135.6875 574.28125 1160.95605469 498.578125 c 128,-1,29
 1186.22460938 422.874023438 1186.22460938 422.874023438 1186.4921875 345.067382812 c 0,30,31
 1187.04882812 180.54296875 1187.04882812 180.54296875 1107.63476562 85.53515625 c 0,32,33
 1018.58789062 -21.154296875 1018.58789062 -21.154296875 873.729492188 -19.9638671875 c 0,0,1
634.939453125 350.50390625 m 1,34,35
 718.328125 282.509765625 718.328125 282.509765625 790.869140625 258.859375 c 0,36,37
 853.897460938 237.663085938 853.897460938 237.663085938 892.205078125 240.571289062 c 0,38,39
 923.271484375 242.9296875 923.271484375 242.9296875 935.484375 261.79296875 c 128,-1,40
 947.698242188 280.655273438 947.698242188 280.655273438 943.607421875 334.338867188 c 0,41,42
 937.942382812 407.311523438 937.942382812 407.311523438 894.087890625 471.870117188 c 0,43,44
 856.750976562 527.032226562 856.750976562 527.032226562 805.662109375 527.109375 c 0,45,46
 705.4765625 528.502929688 705.4765625 528.502929688 634.939453125 350.50390625 c 1,34,35
EndSplineSet
Substitution2: "'init' Initial Forms in Arabic lookup 13 subtable" uniFEE3
Substitution2: "'medi' Medial Forms in Arabic lookup 11 subtable" uniFEE4
Substitution2: "'fina' Terminal Forms in Arabic lookup 9 subtable" uniFEE2
EndChar

StartChar: uni0647
Encoding: 1607 1607 42
GlifName: uni0647
Width: 991
VWidth: 2802
GlyphClass: 2
Flags: W
AnchorPoint: "Anchor-10" 435.501 1367.31 basechar 0
AnchorPoint: "Anchor-7" 472.717 -173.033 basechar 0
LayerCount: 2
Fore
SplineSet
485.140625 636.905273438 m 5,0,1
 331.186523438 493.594726562 331.186523438 493.594726562 331.895507812 392.803710938 c 4,2,3
 332.325195312 331.422851562 332.325195312 331.422851562 368.208984375 303.294921875 c 132,-1,4
 404.09375 275.166992188 404.09375 275.166992188 492.713867188 275.299804688 c 4,5,6
 584.98046875 275.166015625 584.98046875 275.166015625 622.939453125 303.643554688 c 132,-1,7
 660.8984375 332.12109375 660.8984375 332.12109375 662.090820312 392.872070312 c 4,8,9
 662.232421875 401.88671875 662.232421875 401.88671875 660.443359375 411.83203125 c 132,-1,10
 658.653320312 421.778320312 658.653320312 421.778320312 654.723632812 433.016601562 c 132,-1,11
 650.794921875 444.255859375 650.794921875 444.255859375 644.83984375 456.295898438 c 132,-1,12
 638.883789062 468.336914062 638.883789062 468.336914062 630.4609375 481.668945312 c 132,-1,13
 622.038085938 495.001953125 622.038085938 495.001953125 611.509765625 508.998046875 c 132,-1,14
 600.981445312 522.995117188 600.981445312 522.995117188 587.658203125 538.282226562 c 132,-1,15
 574.333984375 553.569335938 574.333984375 553.569335938 558.825195312 569.383789062 c 132,-1,16
 543.317382812 585.198242188 543.317382812 585.198242188 524.684570312 602.30078125 c 132,-1,17
 506.051757812 619.403320312 506.051757812 619.403320312 485.140625 636.905273438 c 5,0,1
422.709960938 1039.80175781 m 6,18,19
 660.543945312 867.27734375 660.543945312 867.27734375 783.466796875 706.65234375 c 132,-1,20
 906.390625 546.02734375 906.390625 546.02734375 910.544921875 392.247070312 c 4,21,22
 913.541992188 287.483398438 913.541992188 287.483398438 869.018554688 205.413085938 c 132,-1,23
 824.494140625 123.34375 824.494140625 123.34375 735.4609375 69.79296875 c 4,24,25
 628.109375 4.982421875 628.109375 4.982421875 494.740234375 5.19140625 c 4,26,27
 377.673828125 4.9833984375 377.673828125 4.9833984375 272.442382812 57.0810546875 c 4,28,29
 178.96875 103.525390625 178.96875 103.525390625 131.018554688 186.002929688 c 132,-1,30
 83.0673828125 268.479492188 83.0673828125 268.479492188 83.150390625 380.360351562 c 4,31,32
 84.0068359375 595.861328125 84.0068359375 595.861328125 301.838867188 822.173828125 c 5,33,-1
 246.0546875 869.206054688 l 5,34,-1
 390.78125 1062.96289062 l 5,35,-1
 422.709960938 1039.80175781 l 6,18,19
EndSplineSet
Substitution2: "'fina' Terminal Forms in Arabic lookup 9 subtable" uniFEEA
Substitution2: "'medi' Medial Forms in Arabic lookup 11 subtable" uniFEEC
Substitution2: "'init' Initial Forms in Arabic lookup 13 subtable" uniFEEB
EndChar

StartChar: uni0648
Encoding: 1608 1608 43
GlifName: uni0648
Width: 939
VWidth: 2802
GlyphClass: 2
Flags: W
AnchorPoint: "Anchor-7" 453.872 -687.41 basechar 0
AnchorPoint: "Anchor-10" 442.58 1324.55 basechar 0
LayerCount: 2
Fore
SplineSet
489.116210938 256.986328125 m 0,0,1
 552 257 552 257 599.4296875 268.782226562 c 1,2,3
 581 420 581 420 539.319335938 485.10546875 c 0,4,5
 498 550 498 550 447.697265625 547.724609375 c 0,6,7
 392 546 392 546 358.72265625 452.232421875 c 0,8,9
 352 433 352 433 347.715820312 414.592773438 c 0,10,11
 343 396 343 396 340.375976562 379.904296875 c 0,12,13
 336 353 336 353 336.748046875 348.951171875 c 0,14,15
 337 347 337 347 336.580078125 344.553710938 c 0,16,17
 337 342 337 342 336.565429688 340.215820312 c 0,18,19
 337 299 337 299 374.95703125 276.987304688 c 0,20,21
 410 257 410 257 489.116210938 256.986328125 c 0,0,1
803.557617188 -119.625976562 m 0,22,23
 748 -251 748 -251 632.55078125 -345.876953125 c 0,24,25
 470.635612257 -480.471636715 470.635612257 -480.471636715 142.166015625 -514.874023438 c 2,26,-1
 105.354492188 -518.729492188 l 1,27,-1
 58.0703125 -261.626953125 l 1,28,-1
 101.96484375 -257.8671875 l 2,29,30
 301 -241 301 -241 420.616210938 -174.633789062 c 0,31,32
 540 -108 540 -108 586.419921875 4.154296875 c 1,33,34
 520 -3 520 -3 463.1171875 -1.8232421875 c 0,35,36
 269 1 269 1 171.2578125 89.1962890625 c 4,37,38
 83 168 83 168 85.9560546875 342.522460938 c 0,39,40
 88 465 88 465 140.024414062 588.716796875 c 0,41,42
 171 661 171 661 213.997070312 710.913085938 c 128,-1,43
 257 761 257 761 314.071289062 788.9375 c 128,-1,44
 371 817 371 817 438.248046875 818.89453125 c 0,45,46
 560 823 560 823 649.77734375 751.5703125 c 0,47,48
 739 680 739 680 792.329101562 542.302734375 c 0,49,50
 857 373 857 373 856.446289062 165.883789062 c 0,51,52
 856 4 856 4 803.557617188 -119.625976562 c 0,22,23
EndSplineSet
Substitution2: "'fina' Terminal Forms in Arabic lookup 9 subtable" uniFEEE
EndChar

StartChar: uni0649
Encoding: 1609 1609 44
GlifName: uni0649
Width: 1531
VWidth: 2802
GlyphClass: 2
Flags: W
AnchorPoint: "Anchor-7" 575.969 -739.127 basechar 0
AnchorPoint: "Anchor-10" 705.23 1316.72 basechar 0
LayerCount: 2
Fore
SplineSet
756.440429688 -250.340820312 m 0,0,1
 977.169921875 -247.193359375 977.169921875 -247.193359375 1102.34472656 -151.14453125 c 0,2,3
 1197.05957031 -78.4619140625 1197.05957031 -78.4619140625 1201.65820312 5.9228515625 c 0,4,5
 1202.47460938 20.291015625 1202.47460938 20.291015625 1189.625 25.8046875 c 0,6,7
 1179.13378906 30.3984375 1179.13378906 30.3984375 1168.99316406 32.5859375 c 128,-1,8
 1158.85351562 34.7724609375 1158.85351562 34.7724609375 1148.08984375 34.833984375 c 2,9,-1
 1036.71484375 35.4677734375 l 2,10,11
 924.22265625 36.333984375 924.22265625 36.333984375 861.365234375 94.58203125 c 128,-1,12
 798.506835938 152.829101562 798.506835938 152.829101562 799.21875 259.008789062 c 0,13,14
 800.068359375 449.40234375 800.068359375 449.40234375 942.790039062 608.306640625 c 0,15,16
 1118.98339844 805.896484375 1118.98339844 805.896484375 1410.64160156 807.578125 c 2,17,-1
 1454.02246094 807.828125 l 1,18,-1
 1433.87988281 540.833007812 l 1,19,-1
 1399.44921875 538.365234375 l 2,20,21
 1268.80859375 529.000976562 1268.80859375 529.000976562 1188.97070312 471.08984375 c 128,-1,22
 1109.1328125 413.177734375 1109.1328125 413.177734375 1072.08398438 303.076171875 c 1,23,-1
 1172.46386719 303.255859375 l 2,24,25
 1304.546875 302.890625 1304.546875 302.890625 1377.77539062 237.462890625 c 128,-1,26
 1451.00488281 172.034179688 1451.00488281 172.034179688 1450.86914062 50.1259765625 c 0,27,28
 1451.01074219 -211.31640625 1451.01074219 -211.31640625 1250.79980469 -370.166992188 c 0,29,30
 1161.08886719 -441.73046875 1161.08886719 -441.73046875 1035.36621094 -477.9296875 c 128,-1,31
 909.643554688 -514.129882812 909.643554688 -514.129882812 748.80078125 -516.418945312 c 0,32,33
 741.642578125 -516.51953125 741.642578125 -516.51953125 734.55859375 -516.54296875 c 0,34,35
 422.447265625 -517.573242188 422.447265625 -517.573242188 259.323242188 -364.51171875 c 128,-1,36
 96.19921875 -211.450195312 96.19921875 -211.450195312 95.3291015625 85.5419921875 c 0,37,38
 94.986328125 314.990234375 94.986328125 314.990234375 220.145507812 578.432617188 c 2,39,-1
 236.290039062 612.4140625 l 1,40,-1
 468.705078125 518.975585938 l 1,41,-1
 453.962890625 481.938476562 l 2,42,43
 357.0234375 238.390625 357.0234375 238.390625 357.462890625 93.31640625 c 0,44,45
 358.627929688 -85.9140625 358.627929688 -85.9140625 454.655273438 -169.696289062 c 128,-1,46
 550.682617188 -253.478515625 550.682617188 -253.478515625 756.440429688 -250.340820312 c 0,0,1
EndSplineSet
Substitution2: "'fina' Terminal Forms in Arabic lookup 9 subtable" uniFEF0
Substitution2: "'medi' Medial Forms in Arabic lookup 11 subtable" uniFBE9
Substitution2: "'init' Initial Forms in Arabic lookup 13 subtable" uniFBE8
EndChar

StartChar: uni064B
Encoding: 1611 1611 46
GlifName: uni064B_
Width: -29
VWidth: 2574
GlyphClass: 4
Flags: W
AnchorPoint: "Anchor-10" 681.723 1237.39 mark 0
AnchorPoint: "Anchor-9" 681.723 1237.39 mark 0
AnchorPoint: "Anchor-1" 636.984 1851.39 basemark 0
AnchorPoint: "Anchor-1" 681.723 1237.39 mark 0
LayerCount: 2
Fore
SplineSet
363 1196 m 1,0,-1
 363 1311.0859375 l 1,1,-1
 869 1518.08691406 l 1,2,-1
 869 1403 l 1,3,-1
 363 1196 l 1,0,-1
363 1476 m 1,4,-1
 363 1591.0859375 l 1,5,-1
 869 1798.08691406 l 1,6,-1
 869 1683 l 1,7,-1
 363 1476 l 1,4,-1
EndSplineSet
EndChar

StartChar: uni064C
Encoding: 1612 1612 47
GlifName: uni064C_
Width: -29
VWidth: 2574
GlyphClass: 4
Flags: W
AnchorPoint: "Anchor-10" 756.562 1354.08 mark 0
AnchorPoint: "Anchor-9" 756.562 1354.08 mark 0
AnchorPoint: "Anchor-1" 635.266 2128.29 basemark 0
AnchorPoint: "Anchor-1" 756.562 1354.08 mark 0
LayerCount: 2
Fore
SplineSet
729.96875 1938.13964844 m 0,0,1
 630.79296875 1938.13964844 630.79296875 1938.13964844 630.79296875 1848.9921875 c 0,2,3
 630.79296875 1784.66113281 630.79296875 1784.66113281 703.98046875 1755.38378906 c 0,4,5
 730.125 1744.92773438 730.125 1744.92773438 782.985351562 1728.64941406 c 2,6,-1
 786.421875 1727.59179688 l 1,7,-1
 803.198242188 1766.73339844 l 2,8,9
 809.958007812 1782.50585938 809.958007812 1782.50585938 813.313476562 1801.58984375 c 128,-1,10
 816.668945312 1820.67382812 816.668945312 1820.67382812 816.668945312 1843.07617188 c 0,11,12
 816.668945312 1865.88085938 816.668945312 1865.88085938 809.151367188 1883.65722656 c 128,-1,13
 801.633789062 1901.43457031 801.633789062 1901.43457031 786.594726562 1913.81738281 c 0,14,15
 776.850585938 1921.84082031 776.850585938 1921.84082031 767.379882812 1927.22265625 c 128,-1,16
 757.909179688 1932.60449219 757.909179688 1932.60449219 748.504882812 1935.37207031 c 128,-1,17
 739.100585938 1938.13964844 739.100585938 1938.13964844 729.96875 1938.13964844 c 0,0,1
354.217773438 1682.75488281 m 1,18,19
 358.578125 1431.15625 358.578125 1431.15625 502.819335938 1432.52832031 c 0,20,21
 581.858398438 1432.79785156 581.858398438 1432.79785156 667.229492188 1515.66796875 c 0,22,23
 716.48046875 1562.86035156 716.48046875 1562.86035156 745.6875 1621.28417969 c 2,24,-1
 760.69921875 1651.31542969 l 1,25,-1
 727.822265625 1658.29199219 l 2,26,27
 615.352539062 1681.55859375 615.352539062 1681.55859375 575.893554688 1735.61230469 c 128,-1,28
 536.313476562 1789.83398438 536.313476562 1789.83398438 536.846679688 1828.31347656 c 0,29,30
 538.022460938 1913.203125 538.022460938 1913.203125 571.094726562 1961.1953125 c 128,-1,31
 604.166015625 2009.18652344 604.166015625 2009.18652344 669.393554688 2021.52050781 c 0,32,33
 679.442382812 2023.42089844 679.442382812 2023.42089844 690.173828125 2024.34960938 c 128,-1,34
 700.905273438 2025.27832031 700.905273438 2025.27832031 712.416015625 2025.23730469 c 0,35,36
 756.076171875 2025.40039062 756.076171875 2025.40039062 790.73046875 2012.77832031 c 128,-1,37
 825.384765625 2000.15527344 825.384765625 2000.15527344 851.32421875 1974.75585938 c 0,38,39
 903.1953125 1923.96679688 903.1953125 1923.96679688 903.767578125 1833.75488281 c 0,40,41
 904.282226562 1790.15136719 904.282226562 1790.15136719 889.806640625 1744.33007812 c 2,42,-1
 879.706054688 1712.35449219 l 1,43,-1
 913.185546875 1710.59667969 l 2,44,45
 926.118164062 1709.89160156 926.118164062 1709.89160156 942.592773438 1709.32714844 c 128,-1,46
 959.06640625 1708.76269531 959.06640625 1708.76269531 978.330078125 1708.35546875 c 1,47,-1
 978.330078125 1621.12109375 l 1,48,49
 937.127929688 1621.89648438 937.127929688 1621.89648438 922.100585938 1623.34082031 c 2,50,-1
 837.465820312 1631.47851562 l 1,51,-1
 836.3203125 1628.77734375 l 2,52,53
 789.852539062 1519.18945312 789.852539062 1519.18945312 690.935546875 1432.17773438 c 0,54,55
 592.465820312 1345.56152344 592.465820312 1345.56152344 515.200195312 1345.515625 c 0,56,57
 298.265625 1345.38769531 298.265625 1345.38769531 292.385742188 1682.75488281 c 1,58,-1
 354.217773438 1682.75488281 l 1,18,19
EndSplineSet
EndChar

StartChar: uni064D
Encoding: 1613 1613 48
GlifName: uni064D_
Width: -29
VWidth: 2574
GlyphClass: 4
Flags: W
AnchorPoint: "Anchor-7" 618.087 68.5674 mark 0
AnchorPoint: "Anchor-6" 618.087 68.5674 mark 0
AnchorPoint: "Anchor-0" 657.803 -496.695 basemark 0
AnchorPoint: "Anchor-0" 618.087 68.5674 mark 0
LayerCount: 2
Fore
SplineSet
369 -540 m 5,0,-1
 369 -424.9140625 l 5,1,-1
 875 -217.913085938 l 5,2,-1
 875 -333 l 5,3,-1
 369 -540 l 5,0,-1
369 -260 m 5,4,-1
 369 -144.9140625 l 5,5,-1
 875 62.0869140625 l 5,6,-1
 875 -53 l 5,7,-1
 369 -260 l 5,4,-1
EndSplineSet
EndChar

StartChar: uni064E
Encoding: 1614 1614 49
GlifName: uni064E_
Width: -29
VWidth: 2574
GlyphClass: 4
Flags: W
AnchorPoint: "Anchor-10" 646.289 1516.26 mark 0
AnchorPoint: "Anchor-9" 646.289 1516.26 mark 0
AnchorPoint: "Anchor-1" 601.551 1879.74 basemark 0
AnchorPoint: "Anchor-1" 646.289 1516.26 mark 0
LayerCount: 2
Fore
SplineSet
329 1499 m 5,0,-1
 329 1614.0859375 l 5,1,-1
 835 1821.08691406 l 5,2,-1
 835 1706 l 5,3,-1
 329 1499 l 5,0,-1
EndSplineSet
EndChar

StartChar: uni064F
Encoding: 1615 1615 50
GlifName: uni064F_
Width: -29
VWidth: 2574
GlyphClass: 4
Flags: W
AnchorPoint: "Anchor-10" 688.55 1426.63 mark 0
AnchorPoint: "Anchor-9" 688.55 1426.63 mark 0
AnchorPoint: "Anchor-1" 611.26 2144.89 basemark 0
AnchorPoint: "Anchor-1" 688.55 1426.63 mark 0
LayerCount: 2
Fore
SplineSet
914.057617188 1637.78027344 m 1,0,1
 883 1638 883 1638 847.732421875 1640.84863281 c 0,2,3
 781 1647 781 1647 771.97265625 1647.61132812 c 2,4,-1
 769.647460938 1647.859375 l 1,5,-1
 768.291015625 1645.95605469 l 2,6,7
 668 1505 668 1505 492.578125 1449.90234375 c 0,8,9
 426 1429 426 1429 353.971679688 1425.19042969 c 1,10,-1
 353.971679688 1512.13964844 l 1,11,12
 526.078274852 1520.00357655 526.078274852 1520.00357655 641.672851562 1641.76171875 c 2,13,-1
 673.229492188 1675.00097656 l 1,14,15
 622 1686 622 1686 579.48046875 1708.26855469 c 0,16,17
 528 1735 528 1735 502.55859375 1773.26855469 c 0,18,19
 474 1817 474 1817 478.055664062 1872.83691406 c 0,20,21
 483 1937 483 1937 518 1980.90039062 c 0,22,23
 567 2040 567 2040 658.856445312 2042.17773438 c 0,24,25
 694 2043 694 2043 728.987304688 2029.27636719 c 0,26,27
 800 2000 800 2000 826.376953125 1930.22070312 c 0,28,29
 841 1891 841 1891 839.495117188 1850.4453125 c 0,30,31
 839 1832 839 1832 835.334960938 1809.72753906 c 0,32,33
 830.236583673 1784.17363148 830.236583673 1784.17363148 822.973632812 1760.83300781 c 2,34,-1
 813.119140625 1729.1640625 l 1,35,-1
 846.240234375 1727.20605469 l 2,36,37
 884 1725 884 1725 914.057617188 1724.7578125 c 1,38,-1
 914.057617188 1637.78027344 l 1,0,1
722.1484375 1744.20019531 m 1,39,-1
 729 1760 l 2,40,41
 752 1813 752 1813 752.397460938 1859.68554688 c 0,42,43
 752 1906 752 1906 722.318359375 1930.42382812 c 0,44,45
 695 1953 695 1953 655.490234375 1952.74609375 c 0,46,47
 610 1953 610 1953 586 1921 c 4,48,49
 566 1894 566 1894 566.520507812 1857.80761719 c 0,50,51
 567 1801 567 1801 639.708984375 1771.98925781 c 0,52,53
 665.234294876 1761.71099548 665.234294876 1761.71099548 718.7109375 1745.2578125 c 2,54,-1
 722.1484375 1744.20019531 l 1,39,-1
EndSplineSet
EndChar

StartChar: uni0650
Encoding: 1616 1616 51
GlifName: uni0650
Width: -29
VWidth: 2574
GlyphClass: 4
Flags: W
AnchorPoint: "Anchor-7" 634.604 -24.249 mark 0
AnchorPoint: "Anchor-6" 634.604 -24.249 mark 0
AnchorPoint: "Anchor-0" 687.879 -371.804 basemark 0
AnchorPoint: "Anchor-0" 634.604 -24.249 mark 0
LayerCount: 2
Fore
SplineSet
381 -384 m 1,0,-1
 381 -268.9140625 l 1,1,-1
 887 -61.9130859375 l 1,2,-1
 887 -177 l 1,3,-1
 381 -384 l 1,0,-1
EndSplineSet
EndChar

StartChar: uni0651
Encoding: 1617 1617 52
GlifName: uni0651
Width: -29
VWidth: 2659
GlyphClass: 4
Flags: W
AnchorPoint: "Anchor-10" 665.334 1626.35 mark 0
AnchorPoint: "Anchor-9" 665.334 1626.35 mark 0
AnchorPoint: "Anchor-1" 633.43 2074.56 basemark 0
AnchorPoint: "Anchor-1" 665.334 1626.35 mark 0
LayerCount: 2
Fore
SplineSet
696.005961798 1985.81790816 m 2,0,1
 697.995591622 1939.53221426 697.995591622 1939.53221426 698.47012092 1893.28879155 c 0,2,3
 698.255980191 1837.56857244 698.255980191 1837.56857244 716.034733873 1814.40049364 c 128,-1,4
 733.813487556 1791.23241485 733.813487556 1791.23241485 771.76619414 1791.39033727 c 0,5,6
 807.152970316 1791.63503849 807.152970316 1791.63503849 823.768432011 1812.59046936 c 128,-1,7
 840.383893705 1833.54590023 840.383893705 1833.54590023 840.696525355 1883.61870415 c 0,8,9
 840.841835918 1913.51156321 840.841835918 1913.51156321 836.367363198 1950.25161393 c 128,-1,10
 831.892890478 1986.99166465 831.892890478 1986.99166465 822.757605147 2030.20739712 c 2,11,-1
 818.403683014 2050.80422878 l 1,12,-1
 954.51848676 2072.36288168 l 1,13,-1
 959.407408447 2055.3750355 l 2,14,15
 980.017137355 1983.76110366 980.017137355 1983.76110366 979.474751508 1894.45193077 c 0,16,17
 979.750857769 1776.47706309 979.750857769 1776.47706309 928.45939473 1712.90250675 c 128,-1,18
 877.167931691 1649.32795041 877.167931691 1649.32795041 777.245038579 1648.51802868 c 0,19,20
 699.912035773 1648.08814404 699.912035773 1648.08814404 658.463361332 1693.41235412 c 1,21,22
 609.387132952 1577.98317582 609.387132952 1577.98317582 479.989042341 1577.65522351 c 0,23,24
 467.478193981 1577.67987054 467.478193981 1577.67987054 455.876400803 1578.80515969 c 0,25,26
 370.555626666 1587.08065125 370.555626666 1587.08065125 333.813578565 1653.28653802 c 128,-1,27
 297.071530465 1719.49242478 297.071530465 1719.49242478 308.510993869 1833.67664827 c 0,28,29
 310.343364518 1852.22041889 310.343364518 1852.22041889 313.571389356 1876.12351635 c 128,-1,30
 316.799414193 1900.02661382 316.799414193 1900.02661382 321.441968363 1929.49172564 c 2,31,-1
 324.581271814 1949.41608707 l 1,32,-1
 452.193603115 1928.1998782 l 1,33,-1
 447.762956993 1907.6891853 l 2,34,35
 437.010877867 1857.91482126 437.010877867 1857.91482126 437.307240473 1799.71767306 c 0,36,37
 437.51356557 1771.82769991 437.51356557 1771.82769991 443.785416179 1755.6008736 c 128,-1,38
 450.057266788 1739.37404728 450.057266788 1739.37404728 461.808730806 1732.89396897 c 128,-1,39
 473.560194824 1726.41389066 473.560194824 1726.41389066 492.940953104 1726.55807282 c 0,40,41
 529.410084734 1726.33471498 529.410084734 1726.33471498 548.019062456 1750.73450468 c 128,-1,42
 566.628040179 1775.13429437 566.628040179 1775.13429437 568.84764695 1833.20144952 c 0,43,44
 570.996524251 1893.26053554 570.996524251 1893.26053554 570.107389423 1984.76465589 c 2,45,-1
 569.911163497 2004.95898438 l 1,46,-1
 695.183166397 2004.95898438 l 1,47,-1
 696.005961798 1985.81790816 l 2,0,1
EndSplineSet
EndChar

StartChar: uni0652
Encoding: 1618 1618 53
GlifName: uni0652
Width: -29
VWidth: 2574
GlyphClass: 4
Flags: W
AnchorPoint: "Anchor-10" 670.243 1358.26 mark 0
AnchorPoint: "Anchor-9" 670.243 1358.26 mark 0
AnchorPoint: "Anchor-1" 641.708 1999.62 basemark 0
AnchorPoint: "Anchor-1" 670.243 1358.26 mark 0
LayerCount: 2
Fore
SplineSet
442.376953125 1624.08007812 m 132,-1,1
 442.376953125 1715.08007812 442.376953125 1715.08007812 505.376953125 1778.08007812 c 132,-1,2
 568.376953125 1841.08007812 568.376953125 1841.08007812 659.376953125 1841.08007812 c 132,-1,3
 750.376953125 1841.08007812 750.376953125 1841.08007812 813.376953125 1778.08007812 c 132,-1,4
 876.376953125 1715.08007812 876.376953125 1715.08007812 876.376953125 1624.08007812 c 132,-1,5
 876.376953125 1533.08007812 876.376953125 1533.08007812 813.376953125 1470.08007812 c 132,-1,6
 750.376953125 1407.08007812 750.376953125 1407.08007812 659.376953125 1407.08007812 c 132,-1,7
 568.376953125 1407.08007812 568.376953125 1407.08007812 505.376953125 1470.08007812 c 132,-1,0
 442.376953125 1533.08007812 442.376953125 1533.08007812 442.376953125 1624.08007812 c 132,-1,1
535.376953125 1624.08007812 m 128,-1,9
 535.376953125 1572.08007812 535.376953125 1572.08007812 571.376953125 1536.08007812 c 128,-1,10
 607.376953125 1500.08007812 607.376953125 1500.08007812 659.376953125 1500.08007812 c 128,-1,11
 711.376953125 1500.08007812 711.376953125 1500.08007812 747.376953125 1536.08007812 c 128,-1,12
 783.376953125 1572.08007812 783.376953125 1572.08007812 783.376953125 1624.08007812 c 128,-1,13
 783.376953125 1676.08007812 783.376953125 1676.08007812 747.376953125 1712.08007812 c 128,-1,14
 711.376953125 1748.08007812 711.376953125 1748.08007812 659.376953125 1748.08007812 c 128,-1,15
 607.376953125 1748.08007812 607.376953125 1748.08007812 571.376953125 1712.08007812 c 128,-1,8
 535.376953125 1676.08007812 535.376953125 1676.08007812 535.376953125 1624.08007812 c 128,-1,9
EndSplineSet
EndChar

StartChar: uni0653
Encoding: 1619 1619 54
GlifName: uni0653
Width: -30
VWidth: 2673
GlyphClass: 4
Flags: W
AnchorPoint: "Anchor-10" 481.017 1539.11 mark 0
AnchorPoint: "Anchor-9" 481.017 1539.11 mark 0
AnchorPoint: "Anchor-1" 481.017 2015.25 basemark 0
AnchorPoint: "Anchor-1" 481.017 1539.11 mark 0
LayerCount: 2
Fore
SplineSet
400.348632812 1636.8046875 m 2,0,1
 289.097070302 1652.11547185 289.097070302 1652.11547185 197.061523438 1542.6328125 c 1,2,-1
 95.6953125 1689.29980469 l 1,3,4
 214.313143403 1859.44918336 214.313143403 1859.44918336 383.756835938 1832.15820312 c 2,5,-1
 532.506835938 1808.20019531 l 6,6,7
 630 1792 630 1792 752.004882812 1853.74121094 c 5,8,-1
 817.659179688 1677.28320312 l 5,9,10
 689.104504566 1597.06521075 689.104504566 1597.06521075 540.869140625 1617.46582031 c 6,11,-1
 400.348632812 1636.8046875 l 2,0,1
EndSplineSet
EndChar

StartChar: uni0657
Encoding: 1623 1623 57
GlifName: uni0657
Width: -29
VWidth: 2574
GlyphClass: 4
Flags: W
AnchorPoint: "Anchor-10" 636.984 1500.61 mark 0
AnchorPoint: "Anchor-9" 636.984 1500.61 mark 0
AnchorPoint: "Anchor-1" 636.984 2322.06 basemark 0
AnchorPoint: "Anchor-1" 636.984 1500.61 mark 0
LayerCount: 2
Fore
SplineSet
293.921875 2005.17871094 m 1,0,1
 355.286132812 2003.85742188 355.286132812 2003.85742188 436.0234375 1995.36035156 c 2,2,-1
 438.36328125 1995.11328125 l 1,3,-1
 439.715820312 1997.03808594 l 2,4,5
 498.521484375 2080.7421875 498.521484375 2080.7421875 581.063476562 2130.59570312 c 0,6,7
 775.193359375 2249.32519531 775.193359375 2249.32519531 871.860351562 2258.5703125 c 1,8,-1
 871.860351562 2171.76855469 l 1,9,10
 854.09375 2170.62792969 854.09375 2170.62792969 835.380859375 2166.53613281 c 128,-1,11
 816.66796875 2162.44335938 816.66796875 2162.44335938 796.9609375 2155.38085938 c 128,-1,12
 777.25390625 2148.31738281 777.25390625 2148.31738281 756.5625 2138.34570312 c 128,-1,13
 735.87109375 2128.375 735.87109375 2128.375 714.022460938 2115.39453125 c 128,-1,14
 692.174804688 2102.41503906 692.174804688 2102.41503906 669.3125 2086.57519531 c 128,-1,15
 646.44921875 2070.73535156 646.44921875 2070.73535156 622.276367188 2051.85449219 c 0,16,17
 612.19140625 2044.04980469 612.19140625 2044.04980469 602.612304688 2035.82226562 c 128,-1,18
 593.033203125 2027.59570312 593.033203125 2027.59570312 583.965820312 2018.95117188 c 128,-1,19
 574.897460938 2010.30664062 574.897460938 2010.30664062 566.34765625 2001.25097656 c 2,20,-1
 534.754882812 1967.99023438 l 1,21,-1
 579.684570312 1957.9921875 l 2,22,23
 594.239257812 1955.51171875 594.239257812 1955.51171875 610.462890625 1947.55175781 c 128,-1,24
 626.6875 1939.59082031 626.6875 1939.59082031 644.567382812 1926.0859375 c 0,25,26
 730.833984375 1860.92675781 730.833984375 1860.92675781 731.084960938 1787.63476562 c 0,27,28
 731.012695312 1692.8984375 731.012695312 1692.8984375 685.842773438 1646.59179688 c 128,-1,29
 640.672851562 1600.28515625 640.672851562 1600.28515625 549.287109375 1601.12597656 c 0,30,31
 473.365234375 1601.61816406 473.365234375 1601.61816406 420.776367188 1652.3984375 c 0,32,33
 368.510742188 1703.22949219 368.510742188 1703.22949219 368.484375 1792.53222656 c 0,34,35
 368.51171875 1829.12207031 368.51171875 1829.12207031 385.004882812 1882.13671875 c 2,36,-1
 394.858398438 1913.80566406 l 1,37,-1
 361.743164062 1915.76269531 l 2,38,39
 325.485351562 1917.90429688 325.485351562 1917.90429688 293.921875 1918.19628906 c 1,40,-1
 293.921875 2005.17871094 l 1,0,1
537.047851562 1688.22460938 m 0,41,42
 641.458984375 1688.22460938 641.458984375 1688.22460938 641.458984375 1777.37109375 c 0,43,44
 641.458984375 1809.46679688 641.458984375 1809.46679688 622.973632812 1832.97949219 c 128,-1,45
 604.487304688 1856.4921875 604.487304688 1856.4921875 568.2734375 1870.97851562 c 0,46,47
 542.20703125 1881.41113281 542.20703125 1881.41113281 489.268554688 1897.71386719 c 2,48,-1
 485.83203125 1898.77148438 l 1,49,-1
 469.0546875 1859.63183594 l 2,50,51
 455.58203125 1828.19726562 455.58203125 1828.19726562 455.58203125 1783.29394531 c 0,52,53
 455.58203125 1760.49316406 455.58203125 1760.49316406 463.099609375 1742.71679688 c 128,-1,54
 470.6171875 1724.94042969 470.6171875 1724.94042969 485.655273438 1712.55371094 c 0,55,56
 500.321289062 1700.47460938 500.321289062 1700.47460938 513.091796875 1694.34960938 c 128,-1,57
 525.86328125 1688.22460938 525.86328125 1688.22460938 537.047851562 1688.22460938 c 0,41,42
EndSplineSet
EndChar

StartChar: uni065A
Encoding: 1626 1626 58
GlifName: uni065A_
Width: 1262
VWidth: 2574
GlyphClass: 4
Flags: W
AnchorPoint: "Anchor-10" 636.984 1500.61 mark 0
AnchorPoint: "Anchor-9" 636.984 1500.61 mark 0
AnchorPoint: "Anchor-1" 634.457 2069.31 basemark 0
AnchorPoint: "Anchor-1" 636.984 1500.61 mark 0
LayerCount: 2
Fore
SplineSet
558.185546875 1604.91699219 m 1,0,-1
 342.8046875 1964.98925781 l 1,1,-1
 458.802734375 1964.98925781 l 1,2,-1
 636.983398438 1697.7109375 l 1,3,-1
 815.165039062 1964.98925781 l 1,4,-1
 931.1640625 1964.98925781 l 1,5,-1
 715.780273438 1604.91699219 l 1,6,-1
 558.185546875 1604.91699219 l 1,0,-1
EndSplineSet
EndChar

StartChar: afii57392
Encoding: 1632 1632 59
GlifName: afii57392
Width: 1144
VWidth: 2802
GlyphClass: 2
Flags: W
LayerCount: 2
Fore
SplineSet
505.060546875 732.540039062 m 132,-1,1
 488.611328125 716.090820312 488.611328125 716.090820312 481.150390625 698.19921875 c 132,-1,2
 473.688476562 680.306640625 473.688476562 680.306640625 473.688476562 657.53515625 c 4,3,4
 473.688476562 635.486328125 473.688476562 635.486328125 481.38671875 617.029296875 c 4,5,6
 483.30078125 612.443359375 483.30078125 612.443359375 485.66015625 608.083984375 c 132,-1,7
 488.021484375 603.725585938 488.021484375 603.725585938 490.942382812 599.422851562 c 132,-1,8
 493.862304688 595.120117188 493.862304688 595.120117188 497.393554688 590.893554688 c 132,-1,9
 500.922851562 586.668945312 500.922851562 586.668945312 505.0625 582.530273438 c 4,10,11
 536.3515625 551.239257812 536.3515625 551.239257812 580.03515625 551.440429688 c 4,12,13
 586.05078125 551.413085938 586.05078125 551.413085938 591.267578125 551.877929688 c 132,-1,14
 596.484375 552.340820312 596.484375 552.340820312 601.686523438 553.327148438 c 4,15,16
 611.594726562 555.20703125 611.594726562 555.20703125 620.665039062 558.965820312 c 132,-1,17
 629.764648438 562.737304688 629.764648438 562.737304688 638.208984375 568.477539062 c 4,18,19
 642.547851562 571.424804688 642.547851562 571.424804688 646.750976562 574.920898438 c 132,-1,20
 650.956054688 578.41796875 650.956054688 578.41796875 655.068359375 582.53125 c 4,21,22
 686.440429688 613.90234375 686.440429688 613.90234375 686.440429688 657.534179688 c 4,23,24
 686.440429688 666.68359375 686.440429688 666.68359375 685.282226562 674.869140625 c 132,-1,25
 684.125 683.0546875 684.125 683.0546875 681.735351562 690.671875 c 132,-1,26
 679.344726562 698.290039062 679.344726562 698.290039062 675.603515625 705.377929688 c 132,-1,27
 671.862304688 712.465820312 671.862304688 712.465820312 666.778320312 719.188476562 c 132,-1,28
 661.696289062 725.911132812 661.696289062 725.911132812 655.068359375 732.540039062 c 4,29,30
 623.6953125 763.913085938 623.6953125 763.913085938 580.064453125 763.913085938 c 4,31,32
 557.293945312 763.913085938 557.293945312 763.913085938 539.401367188 756.452148438 c 132,-1,0
 521.510742188 748.989257812 521.510742188 748.989257812 505.060546875 732.540039062 c 132,-1,1
334.827148438 898.474609375 m 0,33,34
 384.189453125 947.836914062 384.189453125 947.836914062 444.888671875 973.157226562 c 128,-1,35
 505.586914062 998.477539062 505.586914062 998.477539062 574.754882812 998.477539062 c 0,36,37
 620.817382812 998.477539062 620.817382812 998.477539062 663.306640625 987.185546875 c 128,-1,38
 705.795898438 975.893554688 705.795898438 975.893554688 743.810546875 953.612304688 c 128,-1,39
 781.825195312 931.331054688 781.825195312 931.331054688 814.681640625 898.474609375 c 0,40,41
 914.685546875 798.469726562 914.685546875 798.469726562 914.685546875 658.545898438 c 128,-1,42
 914.685546875 518.623046875 914.685546875 518.623046875 814.681640625 418.619140625 c 128,-1,43
 714.61328125 318.547851562 714.61328125 318.547851562 574.725585938 319.189453125 c 0,44,45
 434.8984375 318.547851562 434.8984375 318.547851562 334.827148438 418.619140625 c 128,-1,46
 234.827148438 518.620117188 234.827148438 518.620117188 234.827148438 658.546875 c 128,-1,47
 234.827148438 798.473632812 234.827148438 798.473632812 334.827148438 898.474609375 c 0,33,34
EndSplineSet
EndChar

StartChar: afii57393
Encoding: 1633 1633 60
GlifName: afii57393
Width: 795
VWidth: 2802
GlyphClass: 2
Flags: W
LayerCount: 2
Fore
SplineSet
358.236328125 1424.04785156 m 6,0,1
 603.910749967 817.048766121 603.910749967 817.048766121 622.729492188 51.771484375 c 2,2,-1
 623.737304688 10.7880859375 l 1,3,-1
 362.004882812 10.7880859375 l 1,4,-1
 361.1171875 49.8798828125 l 2,5,6
 344.991469702 755.373196935 344.991469702 755.373196935 116.229492188 1337.02929688 c 6,7,-1
 100.9140625 1375.97070312 l 5,8,-1
 344.032226562 1459.14257812 l 5,9,-1
 358.236328125 1424.04785156 l 6,0,1
EndSplineSet
EndChar

StartChar: afii57394
Encoding: 1634 1634 61
GlifName: afii57394
Width: 1244
VWidth: 2802
GlyphClass: 2
Flags: W
LayerCount: 2
Fore
SplineSet
358.189453125 1423.62597656 m 2,0,1
 367.141894829 1400.8801802 367.141894829 1400.8801802 394 1327.5 c 0,2,3
 418 1260 418 1260 459 1156 c 0,4,5
 530 974 530 974 680.4921875 974.78125 c 0,6,7
 876.651569809 975.997839021 876.651569809 975.997839021 883.306640625 1397.8125 c 2,8,-1
 883.9296875 1437.30273438 l 1,9,-1
 1140.66113281 1436.51269531 l 1,10,-1
 1139.62304688 1396.59667969 l 6,11,12
 1122 714 1122 714 686.689453125 710.536132812 c 0,13,14
 622 710 622 710 556.987304688 736.866210938 c 1,15,16
 614.510259745 413.12826924 614.510259745 413.12826924 622.732421875 51.6982421875 c 2,17,-1
 623.663085938 10.7880859375 l 1,18,-1
 362.004882812 10.7880859375 l 1,19,-1
 361.1171875 49.8798828125 l 2,20,21
 344.991469697 755.373197121 344.991469697 755.373197121 116.229492188 1337.02929688 c 2,22,-1
 100.9140625 1375.97070312 l 1,23,-1
 344.189453125 1459.19628906 l 1,24,-1
 358.189453125 1423.62597656 l 2,0,1
EndSplineSet
EndChar

StartChar: afii57395
Encoding: 1635 1635 62
GlifName: afii57395
Width: 1502
VWidth: 2802
GlyphClass: 2
Flags: W
LayerCount: 2
Fore
SplineSet
840.58203125 800.485351562 m 1,0,1
 759 723 759 723 654 720.855361795 c 0,2,3
 607 720 607 720 555.719726562 734.313476562 c 1,4,5
 615.475304778 389.031811346 615.475304778 389.031811346 622.732421875 51.6484375 c 2,6,-1
 623.611328125 10.7880859375 l 1,7,-1
 362.004882812 10.7880859375 l 1,8,-1
 361.1171875 49.8798828125 l 2,9,10
 344.991469697 755.373197121 344.991469697 755.373197121 116.229492188 1337.02929688 c 2,11,-1
 100.9140625 1375.97070312 l 1,12,-1
 344.795898438 1459.40332031 l 1,13,-1
 358.4140625 1422.97558594 l 2,14,15
 408 1289 408 1289 462.895507812 1134.38867188 c 0,16,17
 513 992 513 992 604.333984375 989.579101562 c 4,18,19
 686.553248486 988.00853393 686.553248486 988.00853393 695.55859375 1118.74902344 c 2,20,-1
 714.416992188 1392.53710938 l 1,21,-1
 945.682617188 1392.53710938 l 1,22,-1
 963.514648438 1116.47070312 l 2,23,24
 972 983 972 983 1059.5 983 c 0,25,26
 1160.50745526 983 1160.50745526 983 1166.14355469 1280.98925781 c 2,27,-1
 1169.38964844 1452.61523438 l 1,28,-1
 1423.16992188 1452.85058594 l 1,29,-1
 1422.43066406 1345.82226562 l 2,30,31
 1418 710 1418 710 1077 711.455303515 c 0,32,33
 932 712 932 712 840.58203125 800.485351562 c 1,0,1
EndSplineSet
EndChar

StartChar: afii57396
Encoding: 1636 1636 63
GlifName: afii57396
Width: 1175
VWidth: 2802
GlyphClass: 2
Flags: W
LayerCount: 2
Fore
SplineSet
436.186523438 766.543945312 m 1,0,1
 197 841 197 841 198.185546875 1084.58984375 c 0,2,3
 198.99248764 1248.47428842 198.99248764 1248.47428842 353.618164062 1358.67480469 c 0,4,5
 498.449647985 1462.60507046 498.449647985 1462.60507046 797.155273438 1459.45800781 c 2,6,-1
 836.734375 1459.04101562 l 1,7,-1
 836.734375 1193.53417969 l 1,8,-1
 798.295898438 1192.03222656 l 2,9,10
 467 1179 467 1179 467.4921875 1058.53808594 c 4,11,12
 466.998076274 934.517148662 466.998076274 934.517148662 835.202148438 931.307617188 c 2,13,-1
 874.301757812 930.966796875 l 1,14,-1
 877.443359375 706.60546875 l 1,15,-1
 851.991210938 696.3671875 l 2,16,17
 356 497 356 497 362.666992188 374.108398438 c 0,18,19
 368.025305033 271.515497358 368.025305033 271.515497358 682.180664062 272.588867188 c 2,20,-1
 1064.32421875 273.89453125 l 1,21,-1
 1067.40234375 -0.0341796875 l 1,22,-1
 636.8203125 0.4375 l 2,23,24
 388 1 388 1 251.765625 91.6669921875 c 0,25,26
 117 181 117 181 110.013671875 363.92578125 c 0,27,28
 102 567 102 567 436.186523438 766.543945312 c 1,0,1
EndSplineSet
EndChar

StartChar: afii57397
Encoding: 1637 1637 64
GlifName: afii57397
Width: 1328
VWidth: 2802
GlyphClass: 2
Flags: W
LayerCount: 2
Fore
SplineSet
647.802734375 1040.79003906 m 1,0,1
 378 770 378 770 378.217773438 553.431640625 c 0,2,3
 378 442 378 442 452.631835938 371.091796875 c 0,4,5
 527 301 527 301 681.669433594 301.065917969 c 0,6,7
 836 302 836 302 904.01953125 369.360351562 c 0,8,9
 972 437 972 437 971.495117188 543.954101562 c 0,10,11
 971 784 971 784 647.802734375 1040.79003906 c 1,0,1
391.794921875 1236.24902344 m 1,12,-1
 538.940429688 1459.19335938 l 1,13,-1
 572.14453125 1438.00195312 l 2,14,15
 1218 1026 1218 1026 1218.96289062 538.60546875 c 0,16,17
 1219 339 1219 339 1101.45410156 214.396484375 c 0,18,19
 919 22 919 22 595.501953125 50.935546875 c 0,20,21
 409 68 409 68 278.296875 182.208984375 c 0,22,23
 108.1553119 329.520985813 108.1553119 329.520985813 110.263671875 527.90234375 c 4,24,25
 113 861 113 861 443.293945312 1204.32226562 c 1,26,-1
 391.794921875 1236.24902344 l 1,12,-1
EndSplineSet
EndChar

StartChar: afii57398
Encoding: 1638 1638 65
GlifName: afii57398
Width: 1416
VWidth: 2802
GlyphClass: 2
Flags: W
LayerCount: 2
Fore
SplineSet
848.104492188 1128.52734375 m 5,0,1
 744 1111 744 1111 514.571289062 1111.45703125 c 4,2,3
 269.177775367 1111.00218306 269.177775367 1111.00218306 85.1162109375 1162.71386719 c 6,4,-1
 55.935546875 1170.91210938 l 5,5,-1
 55.935546875 1459.58007812 l 5,6,-1
 105.837890625 1446.82910156 l 6,7,8
 333 1389 333 1389 562.578125 1389.12109375 c 4,9,10
 787.225958917 1390.00482273 787.225958917 1390.00482273 1047.60253906 1448.41015625 c 6,11,-1
 1094.97851562 1459.03710938 l 5,12,13
 1118 655 1118 655 1318.36914062 10.7880859375 c 1,14,-1
 1041.87207031 10.7880859375 l 1,15,16
 859 728 859 728 848.104492188 1128.52734375 c 5,0,1
EndSplineSet
EndChar

StartChar: afii57399
Encoding: 1639 1639 66
GlifName: afii57399
Width: 1343
VWidth: 2802
GlyphClass: 2
Flags: W
LayerCount: 2
Fore
SplineSet
671.1796875 475.640625 m 5,0,1
 787.370864463 946.450724123 787.370864463 946.450724123 1020.73535156 1426.74609375 c 6,2,-1
 1038.97851562 1464.29296875 l 5,3,-1
 1265.91210938 1341.79492188 l 5,4,-1
 1248.52148438 1307.10351562 l 6,5,6
 929 670 929 670 785.543945312 10.7880859375 c 1,7,-1
 556.87109375 10.7880859375 l 1,8,9
 413.157331673 669.279112219 413.157331673 669.279112219 93.8671875 1307.12304688 c 6,10,-1
 76.505859375 1341.80566406 l 5,11,-1
 303.415039062 1464.29101562 l 5,12,-1
 321.661132812 1426.75 l 6,13,14
 554 950 554 950 671.1796875 475.640625 c 5,0,1
EndSplineSet
EndChar

StartChar: afii57400
Encoding: 1640 1640 67
GlifName: afii57400
Width: 1343
VWidth: 2802
GlyphClass: 2
Flags: W
LayerCount: 2
Fore
SplineSet
671.1796875 984.397460938 m 1,0,1
 554.639306272 512.588206869 554.639306272 512.588206869 321.66015625 33.30078125 c 2,2,-1
 303.413085938 -4.2373046875 l 1,3,-1
 76.50390625 118.249023438 l 1,4,-1
 93.8681640625 152.931640625 l 2,5,6
 413 790 413 790 556.870117188 1449.26464844 c 5,7,-1
 785.552734375 1449.26464844 l 5,8,9
 928.556033319 790.046602073 928.556033319 790.046602073 1248.5078125 152.975585938 c 2,10,-1
 1265.93652344 118.272460938 l 1,11,-1
 1038.98046875 -4.240234375 l 1,12,-1
 1020.73535156 33.3056640625 l 2,13,14
 788 511 788 511 671.1796875 984.397460938 c 1,0,1
EndSplineSet
EndChar

StartChar: afii57401
Encoding: 1641 1641 68
GlifName: afii57401
Width: 1306
VWidth: 2762
GlyphClass: 2
Flags: W
LayerCount: 2
Fore
SplineSet
804.041992188 589.991210938 m 5,0,1
 761 584 761 584 721.309570312 579.435546875 c 4,2,3
 682 575 682 575 645.569335938 573.278320312 c 4,4,5
 609 571 609 571 575.1640625 571.393554688 c 4,6,7
 326 571 326 571 203.688476562 704.758789062 c 4,8,9
 114 802 114 802 113.81640625 943.166015625 c 4,10,11
 113 1178 113 1178 256.891601562 1323.82324219 c 4,12,13
 382 1450 382 1450 554.49609375 1451.82128906 c 4,14,15
 567 1452 567 1452 579.479492188 1452.4140625 c 4,16,17
 635 1452 635 1452 684.484375 1442.17089844 c 4,18,19
 749 1428 749 1428 801.76171875 1398.78808594 c 4,20,21
 855 1369 855 1369 894.400390625 1325.73144531 c 4,22,23
 934 1282 934 1282 962.375 1224.45019531 c 4,24,25
 990 1167 990 1167 1006.35839844 1096.56152344 c 4,26,27
 1022 1026 1022 1026 1026.32226562 943.515625 c 4,28,29
 1057 347 1057 347 1147.47070312 10.7880859375 c 1,30,-1
 882.388671875 10.7880859375 l 1,31,32
 822 238 822 238 804.041992188 589.991210938 c 5,0,1
780.817382812 853.301757812 m 5,33,-1
 776.888671875 889.90234375 l 6,34,35
 766 994 766 994 738.334960938 1060.83007812 c 4,36,37
 711 1127 711 1127 673.243164062 1154.97265625 c 4,38,39
 635 1183 635 1183 583.436523438 1183.29882812 c 4,40,41
 498 1184 498 1184 438.209960938 1126.37695312 c 4,42,43
 367 1057 367 1057 366.798828125 952.3984375 c 4,44,45
 367 894 367 894 412.581054688 864.397460938 c 4,46,47
 458 835 458 835 570.153320312 834.326171875 c 4,48,49
 600 834 600 834 633.088867188 836.306640625 c 4,50,51
 666 838 666 838 703.4296875 842.6328125 c 4,52,53
 740 847 740 847 780.817382812 853.301757812 c 5,33,-1
EndSplineSet
EndChar

StartChar: afii57381
Encoding: 1642 1642 69
GlifName: afii57381
Width: 1269
VWidth: 3816
GlyphClass: 2
Flags: W
LayerCount: 2
Fore
SplineSet
707.8671875 315.71484375 m 0,0,1
 707.8671875 400.331054688 707.8671875 400.331054688 767.37109375 461.25 c 0,2,3
 829.458984375 521.926757812 829.458984375 521.926757812 914.079101562 521.926757812 c 0,4,5
 941.862304688 521.926757812 941.862304688 521.926757812 968.224609375 514.709960938 c 128,-1,6
 994.5859375 507.4921875 994.5859375 507.4921875 1017.63867188 493.520507812 c 0,7,8
 1022.01074219 490.94921875 1022.01074219 490.94921875 1026.67382812 487.89453125 c 128,-1,9
 1031.33691406 484.83984375 1031.33691406 484.83984375 1035.53613281 481.780273438 c 0,10,11
 1038.43945312 479.666015625 1038.43945312 479.666015625 1041.25195312 477.46875 c 128,-1,12
 1044.06347656 475.271484375 1044.06347656 475.271484375 1046.79785156 472.979492188 c 128,-1,13
 1049.53320312 470.686523438 1049.53320312 470.686523438 1052.17675781 468.309570312 c 0,14,15
 1060.1328125 461.154296875 1060.1328125 461.154296875 1067.24316406 453.2421875 c 0,16,17
 1069.61230469 450.604492188 1069.61230469 450.604492188 1071.88574219 447.88671875 c 128,-1,18
 1074.15917969 445.168945312 1074.15917969 445.168945312 1076.33691406 442.370117188 c 128,-1,19
 1078.51367188 439.571289062 1078.51367188 439.571289062 1080.59863281 436.6875 c 0,20,21
 1083.46679688 432.71875 1083.46679688 432.71875 1086.49707031 428.01953125 c 128,-1,22
 1089.52734375 423.321289062 1089.52734375 423.321289062 1091.96777344 419.140625 c 0,23,24
 1097.015625 410.693359375 1097.015625 410.693359375 1100.91210938 402.680664062 c 128,-1,25
 1104.80859375 394.66796875 1104.80859375 394.66796875 1107.79003906 386.663085938 c 128,-1,26
 1110.77148438 378.659179688 1110.77148438 378.659179688 1113.19433594 369.817382812 c 0,27,28
 1120.29003906 343.920898438 1120.29003906 343.920898438 1120.29003906 315.71484375 c 0,29,30
 1120.29003906 287.750976562 1120.29003906 287.750976562 1113.55566406 262.038085938 c 0,31,32
 1106.74804688 236.041015625 1106.74804688 236.041015625 1093.13574219 212.626953125 c 0,33,34
 1079.76074219 189.624023438 1079.76074219 189.624023438 1059.61230469 169.006835938 c 0,35,36
 1029.47460938 139.569335938 1029.47460938 139.569335938 992.62109375 124.537109375 c 128,-1,37
 955.767578125 109.50390625 955.767578125 109.50390625 914.079101562 109.50390625 c 0,38,39
 886.18359375 109.50390625 886.18359375 109.50390625 860.173828125 116.182617188 c 128,-1,40
 834.1640625 122.861328125 834.1640625 122.861328125 809.895507812 136.423828125 c 0,41,42
 804.60546875 139.536132812 804.60546875 139.536132812 800.3046875 142.354492188 c 128,-1,43
 796.002929688 145.172851562 796.002929688 145.172851562 791.442382812 148.499023438 c 0,44,45
 782.71875 154.859375 782.71875 154.859375 774.813476562 161.975585938 c 128,-1,46
 766.874023438 169.124023438 766.874023438 169.124023438 759.772460938 177.017578125 c 128,-1,47
 752.663085938 184.921875 752.663085938 184.921875 746.4140625 193.553710938 c 0,48,49
 744.265625 196.522460938 744.265625 196.522460938 742.333984375 199.391601562 c 128,-1,50
 740.403320312 202.26171875 740.403320312 202.26171875 738.517578125 205.296875 c 128,-1,51
 736.631835938 208.331054688 736.631835938 208.331054688 734.705078125 211.677734375 c 0,52,53
 721.266601562 235.7265625 721.266601562 235.7265625 714.56640625 261.821289062 c 128,-1,54
 707.8671875 287.916015625 707.8671875 287.916015625 707.8671875 315.71484375 c 0,0,1
119.265625 1177.28417969 m 4,55,56
 119 1265 119 1265 178.770507812 1322.81542969 c 4,57,58
 210 1353 210 1353 246.319335938 1368.41503906 c 4,59,60
 265 1376 265 1376 284.779296875 1379.80859375 c 4,61,62
 305 1384 305 1384 325.432617188 1383.49316406 c 4,63,64
 353 1384 353 1384 379.502929688 1376.42285156 c 132,-1,65
 406 1369 406 1369 429.24609375 1354.95898438 c 4,66,67
 453 1341 453 1341 471.193359375 1322.37792969 c 4,68,69
 489 1304 489 1304 503.239257812 1280.91699219 c 4,70,71
 518 1257 518 1257 524.846679688 1231.20605469 c 4,72,73
 528 1218 528 1218 530.0546875 1204.65429688 c 4,74,75
 532 1191 532 1191 531.690429688 1177.16796875 c 4,76,77
 532 1090 532 1090 470.873046875 1030.43554688 c 4,78,79
 411 972 411 972 325.486328125 971.069335938 c 4,80,81
 320 971 320 971 314.543945312 971.294921875 c 4,82,83
 309 972 309 972 303.606445312 972.064453125 c 4,84,85
 298 973 298 973 292.744140625 973.375 c 4,86,87
 287 974 287 974 281.999023438 975.234375 c 4,88,89
 277 976 277 976 271.44140625 977.640625 c 4,90,91
 245 984 245 984 221.069335938 998.119140625 c 4,92,93
 171 1028 171 1028 146.052734375 1073.328125 c 4,94,95
 119 1122 119 1122 119.265625 1177.28417969 c 4,55,56
855.345703125 1460.77832031 m 1,96,-1
 1078 1346.06738281 l 1,97,-1
 349.982421875 14.943359375 l 1,98,-1
 128.748046875 136.518554688 l 1,99,-1
 855.345703125 1460.77832031 l 1,96,-1
EndSplineSet
EndChar

StartChar: uni066B
Encoding: 1643 1643 70
GlifName: uni066B_
Width: 769
VWidth: 2762
GlyphClass: 2
Flags: W
LayerCount: 2
Fore
SplineSet
489.790755826 787.890329892 m 1,0,-1
 639.537026894 724.320721678 l 1,1,-1
 194.222280965 -303.266656667 l 1,2,-1
 42.5350091719 -237.250261874 l 1,3,-1
 489.790755826 787.890329892 l 1,0,-1
EndSplineSet
EndChar

StartChar: uni066C
Encoding: 1644 1644 71
GlifName: uni066C_
Width: 550
VWidth: 2659
GlyphClass: 2
Flags: W
LayerCount: 2
Fore
SplineSet
103.855778062 145.527292403 m 0,0,1
 104.59835416 219.501991533 104.59835416 219.501991533 147.343120668 257.676281877 c 128,-1,2
 190.087887177 295.850572221 190.087887177 295.850572221 271.276110422 296.08681637 c 0,3,4
 295.533602097 296.194040573 295.533602097 296.194040573 316.757050579 292.560199533 c 128,-1,5
 337.980499061 288.926358494 337.980499061 288.926358494 356.013389688 281.612134186 c 128,-1,6
 374.046280315 274.297909877 374.046280315 274.297909877 388.876313932 263.257961871 c 128,-1,7
 403.706347549 252.218013865 403.706347549 252.218013865 415.177082638 237.59161718 c 128,-1,8
 426.647817726 222.965220495 426.647817726 222.965220495 434.746877112 204.62320212 c 128,-1,9
 442.845936497 186.281183745 442.845936497 186.281183745 447.416951805 164.441411745 c 0,10,11
 452.234602462 140.962169381 452.234602462 140.962169381 452.542515756 113.954768564 c 128,-1,12
 452.85042905 86.9473677458 452.85042905 86.9473677458 448.748359218 56.7187631085 c 128,-1,13
 444.646289385 26.4901584712 444.646289385 26.4901584712 436.155282623 -7.51037333326 c 0,14,15
 379.798817839 -222.899769457 379.798817839 -222.899769457 182.809648879 -383.357836982 c 2,16,-1
 177.20207077 -387.925505101 l 1,17,-1
 104.961592729 -341.7475325 l 1,18,-1
 113.787113385 -332.950652482 l 2,19,20
 271.937817984 -175.313179597 271.937817984 -175.313179597 286.853708177 -10.1531765412 c 1,21,22
 278.531965889 -10.2776886601 278.531965889 -10.2776886601 271.253088686 -10.2236527041 c 128,-1,23
 263.974211483 -10.1696167481 263.974211483 -10.1696167481 257.661341814 -9.9217006366 c 128,-1,24
 251.348472146 -9.67378452509 251.348472146 -9.67378452509 245.91672713 -9.2174959347 c 128,-1,25
 240.484982115 -8.76120734431 240.484982115 -8.76120734431 235.857504202 -8.08121419436 c 128,-1,26
 231.23002629 -7.4012210444 231.23002629 -7.4012210444 227.321932598 -6.48303101152 c 0,27,28
 103.073460671 18.5892452761 103.073460671 18.5892452761 103.855778062 145.527292403 c 0,0,1
EndSplineSet
EndChar

StartChar: afii63167
Encoding: 1645 1645 72
GlifName: afii63167
Width: 1480
VWidth: 2762
GlyphClass: 2
Flags: W
LayerCount: 2
Fore
SplineSet
171.988392737 989.38671875 m 1,0,-1
 610.193437851 989.38671875 l 1,1,-1
 747.016529963 1405.96752003 l 1,2,-1
 883.841684342 989.38671875 l 1,3,-1
 1322.04571491 989.38671875 l 1,4,-1
 968.029431777 730.587847104 l 1,5,-1
 1103.47671401 314.484229348 l 1,6,-1
 747.016618511 572.062822297 l 1,7,-1
 390.558397997 314.484093404 l 1,8,-1
 526.005721197 730.587837037 l 1,9,-1
 171.988392737 989.38671875 l 1,0,-1
EndSplineSet
EndChar

StartChar: uni066E
Encoding: 1646 1646 73
GlifName: uni066E_
Width: 1821
VWidth: 2802
GlyphClass: 2
Flags: W
AnchorPoint: "Anchor-10" 969.991 1366.38 basechar 0
AnchorPoint: "Anchor-7" 969.991 -195.465 basechar 0
LayerCount: 2
Fore
SplineSet
907.521484375 266.204101562 m 0,0,1
 999.7265625 266.154296875 999.7265625 266.154296875 1077.87792969 271.3125 c 128,-1,2
 1156.02929688 276.470703125 1156.02929688 276.470703125 1214.58203125 286.057617188 c 128,-1,3
 1273.13476562 295.64453125 1273.13476562 295.64453125 1314.89160156 308.763671875 c 128,-1,4
 1356.64941406 321.881835938 1356.64941406 321.881835938 1380.90625 338.23828125 c 0,5,6
 1481.79296875 405.303710938 1481.79296875 405.303710938 1480.31835938 558.150390625 c 0,7,8
 1479.89941406 588.833007812 1479.89941406 588.833007812 1477.30371094 620.72265625 c 128,-1,9
 1474.70800781 652.61328125 1474.70800781 652.61328125 1469.90039062 685.860351562 c 128,-1,10
 1465.09179688 719.108398438 1465.09179688 719.108398438 1458.09277344 753.405273438 c 2,11,-1
 1450.52636719 790.48046875 l 1,12,-1
 1677.76074219 850.153320312 l 1,13,-1
 1689.8515625 815.076171875 l 2,14,15
 1730.99023438 695.729492188 1730.99023438 695.729492188 1731.19824219 556.853515625 c 0,16,17
 1730.98535156 256.086914062 1730.98535156 256.086914062 1536.97558594 121.145507812 c 0,18,19
 1362.52636719 0 1362.52636719 0 911.155273438 0 c 2,20,-1
 907.004882812 0 l 2,21,22
 448.009765625 0 448.009765625 0 280.46875 121.653320312 c 0,23,24
 87.0029296875 262.654296875 87.0029296875 262.654296875 86.9619140625 556.849609375 c 0,25,26
 87.001953125 695.732421875 87.001953125 695.732421875 128.325195312 815.124023438 c 2,27,-1
 140.4453125 850.140625 l 1,28,-1
 367.877929688 790.416015625 l 1,29,-1
 360.012695312 753.14453125 l 2,30,31
 337.993164062 648.79296875 337.993164062 648.79296875 337.844726562 558.600585938 c 0,32,33
 337.981445312 401.883789062 337.981445312 401.883789062 436.56640625 338.688476562 c 0,34,35
 548.733398438 266.974609375 548.733398438 266.974609375 907.521484375 266.204101562 c 0,0,1
EndSplineSet
Substitution2: "'init' Initial Forms in Arabic lookup 13 subtable" uni066E.init
Substitution2: "'medi' Medial Forms in Arabic lookup 11 subtable" uni066E.medi
Substitution2: "'fina' Terminal Forms in Arabic lookup 9 subtable" uni066E.fina
EndChar

StartChar: uni066F
Encoding: 1647 1647 74
GlifName: uni066F_
Width: 1522
VWidth: 2802
GlyphClass: 2
Flags: W
AnchorPoint: "Anchor-10" 154.827 1276.1 basechar 0
AnchorPoint: "Anchor-7" 354.105 -706.838 basechar 0
LayerCount: 2
Fore
SplineSet
1423.7734375 275.421875 m 0,0,1
 1440.5859375 129.263671875 1440.5859375 129.263671875 1422.49414062 7.1376953125 c 0,2,3
 1383.99902344 -252.6953125 1383.99902344 -252.6953125 1181.17089844 -387.649414062 c 0,4,5
 1007.99414062 -503.076171875 1007.99414062 -503.076171875 738.23828125 -501.373046875 c 0,6,7
 527.153320312 -499.860351562 527.153320312 -499.860351562 382.0625 -434.21484375 c 128,-1,8
 236.971679688 -368.569335938 236.971679688 -368.569335938 161.708007812 -239.071289062 c 128,-1,9
 86.4453125 -109.572265625 86.4453125 -109.572265625 85.59765625 79.869140625 c 0,10,11
 84.9755859375 306.955078125 84.9755859375 306.955078125 200.036132812 549.495117188 c 2,12,-1
 216.170898438 583.504882812 l 1,13,-1
 448.692382812 490.022460938 l 1,14,-1
 433.828125 452.93359375 l 2,15,16
 347.036132812 236.373046875 347.036132812 236.373046875 347.73046875 87.728515625 c 0,17,18
 348.758789062 -74.259765625 348.758789062 -74.259765625 444.758789062 -153.5234375 c 128,-1,19
 540.758789062 -232.787109375 540.758789062 -232.787109375 747.750976562 -235.291015625 c 0,20,21
 943.278320312 -237.34375 943.278320312 -237.34375 1047.83203125 -169.180664062 c 128,-1,22
 1152.38476562 -101.017578125 1152.38476562 -101.017578125 1179.33886719 38.6396484375 c 1,23,-1
 1170.97949219 36.826171875 l 2,24,25
 1099.94335938 21.3564453125 1099.94335938 21.3564453125 1041.66796875 16.4970703125 c 0,26,27
 1035.98632812 16.0888671875 1035.98632812 16.0888671875 1030.49804688 15.7646484375 c 128,-1,28
 1025.00976562 15.44140625 1025.00976562 15.44140625 1019.64355469 15.2001953125 c 128,-1,29
 1014.27734375 14.9580078125 1014.27734375 14.9580078125 1009.00292969 14.7978515625 c 128,-1,30
 1003.72949219 14.6376953125 1003.72949219 14.6376953125 998.526367188 14.556640625 c 128,-1,31
 993.323242188 14.4755859375 993.323242188 14.4755859375 988.112304688 14.47265625 c 0,32,33
 830.994140625 14.380859375 830.994140625 14.380859375 745.498046875 93.0380859375 c 128,-1,34
 660.001953125 171.694335938 660.001953125 171.694335938 660.00390625 319.572265625 c 0,35,36
 660 413.935546875 660 413.935546875 691.48828125 517.68359375 c 0,37,38
 729.962890625 645.11328125 729.962890625 645.11328125 809.905273438 716.008789062 c 128,-1,39
 889.84765625 786.904296875 889.84765625 786.904296875 1006.36523438 793.258789062 c 0,40,41
 1184.47851562 803.2109375 1184.47851562 803.2109375 1288.81542969 669.029296875 c 128,-1,42
 1393.15136719 534.848632812 1393.15136719 534.848632812 1423.7734375 275.421875 c 0,0,1
1129.50292969 292.021484375 m 2,43,-1
 1166.42089844 300.262695312 l 1,44,45
 1146.18164062 427.765625 1146.18164062 427.765625 1106.69433594 478.479492188 c 128,-1,46
 1067.20605469 529.194335938 1067.20605469 529.194335938 1010.38671875 523.732421875 c 0,47,48
 949.028320312 517.495117188 949.028320312 517.495117188 917.974609375 412.22265625 c 0,49,50
 889.06640625 311.229492188 889.06640625 311.229492188 932.35546875 290.779296875 c 0,51,52
 949.412109375 282.606445312 949.412109375 282.606445312 977.09375 278.938476562 c 128,-1,53
 1004.77539062 275.270507812 1004.77539062 275.270507812 1042.04394531 277.517578125 c 0,54,55
 1049.19726562 277.9375 1049.19726562 277.9375 1058.26660156 279.0390625 c 128,-1,56
 1067.3359375 280.141601562 1067.3359375 280.141601562 1078.25976562 281.922851562 c 128,-1,57
 1089.18261719 283.704101562 1089.18261719 283.704101562 1102.171875 286.259765625 c 128,-1,58
 1115.16113281 288.814453125 1115.16113281 288.814453125 1129.50292969 292.021484375 c 2,43,-1
EndSplineSet
Substitution2: "'init' Initial Forms in Arabic lookup 13 subtable" uni066F.init
Substitution2: "'medi' Medial Forms in Arabic lookup 11 subtable" uni066F.medi
Substitution2: "'fina' Terminal Forms in Arabic lookup 9 subtable" uni066F.fina
EndChar

StartChar: uni0670
Encoding: 1648 1648 75
GlifName: uni0670
Width: -29
VWidth: 2574
GlyphClass: 4
Flags: W
AnchorPoint: "Anchor-10" 636.984 1500.61 mark 0
AnchorPoint: "Anchor-9" 636.984 1500.61 mark 0
AnchorPoint: "Anchor-1" 636.984 2087.18 basemark 0
AnchorPoint: "Anchor-1" 636.984 1500.61 mark 0
LayerCount: 2
Fore
SplineSet
573.435546875 1548.26757812 m 1,0,-1
 573.435546875 2039.51660156 l 1,1,-1
 700.533203125 2039.51660156 l 1,2,-1
 700.533203125 1548.26757812 l 1,3,-1
 573.435546875 1548.26757812 l 1,0,-1
EndSplineSet
EndChar

StartChar: uni0674
Encoding: 1652 1652 76
GlifName: uni0674
Width: 774
VWidth: 2762
GlyphClass: 2
Flags: W
LayerCount: 2
Fore
SplineSet
217.94336233 1957.88394763 m 1,0,-1
 211.622573994 1963.67753807 l 2,1,2
 204.175379259 1970.70101129 204.175379259 1970.70101129 197.470092649 1978.01769018 c 128,-1,3
 190.734750309 1985.36822413 190.734750309 1985.36822413 184.747231604 1993.01475573 c 128,-1,4
 178.738839307 2000.68930504 178.738839307 2000.68930504 173.489059627 2008.64882057 c 0,5,6
 170.855924836 2012.64026757 170.855924836 2012.64026757 168.4104169 2016.70755279 c 128,-1,7
 165.964908963 2020.774838 165.964908963 2020.774838 163.705200724 2024.92219987 c 0,8,9
 136.614257812 2074.65617481 136.614257812 2074.65617481 136.614257812 2134.96191406 c 0,10,11
 136.614257812 2143.77064861 136.614257812 2143.77064861 137.026516212 2152.3332447 c 128,-1,12
 137.438774612 2160.89584079 137.438774612 2160.89584079 138.266229337 2169.2125149 c 0,13,14
 139.929718578 2185.93209781 139.929718578 2185.93209781 143.267028514 2201.59468821 c 128,-1,15
 146.625397337 2217.36001205 146.625397337 2217.36001205 151.681151626 2232.06650535 c 0,16,17
 154.218242381 2239.44655313 154.218242381 2239.44655313 157.182978394 2246.56440375 c 128,-1,18
 160.147714408 2253.68225438 160.147714408 2253.68225438 163.540957784 2260.53440648 c 0,19,20
 170.338919522 2274.25865391 170.338919522 2274.25865391 178.846157481 2286.8927208 c 128,-1,21
 187.348196547 2299.51854818 187.348196547 2299.51854818 197.527541716 2311.02465867 c 0,22,23
 202.604353076 2316.76310693 202.604353076 2316.76310693 208.096437527 2322.22302175 c 128,-1,24
 213.588521978 2327.68293658 213.588521978 2327.68293658 219.488252169 2332.85998031 c 0,25,26
 301.232802517 2404.59150496 301.232802517 2404.59150496 410.028353465 2404.96276714 c 0,27,28
 417.582328572 2404.98931173 417.582328572 2404.98931173 425.032931626 2404.77077705 c 128,-1,29
 432.491379467 2404.55300468 432.491379467 2404.55300468 439.849551297 2404.09145594 c 128,-1,30
 447.207666996 2403.62888732 447.207666996 2403.62888732 454.472390203 2402.92274855 c 0,31,32
 456.894045515 2402.68731459 456.894045515 2402.68731459 459.306536606 2402.42434479 c 128,-1,33
 461.719027698 2402.161375 461.719027698 2402.161375 464.120418574 2401.87106904 c 128,-1,34
 466.52180945 2401.58076309 466.52180945 2401.58076309 468.908667231 2401.26351817 c 0,35,36
 472.492772616 2400.78765657 472.492772616 2400.78765657 476.056326555 2400.24956646 c 128,-1,37
 479.619880495 2399.71147635 479.619880495 2399.71147635 483.151595081 2399.11284585 c 0,38,39
 490.231530637 2397.91399049 490.231530637 2397.91399049 497.202707189 2396.46912306 c 128,-1,40
 504.177960432 2395.02444042 504.177960432 2395.02444042 511.054410707 2393.33443915 c 0,41,42
 559.252101608 2381.48168481 559.252101608 2381.48168481 602.187715016 2357.58380399 c 2,43,-1
 612.4609375 2351.86574788 l 1,44,-1
 612.4609375 2340.10839844 l 2,45,46
 612.4609375 2332.60360277 612.4609375 2332.60360277 612.499873743 2322.57218458 c 128,-1,47
 612.538809987 2312.54076639 612.538809987 2312.54076639 612.616861449 2299.96676906 c 128,-1,48
 612.694912912 2287.39277173 612.694912912 2287.39277173 612.811894116 2272.32266809 c 0,49,50
 613.165039062 2226.95479225 613.165039062 2226.95479225 613.165039062 2204.50390625 c 2,51,-1
 613.165039062 2173.49956208 l 1,52,-1
 582.986747012 2187.15744741 l 2,53,54
 432.073341537 2255.42168968 432.073341537 2255.42168968 348.608503357 2207.04081643 c 0,55,56
 343.508517838 2204.0843938 343.508517838 2204.0843938 339.067211803 2200.87721353 c 128,-1,57
 334.625905768 2197.67003326 334.625905768 2197.67003326 330.827329464 2194.22852633 c 0,58,59
 323.451432491 2187.54370579 323.451432491 2187.54370579 318.349175342 2179.81624638 c 0,60,61
 308.14926822 2164.37150502 308.14926822 2164.37150502 306.340162461 2143.64844981 c 0,62,63
 305.441561856 2132.85317133 305.441561856 2132.85317133 306.312980729 2123.2820967 c 128,-1,64
 307.184399602 2113.71102207 307.184399602 2113.71102207 310.006170699 2104.96324562 c 128,-1,65
 312.827941795 2096.21546918 312.827941795 2096.21546918 317.44811867 2088.36067468 c 128,-1,66
 322.068295544 2080.50588017 322.068295544 2080.50588017 328.667210942 2073.14316194 c 0,67,68
 333.075909577 2068.22399969 333.075909577 2068.22399969 338.399745477 2063.59338762 c 128,-1,69
 343.723581376 2058.96277555 343.723581376 2058.96277555 350.212671729 2054.47247986 c 128,-1,70
 356.701762082 2049.98218417 356.701762082 2049.98218417 364.158868746 2045.82833725 c 0,71,72
 387.194968322 2032.99559002 387.194968322 2032.99559002 419.217443984 2023.29621805 c 0,73,74
 426.230726734 2021.07801218 426.230726734 2021.07801218 440.16411184 2021.2052214 c 0,75,76
 456.156451634 2021.35121183 456.156451634 2021.35121183 481.671244681 2024.46407272 c 0,77,78
 532.943328556 2030.72048202 532.943328556 2030.72048202 615.643911371 2049.21904258 c 2,79,-1
 641.686523438 2055.05539161 l 1,80,-1
 641.686523438 1873.78034827 l 1,81,-1
 133.8984375 1759.77966238 l 1,82,-1
 133.8984375 1938.49063939 l 1,83,-1
 217.94336233 1957.88394763 l 1,0,-1
EndSplineSet
EndChar

StartChar: uni06A1
Encoding: 1697 1697 80
GlifName: uni06A_1
Width: 1824
VWidth: 2802
GlyphClass: 2
Flags: W
AnchorPoint: "Anchor-10" 655.764 1586.97 basechar 0
AnchorPoint: "Anchor-7" 639.264 -284.161 basechar 0
LayerCount: 2
Fore
SplineSet
1733.20019531 617.624023438 m 4,0,1
 1772 265 1772 265 1580.14941406 120.390625 c 4,2,3
 1435.12011917 12.0896992387 1435.12011917 12.0896992387 1023.39453125 2.62109375 c 6,4,-1
 909.420898438 0 l 1,5,-1
 907.004882812 0 l 2,6,7
 448 0 448 0 280.46875 121.653320312 c 0,8,9
 87 263 87 263 86.9619140625 556.849609375 c 0,10,11
 86.999926079 695.72992314 86.999926079 695.72992314 128.325195312 815.124023438 c 2,12,-1
 140.4453125 850.140625 l 1,13,-1
 367.877929688 790.416015625 l 1,14,-1
 360.012695312 753.14453125 l 2,15,16
 338 649 338 649 337.844726562 558.600585938 c 0,17,18
 338 504 338 504 349.345703125 461.677734375 c 0,19,20
 361 419 361 419 382.390625 389.447265625 c 0,21,22
 404 360 404 360 436.540039062 338.705078125 c 0,23,24
 551 266 551 266 907.485351562 266.204101562 c 0,25,26
 1007 266 1007 266 1012.18457031 266.1015625 c 4,27,28
 1215 267 1215 267 1333.97753906 298.446289062 c 132,-1,29
 1453 330 1453 330 1482.78222656 379.989257812 c 5,30,-1
 1479.34667969 379.245117188 l 6,31,32
 1444 372 1444 372 1410.46582031 366.2265625 c 4,33,34
 1378 361 1378 361 1349.99902344 358.91796875 c 4,35,36
 1319 357 1319 357 1289.81738281 356.857421875 c 4,37,38
 1135 358 1135 358 1050.95214844 436.908203125 c 132,-1,39
 967 516 967 516 968.40625 662.301757812 c 4,40,41
 969 756 969 756 999.844726562 859.958984375 c 4,42,43
 1038 987 1038 987 1118.0703125 1058.22265625 c 4,44,45
 1198 1129 1198 1129 1314.77050781 1135.68457031 c 4,46,47
 1495 1145 1495 1145 1599.77636719 1011.1640625 c 4,48,49
 1704 877 1704 877 1733.20019531 617.624023438 c 4,0,1
1437.88085938 634.442382812 m 6,50,-1
 1474.86035156 642.697265625 l 5,51,52
 1464 708 1464 708 1448.66308594 754.1015625 c 4,53,54
 1433 800 1433 800 1412.36230469 824.595703125 c 4,55,56
 1392 849 1392 849 1369.13964844 859.099609375 c 4,57,58
 1346 869 1346 869 1318.79199219 866.158203125 c 4,59,60
 1256 860 1256 860 1226.43359375 754.84765625 c 4,61,62
 1198 654 1198 654 1240.73730469 633.213867188 c 4,63,64
 1278 616 1278 616 1350.45214844 619.943359375 c 4,65,66
 1382 622 1382 622 1437.88085938 634.442382812 c 6,50,-1
EndSplineSet
Substitution2: "'init' Initial Forms in Arabic lookup 13 subtable" uni06A1.init
Substitution2: "'medi' Medial Forms in Arabic lookup 11 subtable" uni06A1.medi
Substitution2: "'fina' Terminal Forms in Arabic lookup 9 subtable" uni06A1.fina
EndChar

StartChar: uni06A9
Encoding: 1705 1705 81
GlifName: uni06A_9
Width: 1879
VWidth: 2802
GlyphClass: 2
Flags: W
AnchorPoint: "Anchor-7" 673.893 -192.533 basechar 0
AnchorPoint: "Anchor-10" 666.06 1409.84 basechar 0
LayerCount: 2
Fore
SplineSet
1079 0 m 6,0,-1
 907.004882812 0 l 6,1,2
 448.009765625 0 448.009765625 0 280.46875 121.653320312 c 0,3,4
 87.0029296875 262.654296875 87.0029296875 262.654296875 86.9619140625 556.849609375 c 0,5,6
 87.001953125 695.732421875 87.001953125 695.732421875 128.325195312 815.124023438 c 2,7,-1
 140.4453125 850.140625 l 1,8,-1
 367.845703125 790.424804688 l 1,9,-1
 360.020507812 753.1796875 l 2,10,11
 336.090820312 639.276367188 336.090820312 639.276367188 337.834960938 559.5078125 c 0,12,13
 341.541015625 396.60546875 341.541015625 396.60546875 435.755859375 339.193359375 c 0,14,15
 557.0078125 266.794921875 557.0078125 266.794921875 904.515625 266.204101562 c 6,16,-1
 1078.24902344 265.99609375 l 6,17,18
 1410.15527344 266 1410.15527344 266 1410.65820312 395.205078125 c 4,19,20
 1410.9296875 452.3125 1410.9296875 452.3125 1324.76464844 553.083007812 c 4,21,22
 1246.06640625 646.088867188 1246.06640625 646.088867188 1179.15917969 719.240234375 c 132,-1,23
 1112.25097656 792.390625 1112.25097656 792.390625 1056.95214844 845.944335938 c 4,24,25
 953.034179688 948.209960938 953.034179688 948.209960938 952.809570312 1058.65527344 c 4,26,27
 952.884765625 1109.38574219 952.884765625 1109.38574219 971.67578125 1151.72558594 c 132,-1,28
 990.466796875 1194.06542969 990.466796875 1194.06542969 1025.79589844 1225.40234375 c 132,-1,29
 1061.12597656 1256.73828125 1061.12597656 1256.73828125 1111.47363281 1276.64355469 c 6,30,-1
 1838.80761719 1564.1953125 l 5,31,-1
 1838.80761719 1285.91015625 l 5,32,-1
 1226.28808594 1047.78222656 l 5,33,34
 1399.41699219 867.489257812 1399.41699219 867.489257812 1530.51855469 714.645507812 c 4,35,36
 1670.09277344 550.60546875 1670.09277344 550.60546875 1669.12792969 396.892578125 c 4,37,38
 1667.94238281 198.047851562 1667.94238281 198.047851562 1515.31445312 99.0244140625 c 132,-1,39
 1362.68652344 0 1362.68652344 0 1079 0 c 6,0,-1
EndSplineSet
Substitution2: "'init' Initial Forms in Arabic lookup 13 subtable" uniFB90
Substitution2: "'medi' Medial Forms in Arabic lookup 11 subtable" uniFB91
Substitution2: "'fina' Terminal Forms in Arabic lookup 9 subtable" uniFB8F
EndChar

StartChar: afii57514
Encoding: 1722 1722 83
GlifName: afii57514
Width: 1504
VWidth: 2802
GlyphClass: 2
Flags: W
AnchorPoint: "Anchor-10" 757.346 1153.85 basechar 0
AnchorPoint: "Anchor-7" 785.869 -639.737 basechar 0
LayerCount: 2
Fore
SplineSet
757.122070312 -180.9921875 m 0,0,1
 957.9609375 -181.462890625 957.9609375 -181.462890625 1052.06738281 -87.318359375 c 128,-1,2
 1146.17285156 6.826171875 1146.17285156 6.826171875 1145.44726562 207.473632812 c 0,3,4
 1145.01757812 374.0390625 1145.01757812 374.0390625 1062.18945312 606.588867188 c 2,5,-1
 1048.6875 644.498046875 l 1,6,-1
 1294.40820312 730.34765625 l 1,7,-1
 1308.07324219 693.591796875 l 2,8,9
 1406.0234375 430.1328125 1406.0234375 430.1328125 1405.19921875 174.724609375 c 0,10,11
 1404.98828125 9.8349609375 1404.98828125 9.8349609375 1336.39257812 -132.411132812 c 0,12,13
 1286.56445312 -237.268554688 1286.56445312 -237.268554688 1202.71191406 -307.604492188 c 128,-1,14
 1118.859375 -377.940429688 1118.859375 -377.940429688 1005.1328125 -412.479492188 c 128,-1,15
 891.405273438 -447.018554688 891.405273438 -447.018554688 748.234375 -447.079101562 c 0,16,17
 304.4609375 -447.021484375 304.4609375 -447.021484375 160.010742188 -156.377929688 c 0,18,19
 96.0751953125 -26.5703125 96.0751953125 -26.5703125 95.3291015625 154.885742188 c 0,20,21
 94.986328125 381.959960938 94.986328125 381.959960938 209.75390625 624.42578125 c 2,22,-1
 225.872070312 658.479492188 l 1,23,-1
 458.331054688 565.022460938 l 1,24,-1
 443.596679688 527.989257812 l 2,25,26
 357.022460938 310.392578125 357.022460938 310.392578125 357.462890625 162.662109375 c 0,27,28
 358.23828125 45.66015625 358.23828125 45.66015625 400.384765625 -29.7138671875 c 128,-1,29
 442.53125 -105.087890625 442.53125 -105.087890625 530.743164062 -142.883789062 c 128,-1,30
 618.954101562 -180.678710938 618.954101562 -180.678710938 757.122070312 -180.9921875 c 0,0,1
EndSplineSet
Substitution2: "'init' Initial Forms in Arabic lookup 13 subtable" uni06BA.init
Substitution2: "'medi' Medial Forms in Arabic lookup 11 subtable" uni06BA.medi
Substitution2: "'fina' Terminal Forms in Arabic lookup 9 subtable" uniFB9F
EndChar

StartChar: uni06F4
Encoding: 1780 1780 90
GlifName: uni06F_4
Width: 1277
VWidth: 2802
GlyphClass: 2
Flags: W
LayerCount: 2
Fore
SplineSet
561.19921875 688.028320312 m 1,0,1
 616.830520062 373.956814208 616.830520062 373.956814208 622.744140625 51.521484375 c 2,2,-1
 623.491210938 10.7880859375 l 1,3,-1
 362.004882812 10.7880859375 l 1,4,-1
 361.1171875 49.8798828125 l 2,5,6
 344.991469702 755.373196935 344.991469702 755.373196935 116.229492188 1337.02929688 c 2,7,-1
 100.9140625 1375.97070312 l 1,8,-1
 344.748046875 1459.38671875 l 1,9,-1
 358.466796875 1423.18164062 l 2,10,11
 413 1281 413 1281 447.357421875 1177.19238281 c 1,12,13
 480 1261 480 1261 545.103515625 1329.40820312 c 0,14,15
 671 1461 671 1461 855.840820312 1460.39941406 c 0,16,17
 969.873301673 1460.00044329 969.873301673 1460.00044329 1079.59082031 1408.81542969 c 2,18,-1
 1109.47070312 1394.87597656 l 1,19,-1
 1047.79589844 1147.59179688 l 5,20,21
 959 1193 959 1193 888 1193 c 4,22,23
 783 1193 783 1193 726.594726562 1154.9921875 c 0,24,25
 641 1097 641 1097 623.911132812 1005.62304688 c 0,26,27
 618 974 618 974 630.963867188 952.334960938 c 0,28,29
 644 931 644 931 698.5 904 c 128,-1,30
 753 877 753 877 859.565429688 877.5 c 128,-1,31
 966.130921551 878.000615033 966.130921551 878.000615033 1085.32714844 926.80078125 c 2,32,-1
 1133.27148438 946.4296875 l 1,33,-1
 1167.51855469 690.034179688 l 1,34,-1
 1137.06152344 679.138671875 l 2,35,36
 983 624 983 624 841.678710938 624.146484375 c 0,37,38
 677 624 677 624 561.19921875 688.028320312 c 1,0,1
EndSplineSet
EndChar

StartChar: uni06F5
Encoding: 1781 1781 91
GlifName: uni06F_5
Width: 1398
VWidth: 2802
GlyphClass: 2
Flags: W
LayerCount: 2
Fore
SplineSet
354.294921875 404.364257812 m 4,0,1
 355 335 355 335 379.34765625 302.686523438 c 0,2,3
 400 274 400 274 444.43359375 274.172851562 c 0,4,5
 489 274 489 274 529.97265625 336.001953125 c 0,6,7
 571.301300599 398.455307289 571.301300599 398.455307289 599.924804688 536.29296875 c 2,8,-1
 606.547851562 568.186523438 l 1,9,-1
 796.887695312 568.026367188 l 1,10,-1
 802.494140625 534.6875 l 2,11,12
 847 271 847 271 957.200195312 270.78515625 c 0,13,14
 1001 271 1001 271 1021.92871094 299.31640625 c 0,15,16
 1043 328 1043 328 1042.16015625 403.588867188 c 0,17,18
 1041 651 1041 651 664.1015625 1024.31445312 c 1,19,20
 352 650 352 650 354.294921875 404.364257812 c 4,0,1
421.866210938 11.1923828125 m 0,21,22
 264 13 264 13 182.591796875 111.775390625 c 0,23,24
 101 211 101 211 102.073242188 391.180664062 c 0,25,26
 104 732 104 732 475.598632812 1207.78808594 c 1,27,-1
 422.556640625 1257.4375 l 1,28,-1
 595.608398438 1468.90234375 l 1,29,-1
 747.45703125 1324.85644531 l 1,30,31
 1296 809 1296 809 1296.02148438 412.7890625 c 0,32,33
 1296 221 1296 221 1215.5078125 116.485351562 c 128,-1,34
 1135 12 1135 12 978.393554688 11.16796875 c 0,35,36
 793 10 793 10 700.696289062 164.639648438 c 1,37,38
 606 9 606 9 421.866210938 11.1923828125 c 0,21,22
EndSplineSet
EndChar

StartChar: uni06F6
Encoding: 1782 1782 92
GlifName: uni06F_6
Width: 1164
VWidth: 2802
GlyphClass: 2
Flags: W
LayerCount: 2
Fore
SplineSet
118.759765625 1003.60058594 m 0,0,1
 120 1096 120 1096 159.463867188 1175.79882812 c 0,2,3
 294 1449 294 1449 666.70703125 1449.04882812 c 0,4,5
 722.297995336 1448.99973685 722.297995336 1448.99973685 851.063476562 1427.64550781 c 5,6,-1
 814.389648438 1176.265625 l 1,7,8
 727.993677132 1185.00005564 727.993677132 1185.00005564 668.956054688 1185.51953125 c 0,9,10
 530 1185 530 1185 455.091796875 1129.88378906 c 0,11,12
 380 1075 380 1075 379.967773438 989.240234375 c 0,13,14
 380 919 380 919 462.942382812 881.28515625 c 0,15,16
 546 844 546 844 637.258789062 843.916992188 c 1,17,18
 891.049518831 968.551048587 891.049518831 968.551048587 975.127929688 995.893554688 c 2,19,-1
 1025.29199219 1012.20703125 l 1,20,-1
 1036.140625 749.111328125 l 1,21,22
 592 550 592 550 366.934570312 2.0634765625 c 1,23,-1
 123.928710938 83.4521484375 l 1,24,25
 208 289 208 289 452.889648438 612.435546875 c 1,26,27
 288 647 288 647 202.028320312 746.956054688 c 128,-1,28
 116 847 116 847 118.759765625 1003.60058594 c 0,0,1
EndSplineSet
EndChar

StartChar: uniFB8F
Encoding: 64399 64399 107
GlifName: uniF_B_8F_
Width: 1914
VWidth: 2802
GlyphClass: 2
Flags: W
AnchorPoint: "Anchor-7" 673.893 -192.533 basechar 0
AnchorPoint: "Anchor-10" 632.446 1456.5 basechar 0
LayerCount: 2
Fore
SplineSet
1073.52246094 0 m 2,0,-1
 907.004882812 0 l 2,1,2
 458.649414062 0 458.649414062 0 281.42578125 120.978515625 c 0,3,4
 183.872070312 187.66796875 183.872070312 187.66796875 135.426757812 297.907226562 c 128,-1,5
 86.982421875 408.147460938 86.982421875 408.147460938 86.9619140625 556.849609375 c 0,6,7
 87.001953125 695.732421875 87.001953125 695.732421875 128.325195312 815.124023438 c 2,8,-1
 140.4453125 850.140625 l 1,9,-1
 367.845703125 790.424804688 l 1,10,-1
 360.020507812 753.1796875 l 2,11,12
 348.018554688 696.051757812 348.018554688 696.051757812 342.497070312 647.422851562 c 128,-1,13
 336.975585938 598.793945312 336.975585938 598.793945312 337.833984375 559.526367188 c 0,14,15
 341.506835938 404.333984375 341.506835938 404.333984375 437.685546875 337.944335938 c 0,16,17
 485.955078125 304.786132812 485.955078125 304.786132812 606.889648438 285.390625 c 128,-1,18
 727.82421875 265.99609375 727.82421875 265.99609375 910.8515625 265.99609375 c 2,19,-1
 1072.74707031 265.99609375 l 2,20,21
 1267.89648438 266 1267.89648438 266 1334.15429688 305.8515625 c 0,22,23
 1349.67382812 315.23828125 1349.67382812 315.23828125 1359.20507812 325.443359375 c 128,-1,24
 1368.73632812 335.647460938 1368.73632812 335.647460938 1372.85351562 346.078125 c 128,-1,25
 1376.97070312 356.509765625 1376.97070312 356.509765625 1377.63183594 369.45703125 c 0,26,27
 1378.07421875 388.856445312 1378.07421875 388.856445312 1374.13183594 403.3984375 c 128,-1,28
 1370.18945312 417.940429688 1370.18945312 417.940429688 1361.5625 430.790039062 c 0,29,30
 1322.66796875 489.380859375 1322.66796875 489.380859375 1289.828125 531.350585938 c 2,31,-1
 1030.8125 862.370117188 l 2,32,33
 992.388671875 911.540039062 992.388671875 911.540039062 971.671875 959.206054688 c 128,-1,34
 950.954101562 1006.87109375 950.954101562 1006.87109375 949.352539062 1053.66503906 c 0,35,36
 946.793945312 1132.24609375 946.793945312 1132.24609375 988.016601562 1190.09667969 c 128,-1,37
 1029.23828125 1247.94726562 1029.23828125 1247.94726562 1107.56933594 1278.68261719 c 2,38,-1
 1834.80761719 1564.03417969 l 1,39,-1
 1834.80761719 1285.86132812 l 1,40,-1
 1215.11816406 1046.17089844 l 1,41,-1
 1718.41015625 403.875976562 l 2,42,43
 1773.79492188 333.209960938 1773.79492188 333.209960938 1819.80175781 299.603515625 c 128,-1,44
 1865.80859375 265.99609375 1865.80859375 265.99609375 1896.04101562 265.99609375 c 2,45,-1
 1920.62109375 265.99609375 l 2,46,47
 1936.03222656 265.999023438 1936.03222656 265.999023438 1947.60253906 260.790039062 c 128,-1,48
 1959.17382812 255.58203125 1959.17382812 255.58203125 1965.78613281 244.986328125 c 128,-1,49
 1972.3984375 234.391601562 1972.3984375 234.391601562 1976.53417969 224.556640625 c 128,-1,50
 1980.66894531 214.721679688 1980.66894531 214.721679688 1982.15625 199.020507812 c 128,-1,51
 1983.64257812 183.319335938 1983.64257812 183.319335938 1983.95117188 174.78125 c 128,-1,52
 1984.25976562 166.243164062 1984.25976562 166.243164062 1984.16699219 151.7890625 c 0,53,54
 1984.13671875 147.01953125 1984.13671875 147.01953125 1984.13671875 144.836914062 c 2,55,-1
 1984.13671875 127.19921875 l 2,56,57
 1984.02832031 57.955078125 1984.02832031 57.955078125 1973.58105469 34.236328125 c 0,58,59
 1957.22167969 0.7080078125 1957.22167969 0.7080078125 1920.62792969 0 c 2,60,-1
 1905.27832031 0 l 2,61,62
 1859.15820312 0 1859.15820312 0 1814.70703125 11.3818359375 c 128,-1,63
 1770.25488281 22.7646484375 1770.25488281 22.7646484375 1728.43945312 45.0498046875 c 128,-1,64
 1686.62402344 67.333984375 1686.62402344 67.333984375 1647.32421875 99.662109375 c 128,-1,65
 1608.0234375 131.989257812 1608.0234375 131.989257812 1570.9375 174.478515625 c 1,66,67
 1458.12402344 0 1458.12402344 0 1073.52246094 0 c 2,0,-1
EndSplineSet
EndChar

StartChar: uniFB9F
Encoding: 64415 64415 115
GlifName: uniF_B_9F_
Width: 1560
VWidth: 2802
GlyphClass: 2
Flags: W
AnchorPoint: "Anchor-10" 623.562 902.463 basechar 0
AnchorPoint: "Anchor-7" 522.599 -721.581 basechar 0
LayerCount: 2
Fore
SplineSet
1543.95214844 0 m 2,0,1
 1506.49121094 0 1506.49121094 0 1470.12011719 9.8134765625 c 128,-1,2
 1433.74902344 19.626953125 1433.74902344 19.626953125 1401.64746094 38.0380859375 c 1,3,4
 1389.43066406 -91.4892578125 1389.43066406 -91.4892578125 1336.41796875 -201.702148438 c 0,5,6
 1311.50292969 -254.39453125 1311.50292969 -254.39453125 1277.94726562 -298.471679688 c 128,-1,7
 1244.39257812 -342.547851562 1244.39257812 -342.547851562 1202.83496094 -377.416992188 c 128,-1,8
 1161.27832031 -412.286132812 1161.27832031 -412.286132812 1111.79785156 -438.516601562 c 128,-1,9
 1062.31738281 -464.74609375 1062.31738281 -464.74609375 1005.24511719 -482.03125 c 128,-1,10
 948.171875 -499.315429688 948.171875 -499.315429688 883.912109375 -507.918945312 c 128,-1,11
 819.65234375 -516.522460938 819.65234375 -516.522460938 748.23046875 -516.422851562 c 0,12,13
 429.608398438 -516.723632812 429.608398438 -516.723632812 262.909179688 -363.869140625 c 128,-1,14
 96.2099609375 -211.013671875 96.2099609375 -211.013671875 95.3291015625 85.541015625 c 0,15,16
 94.986328125 311.9375 94.986328125 311.9375 209.735351562 555.041992188 c 2,17,-1
 225.834960938 589.149414062 l 1,18,-1
 458.350585938 495.670898438 l 1,19,-1
 443.588867188 458.625976562 l 2,20,21
 357.022460938 241.380859375 357.022460938 241.380859375 357.462890625 93.318359375 c 0,22,23
 358.625 -81.8056640625 358.625 -81.8056640625 454.836914062 -165.755859375 c 128,-1,24
 551.048828125 -249.70703125 551.048828125 -249.70703125 757.168945312 -250.336914062 c 0,25,26
 957.993164062 -251.114257812 957.993164062 -251.114257812 1052.08300781 -156.986328125 c 128,-1,27
 1146.17285156 -62.8583984375 1146.17285156 -62.8583984375 1145.44726562 138.12890625 c 0,28,29
 1145.01757812 304.056640625 1145.01757812 304.056640625 1062.17871094 537.276367188 c 2,30,-1
 1048.72070312 575.165039062 l 1,31,-1
 1295.87109375 661.514648438 l 1,32,-1
 1377.98828125 407.655273438 l 2,33,34
 1390.05175781 370.095703125 1390.05175781 370.095703125 1406.27050781 343.375 c 128,-1,35
 1422.48828125 316.653320312 1422.48828125 316.653320312 1443.78125 299.717773438 c 128,-1,36
 1465.07421875 282.782226562 1465.07421875 282.782226562 1490.93554688 274.905273438 c 128,-1,37
 1516.796875 267.029296875 1516.796875 267.029296875 1549.18261719 267.029296875 c 2,38,-1
 1567.05761719 267.029296875 l 2,39,40
 1582.39941406 267.010742188 1582.39941406 267.010742188 1593.93847656 261.83203125 c 128,-1,41
 1605.47753906 256.654296875 1605.47753906 256.654296875 1612.07910156 246.1953125 c 128,-1,42
 1618.6796875 235.736328125 1618.6796875 235.736328125 1622.81933594 226.021484375 c 128,-1,43
 1626.95996094 216.306640625 1626.95996094 216.306640625 1628.46777344 200.913085938 c 128,-1,44
 1629.9765625 185.51953125 1629.9765625 185.51953125 1630.30175781 177.193359375 c 128,-1,45
 1630.62597656 168.868164062 1630.62597656 168.868164062 1630.56152344 154.88671875 c 0,46,47
 1630.54394531 151.026367188 1630.54394531 151.026367188 1630.54394531 149.239257812 c 2,48,-1
 1630.54394531 127.334960938 l 2,49,50
 1630.55761719 124.663085938 1630.55761719 124.663085938 1630.63671875 118.782226562 c 0,51,52
 1631.44238281 107.938476562 1631.44238281 107.938476562 1630.65625 94.921875 c 128,-1,53
 1629.87011719 81.90625 1629.87011719 81.90625 1628.89550781 68.7080078125 c 128,-1,54
 1627.92089844 55.509765625 1627.92089844 55.509765625 1623.50390625 43.1240234375 c 128,-1,55
 1619.08691406 30.7392578125 1619.08691406 30.7392578125 1612.63085938 21.15625 c 128,-1,56
 1606.17480469 11.572265625 1606.17480469 11.572265625 1594.42382812 5.7861328125 c 128,-1,57
 1582.67382812 0 1582.67382812 0 1567.03320312 0 c 2,58,-1
 1543.95214844 0 l 2,0,1
EndSplineSet
EndChar

StartChar: uniFBE8
Encoding: 64488 64488 118
GlifName: uniF_B_E_8
Width: 667
VWidth: 2762
GlyphClass: 2
Flags: W
AnchorPoint: "Anchor-10" 290.762 1326.83 basechar 0
AnchorPoint: "Anchor-7" 250.044 -447.953 basechar 0
LayerCount: 2
Fore
SplineSet
-6.478515625 0 m 2,0,1
 -60.96484375 0 -60.96484375 0 -92.4443359375 35.4423828125 c 128,-1,2
 -123.922851562 70.8857421875 -123.922851562 70.8857421875 -123.922851562 127.224609375 c 2,3,-1
 -123.922851562 144.818359375 l 2,4,5
 -123.974609375 198.927734375 -123.974609375 198.927734375 -92.0078125 232.461914062 c 128,-1,6
 -60.0400390625 265.99609375 -60.0400390625 265.99609375 -6.478515625 265.99609375 c 2,7,-1
 91.2451171875 265.99609375 l 2,8,9
 192.09375 265.998046875 192.09375 265.998046875 248.83984375 291.060546875 c 0,10,11
 304.506835938 315.647460938 304.506835938 315.647460938 314.900390625 378.5234375 c 0,12,13
 326.823242188 447.448242188 326.823242188 447.448242188 318.454101562 544.262695312 c 128,-1,14
 310.083984375 641.076171875 310.083984375 641.076171875 281.129882812 759.736328125 c 2,15,-1
 271.01953125 801.172851562 l 1,16,-1
 523.454101562 845.853515625 l 1,17,-1
 533.4609375 811.34375 l 2,18,19
 596.518554688 593.893554688 596.518554688 593.893554688 576.118164062 369.461914062 c 0,20,21
 561.451171875 200.322265625 561.451171875 200.322265625 463.975585938 111.295898438 c 0,22,23
 342.118164062 0 342.118164062 0 91.2353515625 0 c 2,24,-1
 -6.478515625 0 l 2,0,1
EndSplineSet
EndChar

StartChar: uniFBE9
Encoding: 64489 64489 119
GlifName: uniF_B_E_9
Width: 708
VWidth: 2802
GlyphClass: 2
Flags: W
AnchorPoint: "Anchor-10" 275.181 1255.95 basechar 0
AnchorPoint: "Anchor-7" 307.745 -121.212 basechar 0
LayerCount: 2
Fore
SplineSet
549.310546875 388.51171875 m 2,0,1
 553.581054688 345.43359375 553.581054688 345.43359375 570.262695312 318.99609375 c 128,-1,2
 586.9453125 292.55859375 586.9453125 292.55859375 620.413085938 279.27734375 c 128,-1,3
 653.881835938 265.99609375 653.881835938 265.99609375 707.374023438 265.99609375 c 2,4,-1
 714.909179688 265.99609375 l 2,5,6
 730.478515625 265.999023438 730.478515625 265.999023438 742.119140625 260.688476562 c 128,-1,7
 753.758789062 255.37890625 753.758789062 255.37890625 760.395507812 244.44140625 c 128,-1,8
 767.03125 233.50390625 767.03125 233.50390625 771.151367188 223.376953125 c 128,-1,9
 775.272460938 213.250976562 775.272460938 213.250976562 776.703125 196.796875 c 128,-1,10
 778.1328125 180.34375 778.1328125 180.34375 778.401367188 171.280273438 c 128,-1,11
 778.668945312 162.216796875 778.668945312 162.216796875 778.500976562 146.581054688 c 0,12,13
 778.426757812 139.673828125 778.426757812 139.673828125 778.426757812 136.5703125 c 2,14,-1
 778.426757812 127.1328125 l 2,15,16
 778.423828125 126.600585938 778.423828125 126.600585938 778.500976562 112.376953125 c 128,-1,17
 778.578125 98.154296875 778.578125 98.154296875 778.313476562 94.1591796875 c 128,-1,18
 778.048828125 90.1650390625 778.048828125 90.1650390625 777.323242188 76.35546875 c 128,-1,19
 776.598632812 62.5458984375 776.598632812 62.5458984375 774.703125 56.8505859375 c 128,-1,20
 772.80859375 51.15625 772.80859375 51.15625 769.932617188 39.9208984375 c 128,-1,21
 767.055664062 28.6865234375 767.055664062 28.6865234375 762.182617188 23.453125 c 128,-1,22
 757.309570312 18.21875 757.309570312 18.21875 750.93359375 11.720703125 c 128,-1,23
 744.55859375 5.22265625 744.55859375 5.22265625 735.358398438 2.611328125 c 128,-1,24
 726.158203125 0 726.158203125 0 714.916015625 0 c 2,25,-1
 705.911132812 0 l 2,26,27
 506.66796875 0 506.66796875 0 411.291015625 122.266601562 c 1,28,29
 288.615234375 0 288.615234375 0 71.1953125 0 c 2,30,-1
 -7.5791015625 0 l 2,31,32
 -61.71484375 0 -61.71484375 0 -92.818359375 35.53515625 c 128,-1,33
 -123.922851562 71.0703125 -123.922851562 71.0703125 -123.922851562 127.224609375 c 2,34,-1
 -123.922851562 144.818359375 l 2,35,36
 -123.948242188 171.30078125 -123.948242188 171.30078125 -115.791992188 193.69140625 c 128,-1,37
 -107.635742188 216.08203125 -107.635742188 216.08203125 -92.75390625 232.068359375 c 128,-1,38
 -77.8720703125 248.053710938 -77.8720703125 248.053710938 -55.966796875 257.024414062 c 128,-1,39
 -34.0625 265.99609375 -34.0625 265.99609375 -7.5791015625 265.99609375 c 2,40,-1
 66.7607421875 265.99609375 l 2,41,42
 168.551757812 265.998046875 168.551757812 265.998046875 214.504882812 296.602539062 c 128,-1,43
 260.458007812 327.208007812 260.458007812 327.208007812 266.68359375 389.436523438 c 2,44,-1
 295.279296875 675.231445312 l 1,45,-1
 520.889648438 675.231445312 l 1,46,-1
 549.310546875 388.51171875 l 2,0,1
EndSplineSet
EndChar

StartChar: uniFE73
Encoding: 65139 65139 127
GlifName: uniF_E_73
Width: 694
VWidth: 2802
GlyphClass: 2
Flags: W
AnchorPoint: "Anchor-10" 256.735 1649.43 basechar 0
AnchorPoint: "Anchor-7" 256.735 -116.134 basechar 0
LayerCount: 2
Fore
SplineSet
390.571289062 470.578125 m 2,0,1
 390.571289062 399.563476562 390.571289062 399.563476562 454.517578125 335.618164062 c 0,2,3
 482.216796875 307.916992188 482.216796875 307.916992188 527.213867188 293.674804688 c 0,4,5
 575.276367188 278.461914062 575.276367188 278.461914062 642.44140625 278.461914062 c 2,6,-1
 753.19140625 278.461914062 l 1,7,-1
 753.19140625 10.7880859375 l 1,8,-1
 567.743164062 10.7880859375 l 2,9,10
 371.209960938 10.7880859375 371.209960938 10.7880859375 243.657226562 138.33984375 c 0,11,12
 183.354492188 198.642578125 183.354492188 198.642578125 153.125 278.3828125 c 128,-1,13
 122.895507812 358.124023438 122.895507812 358.124023438 122.895507812 454.279296875 c 2,14,-1
 122.895507812 521.568359375 l 1,15,-1
 390.571289062 521.568359375 l 1,16,-1
 390.571289062 470.578125 l 2,0,1
EndSplineSet
EndChar

StartChar: uniFE8E
Encoding: 65166 65166 153
GlifName: uniF_E_8E_
Width: 579
VWidth: 2802
GlyphClass: 2
Flags: W
AnchorPoint: "Anchor-10" 252.108 1597.54 basechar 0
AnchorPoint: "Anchor-7" 301.954 -182.23 basechar 0
LayerCount: 2
Fore
SplineSet
585.286132812 0 m 6,0,-1
 565.791015625 0 l 6,1,2
 124.790039062 0 124.790039062 0 124.790039062 454.123046875 c 6,3,-1
 124.790039062 1476.30957031 l 5,4,-1
 381.749023438 1476.30957031 l 5,5,-1
 381.749023438 466.0625 l 6,6,7
 382.222442213 265.99609375 382.222442213 265.99609375 568.642578125 265.99609375 c 6,8,-1
 585.279296875 265.99609375 l 6,9,10
 601 266 601 266 612.26171875 260.790039062 c 4,11,12
 624 256 624 256 630.4453125 244.986328125 c 132,-1,13
 637 234 637 234 641.193359375 224.555664062 c 4,14,15
 645 215 645 215 646.815429688 199.018554688 c 4,16,17
 648 183 648 183 648.611328125 174.779296875 c 4,18,19
 649 166 649 166 648.827148438 151.786132812 c 4,20,21
 649 147 649 147 648.796875 144.836914062 c 6,22,-1
 648.796875 127.27734375 l 6,23,24
 649 125 649 125 648.873046875 118.337890625 c 4,25,26
 649 103 649 103 648.782226562 94.0478515625 c 4,27,28
 649 85 649 85 647.094726562 68.8115234375 c 4,29,30
 646 53 646 53 641.55078125 42.439453125 c 132,-1,31
 637 32 637 32 630.797851562 21.4814453125 c 4,32,33
 624 11 624 11 612.513671875 5.3017578125 c 4,34,35
 601 0 601 0 585.286132812 0 c 6,0,-1
EndSplineSet
EndChar

StartChar: uniFEA2
Encoding: 65186 65186 173
GlifName: uniF_E_A_2
Width: 1372
VWidth: 2802
GlyphClass: 2
Flags: W
AnchorPoint: "Anchor-7" 533.391 -857.848 basechar 0
AnchorPoint: "Anchor-10" 659.119 1320.36 basechar 0
LayerCount: 2
Fore
SplineSet
1290.08398438 708.977539062 m 1,0,-1
 1271.93066406 457.747070312 l 1,1,-1
 1237.61328125 455.08203125 l 2,2,3
 1198.66601562 452.057617188 1198.66601562 452.057617188 1162.18066406 448.49609375 c 128,-1,4
 1125.6953125 444.935546875 1125.6953125 444.935546875 1094.11035156 441.10546875 c 1,5,6
 1103.18164062 350.708007812 1103.18164062 350.708007812 1164.76464844 307.776367188 c 128,-1,7
 1226.34667969 264.845703125 1226.34667969 264.845703125 1356.36523438 266.057617188 c 2,8,-1
 1378.55664062 266.264648438 l 2,9,10
 1393.89941406 266.092773438 1393.89941406 266.092773438 1405.43457031 260.889648438 c 128,-1,11
 1416.96875 255.686523438 1416.96875 255.686523438 1423.57128906 245.319335938 c 128,-1,12
 1430.17285156 234.952148438 1430.17285156 234.952148438 1434.31054688 225.34765625 c 128,-1,13
 1438.44824219 215.7421875 1438.44824219 215.7421875 1439.95703125 200.524414062 c 128,-1,14
 1441.46582031 185.306640625 1441.46582031 185.306640625 1441.7890625 177.059570312 c 128,-1,15
 1442.11230469 168.813476562 1442.11230469 168.813476562 1442.04785156 154.919921875 c 0,16,17
 1442.02929688 151.0390625 1442.02929688 151.0390625 1442.02929688 149.239257812 c 2,18,-1
 1442.02929688 127.216796875 l 2,19,20
 1442.02929688 125.934570312 1442.02929688 125.934570312 1442.11132812 113.958984375 c 128,-1,21
 1442.19433594 101.984375 1442.19433594 101.984375 1442.11328125 97.966796875 c 128,-1,22
 1442.03222656 93.9501953125 1442.03222656 93.9501953125 1441.44042969 81.921875 c 128,-1,23
 1440.84765625 69.89453125 1440.84765625 69.89453125 1439.72070312 64.4482421875 c 128,-1,24
 1438.59375 59.0029296875 1438.59375 59.0029296875 1436.34570312 48.4990234375 c 128,-1,25
 1434.09765625 37.99609375 1434.09765625 37.99609375 1430.94238281 32.6982421875 c 128,-1,26
 1427.78808594 27.4013671875 1427.78808594 27.4013671875 1422.90332031 19.998046875 c 128,-1,27
 1418.01855469 12.5947265625 1418.01855469 12.5947265625 1411.85546875 9.0224609375 c 128,-1,28
 1405.69238281 5.4501953125 1405.69238281 5.4501953125 1397.18945312 2.7255859375 c 128,-1,29
 1388.6875 0 1388.6875 0 1378.51953125 0 c 2,30,-1
 1357.59960938 0 l 2,31,32
 1130.44335938 0 1130.44335938 0 1002.78515625 100.033203125 c 128,-1,33
 875.126953125 200.06640625 875.126953125 200.06640625 861.345703125 393.88671875 c 1,34,35
 600.236328125 319.546875 600.236328125 319.546875 475.751953125 198.170898438 c 128,-1,36
 351.267578125 76.7939453125 351.267578125 76.7939453125 350.69921875 -93.4052734375 c 0,37,38
 350.387695312 -253.0390625 350.387695312 -253.0390625 466.829101562 -332.686523438 c 128,-1,39
 583.270507812 -412.334960938 583.270507812 -412.334960938 836.465820312 -412.64453125 c 0,40,41
 898.854492188 -412.758789062 898.854492188 -412.758789062 960.060546875 -406.184570312 c 128,-1,42
 1021.26660156 -399.609375 1021.26660156 -399.609375 1081.37695312 -386.334960938 c 128,-1,43
 1141.48828125 -373.059570312 1141.48828125 -373.059570312 1200.58984375 -353.067382812 c 2,44,-1
 1243.63574219 -338.505859375 l 1,45,-1
 1295.14648438 -593.966796875 l 1,46,-1
 1261.91503906 -605.30859375 l 2,47,48
 1194.75390625 -628.228515625 1194.75390625 -628.228515625 1124.46582031 -643.448242188 c 128,-1,49
 1054.17773438 -658.66796875 1054.17773438 -658.66796875 981.069335938 -666.162109375 c 128,-1,50
 907.9609375 -673.65625 907.9609375 -673.65625 831.903320312 -673.477539062 c 0,51,52
 471.74609375 -672.71484375 471.74609375 -672.71484375 283.696289062 -525.837890625 c 128,-1,53
 95.6474609375 -378.9609375 95.6474609375 -378.9609375 97.525390625 -90.6796875 c 0,54,55
 97.912109375 -9.8154296875 97.912109375 -9.8154296875 113.774414062 63.5 c 128,-1,56
 129.63671875 136.815429688 129.63671875 136.815429688 160.581054688 201.651367188 c 128,-1,57
 191.525390625 266.486328125 191.525390625 266.486328125 237.263671875 323.3984375 c 128,-1,58
 283.001953125 380.310546875 283.001953125 380.310546875 343.244140625 428.750976562 c 128,-1,59
 403.486328125 477.192382812 403.486328125 477.192382812 477.834960938 517.309570312 c 128,-1,60
 552.182617188 557.426757812 552.182617188 557.426757812 640.44921875 589.056640625 c 1,61,62
 591.692382812 599.045898438 591.692382812 599.045898438 550.661132812 604.89453125 c 128,-1,63
 509.62890625 610.744140625 509.62890625 610.744140625 481.602539062 611.994140625 c 128,-1,64
 453.575195312 613.243164062 453.575195312 613.243164062 434.1640625 611.1015625 c 0,65,66
 376.432617188 604.259765625 376.432617188 604.259765625 315.721679688 526.060546875 c 2,67,-1
 265.482421875 461.34765625 l 1,68,-1
 55.140625 585.619140625 l 1,69,-1
 94.28125 650.251953125 l 2,70,71
 224.358398438 865.192382812 224.358398438 865.192382812 404.500976562 879.9921875 c 0,72,73
 524.270507812 889.462890625 524.270507812 889.462890625 809.434570312 804.608398438 c 0,74,75
 1083.14453125 722.616210938 1083.14453125 722.616210938 1249.91796875 711.624023438 c 2,76,-1
 1290.08398438 708.977539062 l 1,0,-1
EndSplineSet
EndChar

StartChar: uniFEA3
Encoding: 65187 65187 174
GlifName: uniF_E_A_3
Width: 1366
VWidth: 2802
GlyphClass: 2
Flags: W
AnchorPoint: "Anchor-10" 600.676 1383.86 basechar 0
AnchorPoint: "Anchor-7" 556.478 -193.116 basechar 0
LayerCount: 2
Fore
SplineSet
-6.478515625 0 m 2,0,1
 -60.96484375 0 -60.96484375 0 -92.4443359375 35.4423828125 c 128,-1,2
 -123.922851562 70.8857421875 -123.922851562 70.8857421875 -123.922851562 127.224609375 c 2,3,-1
 -123.922851562 144.818359375 l 2,4,5
 -123.974609375 199.020507812 -123.974609375 199.020507812 -92.0302734375 232.641601562 c 128,-1,6
 -60.0859375 266.262695312 -60.0859375 266.262695312 -6.478515625 266.262695312 c 2,7,-1
 70.02734375 266.262695312 l 2,8,9
 434.350585938 266.008789062 434.350585938 266.008789062 670.025390625 418.522460938 c 2,10,-1
 869.389648438 547.538085938 l 1,11,12
 800.895507812 563.000976562 800.895507812 563.000976562 708.778320312 586.884765625 c 0,13,14
 510.091796875 638.4296875 510.091796875 638.4296875 443.606445312 631.037109375 c 0,15,16
 430.755859375 629.668945312 430.755859375 629.668945312 417.307617188 624.266601562 c 128,-1,17
 403.859375 618.86328125 403.859375 618.86328125 389.0703125 608.889648438 c 128,-1,18
 374.282226562 598.916015625 374.282226562 598.916015625 358.181640625 583.024414062 c 128,-1,19
 342.08203125 567.1328125 342.08203125 567.1328125 325.721679688 546.060546875 c 2,20,-1
 275.482421875 481.34765625 l 1,21,-1
 65.140625 605.619140625 l 1,22,-1
 104.28125 670.251953125 l 2,23,24
 234.358398438 885.192382812 234.358398438 885.192382812 414.500976562 899.9921875 c 0,25,26
 534.270507812 909.462890625 534.270507812 909.462890625 819.434570312 824.608398438 c 0,27,28
 1093.14453125 742.616210938 1093.14453125 742.616210938 1259.91796875 731.624023438 c 2,29,-1
 1297.72753906 729.1328125 l 1,30,-1
 1295.04785156 500.013671875 l 1,31,32
 1245.68049139 497.165963626 1245.68049139 497.165963626 1145.30078125 432.116210938 c 4,33,34
 1051.20800781 371.140625 1051.20800781 371.140625 914.959960938 271.21875 c 0,35,36
 546.124023438 -0 546.124023438 -0 77.677734375 0 c 2,37,-1
 -6.478515625 0 l 2,0,1
EndSplineSet
EndChar

StartChar: uniFEA4
Encoding: 65188 65188 175
GlifName: uniF_E_A_4
Width: 1388
VWidth: 2802
GlyphClass: 2
Flags: W
AnchorPoint: "Anchor-7" 556.478 -193.116 basechar 0
AnchorPoint: "Anchor-10" 600.676 1383.86 basechar 0
LayerCount: 2
Fore
SplineSet
1088.55078125 392.916015625 m 1,0,1
 1097 332 1097 332 1166.6484375 299.349609375 c 0,2,3
 1234.46159384 266.262695312 1234.46159384 266.262695312 1382.43847656 266.262695312 c 2,4,-1
 1395.56152344 266.262695312 l 2,5,6
 1400 266 1400 266 1406.46875 264.96875 c 0,7,8
 1412 264 1412 264 1416.71777344 261.563476562 c 0,9,10
 1422 259 1422 259 1425.76953125 256.495117188 c 0,11,12
 1430 254 1430 254 1433.46484375 250.109375 c 0,13,14
 1446 238 1446 238 1451.47460938 219.549804688 c 128,-1,15
 1457 201 1457 201 1458.109375 188.471679688 c 0,16,17
 1458.84863281 179.779726263 1458.84863281 179.779726263 1458.84863281 149.239257812 c 2,18,-1
 1458.84863281 127.265625 l 2,19,20
 1459 125 1459 125 1458.92089844 118.245117188 c 0,21,22
 1459 103 1459 103 1458.8203125 93.9599609375 c 0,23,24
 1459 85 1459 85 1457.12304688 68.7392578125 c 0,25,26
 1456 52 1456 52 1451.57324219 42.390625 c 0,27,28
 1447 32 1447 32 1440.8203125 21.4560546875 c 0,29,30
 1434 11 1434 11 1422.54589844 5.294921875 c 0,31,32
 1411 0 1411 0 1395.33984375 0 c 2,33,-1
 1377.29003906 0 l 2,34,35
 1178 0 1178 0 1053.68310547 62.90625 c 0,36,37
 930 126 930 126 893.529296875 253.640625 c 1,38,39
 520 0 520 0 77.677734375 0 c 2,40,-1
 -6.478515625 0 l 2,41,42
 -61 0 -61 0 -92.4443359375 35.4423828125 c 128,-1,43
 -123.922851562 70.9130674411 -123.922851562 70.9130674411 -123.922851562 127.224609375 c 2,44,-1
 -123.922851562 144.818359375 l 2,45,46
 -124 199 -124 199 -92.0302734375 232.641601562 c 0,47,48
 -59.7477635897 266.262695312 -59.7477635897 266.262695312 -6.478515625 266.262695312 c 2,49,-1
 70.02734375 266.262695312 l 2,50,51
 434.337409841 266.000476911 434.337409841 266.000476911 670.025390625 418.522460938 c 2,52,-1
 869.389648438 547.538085938 l 1,53,54
 801 563 801 563 708.778320312 586.884765625 c 0,55,56
 514.421763585 636.862957079 514.421763585 636.862957079 443.606445312 631.037109375 c 0,57,58
 431 630 431 630 417.307617188 624.266601562 c 0,59,60
 404 619 404 619 389.0703125 608.889648438 c 0,61,62
 374 599 374 599 358.181640625 583.024414062 c 0,63,64
 341.904117134 566.905048766 341.904117134 566.905048766 325.721679688 546.060546875 c 2,65,-1
 275.482421875 481.34765625 l 1,66,-1
 65.140625 605.619140625 l 1,67,-1
 104.28125 670.251953125 l 2,68,69
 234.877192162 886.452182537 234.877192162 886.452182537 414.500976562 899.9921875 c 0,70,71
 537 909 537 909 819.434570312 824.608398438 c 0,72,73
 1097.21401604 742.344321588 1097.21401604 742.344321588 1259.91796875 731.624023438 c 2,74,-1
 1297.72753906 729.1328125 l 1,75,-1
 1295.04589844 499.805664062 l 1,76,77
 1252.7534014 497.600691038 1252.7534014 497.600691038 1199.56933594 466.139648438 c 4,78,79
 1152 438 1152 438 1088.55078125 392.916015625 c 1,0,1
EndSplineSet
EndChar

StartChar: uniFEAA
Encoding: 65194 65194 181
GlifName: uniF_E_A_A_
Width: 1115
VWidth: 2802
GlyphClass: 2
Flags: W
AnchorPoint: "Anchor-7" 460.033 -191.02 basechar 0
AnchorPoint: "Anchor-10" 539.35 1383.94 basechar 0
LayerCount: 2
Fore
SplineSet
1112.05078125 0 m 2,0,1
 939.327148438 0 939.327148438 0 830.625 136.66015625 c 1,2,3
 757.013671875 67.9140625 757.013671875 67.9140625 648.986328125 34.6318359375 c 128,-1,4
 540.958007812 1.3486328125 540.958007812 1.3486328125 398.428710938 0.7861328125 c 0,5,6
 264.318359375 -0.0234375 264.318359375 -0.0234375 112.37890625 29.12109375 c 2,7,-1
 79.9140625 35.3486328125 l 1,8,-1
 79.9140625 304.782226562 l 1,9,-1
 128.250976562 294.482421875 l 2,10,11
 257.245117188 266.993164062 257.245117188 266.993164062 407.912109375 266.76171875 c 0,12,13
 529.249023438 266.984375 529.249023438 266.984375 618.802734375 307.956054688 c 0,14,15
 653.548828125 323.940429688 653.548828125 323.940429688 661.954101562 347.046875 c 128,-1,16
 670.359375 370.153320312 670.359375 370.153320312 655.411132812 418.12890625 c 0,17,18
 629.676757812 495.475585938 629.676757812 495.475585938 583.493164062 593.844726562 c 2,19,-1
 407.178710938 969.38671875 l 1,20,-1
 649.526367188 1090.03613281 l 1,21,-1
 893.485351562 535.154296875 l 2,22,23
 954.080078125 397.638671875 954.080078125 397.638671875 1009.5859375 331.817382812 c 128,-1,24
 1065.09082031 265.99609375 1065.09082031 265.99609375 1103.03808594 265.99609375 c 2,25,-1
 1121.36816406 265.99609375 l 2,26,27
 1136.77929688 265.999023438 1136.77929688 265.999023438 1148.35058594 260.790039062 c 128,-1,28
 1159.92089844 255.58203125 1159.92089844 255.58203125 1166.53417969 244.986328125 c 128,-1,29
 1173.14648438 234.390625 1173.14648438 234.390625 1177.28222656 224.555664062 c 128,-1,30
 1181.41796875 214.720703125 1181.41796875 214.720703125 1182.90429688 199.018554688 c 128,-1,31
 1184.39160156 183.317382812 1184.39160156 183.317382812 1184.70019531 174.779296875 c 128,-1,32
 1185.00878906 166.240234375 1185.00878906 166.240234375 1184.91601562 151.786132812 c 0,33,34
 1184.88574219 147.018554688 1184.88574219 147.018554688 1184.88574219 144.836914062 c 2,35,-1
 1184.88574219 127.256835938 l 2,36,37
 1184.88964844 124.431640625 1184.88964844 124.431640625 1184.95507812 118.182617188 c 0,38,39
 1185.11816406 102.836914062 1185.11816406 102.836914062 1184.84667969 93.900390625 c 128,-1,40
 1184.57617188 84.96484375 1184.57617188 84.96484375 1183.14355469 68.6904296875 c 128,-1,41
 1181.7109375 52.4169921875 1181.7109375 52.4169921875 1177.58886719 42.357421875 c 128,-1,42
 1173.46679688 32.2978515625 1173.46679688 32.2978515625 1166.83496094 21.4384765625 c 128,-1,43
 1160.20410156 10.5791015625 1160.20410156 10.5791015625 1148.56640625 5.2900390625 c 128,-1,44
 1136.9296875 0 1136.9296875 0 1121.375 0 c 2,45,-1
 1112.05078125 0 l 2,0,1
EndSplineSet
EndChar

StartChar: uniFEAE
Encoding: 65198 65198 185
GlifName: uniF_E_A_E_
Width: 928
VWidth: 2802
GlyphClass: 2
Flags: W
AnchorPoint: "Anchor-7" 373.872 -687.41 basechar 0
AnchorPoint: "Anchor-10" 520.58 1342.55 basechar 0
LayerCount: 2
Fore
SplineSet
919.397460938 0 m 2,0,1
 832.018554688 0 832.018554688 0 774.762695312 27.943359375 c 1,2,3
 748.16796875 -111.295898438 748.16796875 -111.295898438 674.926757812 -220.774414062 c 0,4,5
 508.801757812 -470.971679688 508.801757812 -470.971679688 56.8701171875 -514.904296875 c 2,6,-1
 20.1728515625 -518.471679688 l 1,7,-1
 -26.14453125 -261.458007812 l 1,8,-1
 17.06640625 -257.274414062 l 2,9,10
 350.8203125 -224.959960938 350.8203125 -224.959960938 467.180664062 -59.025390625 c 0,11,12
 529.959960938 29.66796875 529.959960938 29.66796875 529.606445312 142.233398438 c 0,13,14
 529.034179688 325.15625 529.034179688 325.15625 421.422851562 510.19140625 c 2,15,-1
 399.395507812 548.065429688 l 1,16,-1
 638.912109375 659.602539062 l 1,17,18
 663.21875 623.951171875 663.21875 623.951171875 770.830078125 381.379882812 c 4,19,20
 822.014648438 266 822.014648438 266 910.30078125 265.99609375 c 2,21,-1
 934.9609375 265.99609375 l 2,22,23
 966.826171875 266.001953125 966.826171875 266.001953125 976.697265625 250.411132812 c 128,-1,24
 986.568359375 234.8203125 986.568359375 234.8203125 990.712890625 225.127929688 c 128,-1,25
 994.857421875 215.435546875 994.857421875 215.435546875 996.373046875 200.120117188 c 0,26,27
 998.584960938 177.778320312 998.584960938 177.778320312 998.532226562 164.334960938 c 128,-1,28
 998.478515625 150.891601562 998.478515625 150.891601562 998.478515625 149.239257812 c 2,29,-1
 998.478515625 127.12109375 l 2,30,31
 998.102539062 58.572265625 998.102539062 58.572265625 985.107421875 29.650390625 c 128,-1,32
 972.11328125 0.728515625 972.11328125 0.728515625 934.967773438 0 c 2,33,-1
 919.397460938 0 l 2,0,1
EndSplineSet
PairPos2: "'kern' Horizontal Kerning lookup 15-2" uniFBFE dx=57 dy=0 dh=57 dv=0 dx=0 dy=0 dh=0 dv=0
PairPos2: "'kern' Horizontal Kerning lookup 15-1" uniFEE7 dx=-170 dy=0 dh=-170 dv=0 dx=0 dy=0 dh=0 dv=0
PairPos2: "'kern' Horizontal Kerning lookup 15-2" uniFB90 dx=-216 dy=0 dh=-216 dv=0 dx=0 dy=0 dh=0 dv=0
PairPos2: "'kern' Horizontal Kerning lookup 15-2" uniFB8E dx=-216 dy=0 dh=-216 dv=0 dx=0 dy=0 dh=0 dv=0
PairPos2: "'kern' Horizontal Kerning lookup 15-2" uni06A9 dx=-216 dy=0 dh=-216 dv=0 dx=0 dy=0 dh=0 dv=0
PairPos2: "'kern' Horizontal Kerning lookup 15-2" uni064A dx=-57 dy=0 dh=-57 dv=0 dx=0 dy=0 dh=0 dv=0
PairPos2: "'kern' Horizontal Kerning lookup 15-2" afii57414 dx=-57 dy=0 dh=-57 dv=0 dx=0 dy=0 dh=0 dv=0
PairPos2: "'kern' Horizontal Kerning lookup 15-2" uni0649 dx=-57 dy=0 dh=-57 dv=0 dx=0 dy=0 dh=0 dv=0
PairPos2: "'kern' Horizontal Kerning lookup 15-2" uniFEEB dx=-170 dy=0 dh=-170 dv=0 dx=0 dy=0 dh=0 dv=0
PairPos2: "'kern' Horizontal Kerning lookup 15-2" uni0647 dx=-170 dy=0 dh=-170 dv=0 dx=0 dy=0 dh=0 dv=0
PairPos2: "'kern' Horizontal Kerning lookup 15-2" uni0646 dx=-57 dy=0 dh=-57 dv=0 dx=0 dy=0 dh=0 dv=0
PairPos2: "'kern' Horizontal Kerning lookup 15-2" uniFEE3 dx=-170 dy=0 dh=-170 dv=0 dx=0 dy=0 dh=0 dv=0
PairPos2: "'kern' Horizontal Kerning lookup 15-2" uni0645 dx=-170 dy=0 dh=-170 dv=0 dx=0 dy=0 dh=0 dv=0
PairPos2: "'kern' Horizontal Kerning lookup 15-2" uniFEFB dx=-136 dy=0 dh=-136 dv=0 dx=0 dy=0 dh=0 dv=0
PairPos2: "'kern' Horizontal Kerning lookup 15-2" uniFEDF dx=-136 dy=0 dh=-136 dv=0 dx=0 dy=0 dh=0 dv=0
PairPos2: "'kern' Horizontal Kerning lookup 15-2" uni0644 dx=-57 dy=0 dh=-57 dv=0 dx=0 dy=0 dh=0 dv=0
PairPos2: "'kern' Horizontal Kerning lookup 15-2" uniFEDB dx=-216 dy=0 dh=-216 dv=0 dx=0 dy=0 dh=0 dv=0
PairPos2: "'kern' Horizontal Kerning lookup 15-2" uni0643 dx=-136 dy=0 dh=-136 dv=0 dx=0 dy=0 dh=0 dv=0
PairPos2: "'kern' Horizontal Kerning lookup 15-2" uniFED7 dx=-170 dy=0 dh=-170 dv=0 dx=0 dy=0 dh=0 dv=0
PairPos2: "'kern' Horizontal Kerning lookup 15-2" uni0642 dx=-57 dy=0 dh=-57 dv=0 dx=0 dy=0 dh=0 dv=0
PairPos2: "'kern' Horizontal Kerning lookup 15-2" uniFED3 dx=-170 dy=0 dh=-170 dv=0 dx=0 dy=0 dh=0 dv=0
PairPos2: "'kern' Horizontal Kerning lookup 15-2" uni0641 dx=-170 dy=0 dh=-170 dv=0 dx=0 dy=0 dh=0 dv=0
PairPos2: "'kern' Horizontal Kerning lookup 15-2" uniFECF dx=-170 dy=0 dh=-170 dv=0 dx=0 dy=0 dh=0 dv=0
PairPos2: "'kern' Horizontal Kerning lookup 15-2" uniFECB dx=-170 dy=0 dh=-170 dv=0 dx=0 dy=0 dh=0 dv=0
PairPos2: "'kern' Horizontal Kerning lookup 15-2" uniFEC7 dx=-170 dy=0 dh=-170 dv=0 dx=0 dy=0 dh=0 dv=0
PairPos2: "'kern' Horizontal Kerning lookup 15-2" uni0638 dx=-170 dy=0 dh=-170 dv=0 dx=0 dy=0 dh=0 dv=0
PairPos2: "'kern' Horizontal Kerning lookup 15-2" uniFEC3 dx=-170 dy=0 dh=-170 dv=0 dx=0 dy=0 dh=0 dv=0
PairPos2: "'kern' Horizontal Kerning lookup 15-2" uni0637 dx=-170 dy=0 dh=-170 dv=0 dx=0 dy=0 dh=0 dv=0
PairPos2: "'kern' Horizontal Kerning lookup 15-2" uniFEBF dx=-170 dy=0 dh=-170 dv=0 dx=0 dy=0 dh=0 dv=0
PairPos2: "'kern' Horizontal Kerning lookup 15-2" uni0636 dx=-170 dy=0 dh=-170 dv=0 dx=0 dy=0 dh=0 dv=0
PairPos2: "'kern' Horizontal Kerning lookup 15-2" uniFEBB dx=-170 dy=0 dh=-170 dv=0 dx=0 dy=0 dh=0 dv=0
PairPos2: "'kern' Horizontal Kerning lookup 15-2" uni0635 dx=-170 dy=0 dh=-170 dv=0 dx=0 dy=0 dh=0 dv=0
PairPos2: "'kern' Horizontal Kerning lookup 15-2" uniFEB7 dx=-170 dy=0 dh=-170 dv=0 dx=0 dy=0 dh=0 dv=0
PairPos2: "'kern' Horizontal Kerning lookup 15-2" uni0634 dx=-170 dy=0 dh=-170 dv=0 dx=0 dy=0 dh=0 dv=0
PairPos2: "'kern' Horizontal Kerning lookup 15-2" uniFEB3 dx=-170 dy=0 dh=-170 dv=0 dx=0 dy=0 dh=0 dv=0
PairPos2: "'kern' Horizontal Kerning lookup 15-2" uni0633 dx=-170 dy=0 dh=-170 dv=0 dx=0 dy=0 dh=0 dv=0
PairPos2: "'kern' Horizontal Kerning lookup 15-2" uni0630 dx=-170 dy=0 dh=-170 dv=0 dx=0 dy=0 dh=0 dv=0
PairPos2: "'kern' Horizontal Kerning lookup 15-2" uni062F dx=-170 dy=0 dh=-170 dv=0 dx=0 dy=0 dh=0 dv=0
PairPos2: "'kern' Horizontal Kerning lookup 15-2" uniFEA7 dx=-170 dy=0 dh=-170 dv=0 dx=0 dy=0 dh=0 dv=0
PairPos2: "'kern' Horizontal Kerning lookup 15-2" uniFEA3 dx=-170 dy=0 dh=-170 dv=0 dx=0 dy=0 dh=0 dv=0
PairPos2: "'kern' Horizontal Kerning lookup 15-2" uniFE9F dx=-170 dy=0 dh=-170 dv=0 dx=0 dy=0 dh=0 dv=0
PairPos2: "'kern' Horizontal Kerning lookup 15-2" uniFE9B dx=-170 dy=0 dh=-170 dv=0 dx=0 dy=0 dh=0 dv=0
PairPos2: "'kern' Horizontal Kerning lookup 15-2" uni062B dx=-170 dy=0 dh=-170 dv=0 dx=0 dy=0 dh=0 dv=0
PairPos2: "'kern' Horizontal Kerning lookup 15-2" uniFE97 dx=-170 dy=0 dh=-170 dv=0 dx=0 dy=0 dh=0 dv=0
PairPos2: "'kern' Horizontal Kerning lookup 15-2" uni062A dx=-170 dy=0 dh=-170 dv=0 dx=0 dy=0 dh=0 dv=0
PairPos2: "'kern' Horizontal Kerning lookup 15-2" uni0629 dx=-170 dy=0 dh=-170 dv=0 dx=0 dy=0 dh=0 dv=0
PairPos2: "'kern' Horizontal Kerning lookup 15-2" uni0628 dx=-170 dy=0 dh=-170 dv=0 dx=0 dy=0 dh=0 dv=0
PairPos2: "'kern' Horizontal Kerning lookup 15-2" uni0627 dx=-136 dy=0 dh=-136 dv=0 dx=0 dy=0 dh=0 dv=0
PairPos2: "'kern' Horizontal Kerning lookup 15-2" uni0623 dx=-136 dy=0 dh=-136 dv=0 dx=0 dy=0 dh=0 dv=0
PairPos2: "'kern' Horizontal Kerning lookup 15-2" uni0622 dx=-136 dy=0 dh=-136 dv=0 dx=0 dy=0 dh=0 dv=0
PairPos2: "'kern' Horizontal Kerning lookup 15-2" uni0621 dx=-170 dy=0 dh=-170 dv=0 dx=0 dy=0 dh=0 dv=0
PairPos2: "'kern' Horizontal Kerning lookup 15-2" uniFB94 dx=-216 dy=0 dh=-216 dv=0 dx=0 dy=0 dh=0 dv=0
PairPos2: "'kern' Horizontal Kerning lookup 15-2" uniFB92 dx=-216 dy=0 dh=-216 dv=0 dx=0 dy=0 dh=0 dv=0
PairPos2: "'kern' Horizontal Kerning lookup 15-2" uni06AF dx=-216 dy=0 dh=-216 dv=0 dx=0 dy=0 dh=0 dv=0
PairPos2: "'kern' Horizontal Kerning lookup 15-2" afii57506 dx=-170 dy=0 dh=-170 dv=0 dx=0 dy=0 dh=0 dv=0
PairPos2: "'kern' Horizontal Kerning lookup 15-2" afii57440 dx=-170 dy=0 dh=-170 dv=0 dx=0 dy=0 dh=0 dv=0
PairPos2: "'kern' Horizontal Kerning lookup 15-2" uniFE8B dx=-170 dy=0 dh=-170 dv=0 dx=0 dy=0 dh=0 dv=0
EndChar

StartChar: uniFEB2
Encoding: 65202 65202 189
GlifName: uniF_E_B_2
Width: 2570
VWidth: 2802
GlyphClass: 2
Flags: W
AnchorPoint: "Anchor-7" 563.969 -733.127 basechar 0
AnchorPoint: "Anchor-10" 740.104 1165.38 basechar 0
LayerCount: 2
Fore
SplineSet
2049.484375 0.9873046875 m 128,-1,1
 1900.73242188 0.0478515625 1900.73242188 0.0478515625 1807.48632812 118.815429688 c 1,2,3
 1760.75195312 58.9345703125 1760.75195312 58.9345703125 1696.57617188 29.00390625 c 128,-1,4
 1632.40039062 -0.9267578125 1632.40039062 -0.9267578125 1554.25976562 0.001953125 c 0,5,6
 1468.44042969 0.744140625 1468.44042969 0.744140625 1401.609375 37.91796875 c 1,7,8
 1389.26367188 -91.8359375 1389.26367188 -91.8359375 1336.38183594 -201.776367188 c 0,9,10
 1298.78125 -280.458007812 1298.78125 -280.458007812 1242.08984375 -339.790039062 c 128,-1,11
 1185.3984375 -399.123046875 1185.3984375 -399.123046875 1111.20117188 -438.127929688 c 128,-1,12
 1037.00292969 -477.133789062 1037.00292969 -477.133789062 946.165039062 -496.723632812 c 128,-1,13
 855.328125 -516.313476562 855.328125 -516.313476562 748.27734375 -516.422851562 c 0,14,15
 536.45703125 -516.623046875 536.45703125 -516.623046875 391.08984375 -448.908203125 c 128,-1,16
 245.723632812 -381.194335938 245.723632812 -381.194335938 170.819335938 -246.576171875 c 128,-1,17
 95.916015625 -111.958007812 95.916015625 -111.958007812 95.3291015625 85.541015625 c 0,18,19
 94.986328125 311.9375 94.986328125 311.9375 209.735351562 555.041992188 c 2,20,-1
 225.834960938 589.149414062 l 1,21,-1
 458.350585938 495.670898438 l 1,22,-1
 443.588867188 458.625976562 l 2,23,24
 357.022460938 241.380859375 357.022460938 241.380859375 357.462890625 93.318359375 c 0,25,26
 358.625 -81.8056640625 358.625 -81.8056640625 454.836914062 -165.755859375 c 128,-1,27
 551.048828125 -249.70703125 551.048828125 -249.70703125 757.16796875 -250.336914062 c 0,28,29
 762.122070312 -250.356445312 762.122070312 -250.356445312 766.997070312 -250.31640625 c 0,30,31
 963.592773438 -248.696289062 963.592773438 -248.696289062 1055.34082031 -154.658203125 c 128,-1,32
 1147.08789062 -60.619140625 1147.08789062 -60.619140625 1145.44824219 137.93359375 c 0,33,34
 1144.0546875 312.977539062 1144.0546875 312.977539062 1065.31542969 535.510742188 c 2,35,-1
 1051.91992188 573.370117188 l 1,36,-1
 1299.40332031 659.833984375 l 1,37,-1
 1378.09863281 407.301757812 l 2,38,39
 1393.49707031 357.81640625 1393.49707031 357.81640625 1417.06445312 326.75 c 128,-1,40
 1440.6328125 295.68359375 1440.6328125 295.68359375 1472.7421875 281.172851562 c 128,-1,41
 1504.8515625 266.661132812 1504.8515625 266.661132812 1548.45410156 266.143554688 c 0,42,43
 1596.93652344 265.712890625 1596.93652344 265.712890625 1622.21582031 293.12109375 c 128,-1,44
 1647.49609375 320.529296875 1647.49609375 320.529296875 1655.0625 389.797851562 c 2,45,-1
 1683.94921875 654.231445312 l 1,46,-1
 1908.90527344 654.231445312 l 1,47,-1
 1937.6171875 388.841796875 l 2,48,49
 1945.00097656 320.161132812 1945.00097656 320.161132812 1970.3203125 293.095703125 c 128,-1,50
 1995.640625 266.029296875 1995.640625 266.029296875 2044.91015625 266.65625 c 0,51,52
 2062.27636719 266.872070312 2062.27636719 266.872070312 2075.2578125 272.465820312 c 128,-1,53
 2088.23925781 278.059570312 2088.23925781 278.059570312 2099.4375 291.4375 c 128,-1,54
 2110.63476562 304.814453125 2110.63476562 304.814453125 2117.98828125 329.224609375 c 128,-1,55
 2125.34082031 353.633789062 2125.34082031 353.633789062 2128.92285156 389.436523438 c 2,56,-1
 2157.51855469 675.231445312 l 1,57,-1
 2383.12695312 675.231445312 l 1,58,-1
 2411.5546875 388.466796875 l 2,59,60
 2417.79589844 323.998046875 2417.79589844 323.998046875 2451.85058594 295.513671875 c 128,-1,61
 2485.90625 267.029296875 2485.90625 267.029296875 2560.17285156 267.029296875 c 2,62,-1
 2577.09472656 267.029296875 l 2,63,64
 2592.51855469 267.010742188 2592.51855469 267.010742188 2604.09277344 261.780273438 c 128,-1,65
 2615.66601562 256.55078125 2615.66601562 256.55078125 2622.27929688 245.916015625 c 128,-1,66
 2628.89160156 235.28125 2628.89160156 235.28125 2633.02246094 225.416992188 c 128,-1,67
 2637.15332031 215.551757812 2637.15332031 215.551757812 2638.6328125 199.76953125 c 128,-1,68
 2640.11132812 183.987304688 2640.11132812 183.987304688 2640.41503906 175.389648438 c 128,-1,69
 2640.71777344 166.791015625 2640.71777344 166.791015625 2640.61523438 152.1953125 c 0,70,71
 2640.58007812 147.141601562 2640.58007812 147.141601562 2640.58007812 144.836914062 c 2,72,-1
 2640.58007812 127.327148438 l 2,73,74
 2640.92089844 56.51953125 2640.92089844 56.51953125 2629.11035156 31.9443359375 c 0,75,76
 2612.52148438 0.6689453125 2612.52148438 0.6689453125 2577.0703125 0 c 2,77,-1
 2561.82519531 0 l 2,78,79
 2380.7109375 0 2380.7109375 0 2279.01464844 112.978515625 c 1,80,0
 2198.24414062 1.9365234375 2198.24414062 1.9365234375 2049.484375 0.9873046875 c 128,-1,1
EndSplineSet
EndChar

StartChar: uniFEB3
Encoding: 65203 65203 190
GlifName: uniF_E_B_3
Width: 1612
VWidth: 2762
GlyphClass: 2
Flags: W
AnchorPoint: "Anchor-10" 820.723 1362.01 basechar 0
AnchorPoint: "Anchor-7" 737.248 -176.521 basechar 0
LayerCount: 2
Fore
SplineSet
659.465820312 266.145507812 m 0,0,1
 714.451171875 266.087890625 714.451171875 266.087890625 741.918945312 293.919921875 c 128,-1,2
 769.387695312 321.750976562 769.387695312 321.750976562 776.8203125 389.797851562 c 2,3,-1
 805.70703125 654.231445312 l 1,4,-1
 1030.66113281 654.231445312 l 1,5,-1
 1059.37109375 388.885742188 l 2,6,7
 1066.78417969 320.877929688 1066.78417969 320.877929688 1094.14550781 293.338867188 c 128,-1,8
 1121.50585938 265.799804688 1121.50585938 265.799804688 1176.29199219 266.318359375 c 0,9,10
 1221.30175781 266.884765625 1221.30175781 266.884765625 1245.50683594 307.780273438 c 128,-1,11
 1269.7109375 348.674804688 1269.7109375 348.674804688 1269.46582031 451.030273438 c 0,12,13
 1269.2421875 524.627929688 1269.2421875 524.627929688 1259.45214844 591.78125 c 128,-1,14
 1249.66210938 658.934570312 1249.66210938 658.934570312 1230.40917969 719.77734375 c 2,15,-1
 1216.65332031 763.24609375 l 1,16,-1
 1470.31347656 808.345703125 l 1,17,-1
 1480.86132812 774.8125 l 2,18,19
 1527.03320312 628.038085938 1527.03320312 628.038085938 1526.12304688 458.6875 c 0,20,21
 1525.53320312 238.689453125 1525.53320312 238.689453125 1437.59863281 119.344726562 c 128,-1,22
 1349.6640625 0 1349.6640625 0 1177.35058594 0 c 0,23,24
 1100.29980469 0 1100.29980469 0 1036.56835938 30.330078125 c 128,-1,25
 972.836914062 60.66015625 972.836914062 60.66015625 925.86328125 119.702148438 c 1,26,27
 829.211914062 0.0322265625 829.211914062 0.0322265625 658.893554688 0.5 c 0,28,29
 482.724609375 0.96875 482.724609375 0.96875 386.568359375 121.032226562 c 1,30,31
 279.83984375 -0 279.83984375 -0 46.06640625 0 c 2,32,-1
 -6.478515625 0 l 2,33,34
 -60.96484375 0 -60.96484375 0 -92.4443359375 35.4423828125 c 128,-1,35
 -123.922851562 70.8857421875 -123.922851562 70.8857421875 -123.922851562 127.224609375 c 2,36,-1
 -123.922851562 144.818359375 l 2,37,38
 -123.973632812 199.291015625 -123.973632812 199.291015625 -92.1015625 233.16015625 c 128,-1,39
 -60.228515625 267.029296875 -60.228515625 267.029296875 -6.478515625 267.029296875 c 2,40,-1
 46.275390625 267.029296875 l 2,41,42
 114.91015625 267.020507812 114.91015625 267.020507812 158.607421875 281.521484375 c 128,-1,43
 202.303710938 296.0234375 202.303710938 296.0234375 222.708007812 322.092773438 c 128,-1,44
 243.112304688 348.162109375 243.112304688 348.162109375 247.987304688 388.573242188 c 2,45,-1
 279.919921875 653.303710938 l 1,46,-1
 503.224609375 653.303710938 l 1,47,-1
 530.921875 390.594726562 l 2,48,49
 538.036132812 322.896484375 538.036132812 322.896484375 567.889648438 294.491210938 c 128,-1,50
 597.743164062 266.0859375 597.743164062 266.0859375 659.465820312 266.145507812 c 0,0,1
EndSplineSet
EndChar

StartChar: uniFEB4
Encoding: 65204 65204 191
GlifName: uniF_E_B_4
Width: 1692
VWidth: 2795
GlyphClass: 2
Flags: W
AnchorPoint: "Anchor-7" 737.248 -176.521 basechar 0
AnchorPoint: "Anchor-10" 820.723 1362.01 basechar 0
LayerCount: 2
Fore
SplineSet
1250.67773438 389.40234375 m 2,0,-1
 1279.27636719 675.231445312 l 1,1,-1
 1504.88476562 675.231445312 l 1,2,-1
 1533.31054688 388.481445312 l 2,3,4
 1536.49609375 356.098632812 1536.49609375 356.098632812 1545.98339844 333.596679688 c 128,-1,5
 1555.47167969 311.094726562 1555.47167969 311.094726562 1573.27539062 296.008789062 c 128,-1,6
 1591.07910156 280.922851562 1591.07910156 280.922851562 1617.69433594 273.9765625 c 128,-1,7
 1644.30957031 267.029296875 1644.30957031 267.029296875 1681.93066406 267.029296875 c 2,8,-1
 1698.85351562 267.029296875 l 2,9,10
 1714.27734375 267.009765625 1714.27734375 267.009765625 1725.85058594 261.780273438 c 128,-1,11
 1737.42480469 256.549804688 1737.42480469 256.549804688 1744.03710938 245.915039062 c 128,-1,12
 1750.64941406 235.280273438 1750.64941406 235.280273438 1754.78027344 225.416015625 c 128,-1,13
 1758.91113281 215.551757812 1758.91113281 215.551757812 1760.390625 199.76953125 c 128,-1,14
 1761.86914062 183.987304688 1761.86914062 183.987304688 1762.17285156 175.389648438 c 128,-1,15
 1762.47558594 166.791992188 1762.47558594 166.791992188 1762.37304688 152.196289062 c 0,16,17
 1762.33789062 147.142578125 1762.33789062 147.142578125 1762.33789062 144.836914062 c 2,18,-1
 1762.33789062 127.153320312 l 2,19,20
 1762.33007812 125.229492188 1762.33007812 125.229492188 1762.3828125 113.866210938 c 128,-1,21
 1762.43554688 102.501953125 1762.43554688 102.501953125 1762.35546875 97.9521484375 c 128,-1,22
 1762.27539062 93.4033203125 1762.27539062 93.4033203125 1761.66601562 81.84375 c 128,-1,23
 1761.05761719 70.28515625 1761.05761719 70.28515625 1759.93652344 64.451171875 c 128,-1,24
 1758.81640625 58.6162109375 1758.81640625 58.6162109375 1756.5625 48.4384765625 c 128,-1,25
 1754.30859375 38.2607421875 1754.30859375 38.2607421875 1751.16503906 32.716796875 c 128,-1,26
 1748.02050781 27.1728515625 1748.02050781 27.1728515625 1743.140625 19.9521484375 c 128,-1,27
 1738.26074219 12.7314453125 1738.26074219 12.7314453125 1732.11035156 9.0537109375 c 128,-1,28
 1725.95996094 5.3759765625 1725.95996094 5.3759765625 1717.47070312 2.6884765625 c 128,-1,29
 1708.98046875 0 1708.98046875 0 1698.828125 0 c 2,30,-1
 1683.58300781 0 l 2,31,32
 1503.89648438 0 1503.89648438 0 1402.77929688 112.984375 c 1,33,34
 1362.59667969 57.7353515625 1362.59667969 57.7353515625 1303.7265625 29.5927734375 c 128,-1,35
 1244.85742188 1.4501953125 1244.85742188 1.4501953125 1171.23828125 0.9873046875 c 0,36,37
 1020.90429688 0.048828125 1020.90429688 0.048828125 926.830078125 119.504882812 c 1,38,39
 829.41015625 -0.9326171875 829.41015625 -0.9326171875 655.877929688 0.0009765625 c 128,-1,40
 482.438476562 0.9375 482.438476562 0.9375 386.521484375 120.978515625 c 1,41,42
 279.154296875 -0 279.154296875 -0 46.06640625 0 c 2,43,-1
 -6.478515625 0 l 2,44,45
 -60.96484375 0 -60.96484375 0 -92.4443359375 35.4423828125 c 128,-1,46
 -123.922851562 70.8857421875 -123.922851562 70.8857421875 -123.922851562 127.224609375 c 2,47,-1
 -123.922851562 144.818359375 l 2,48,49
 -123.973632812 199.291015625 -123.973632812 199.291015625 -92.1015625 233.16015625 c 128,-1,50
 -60.228515625 267.029296875 -60.228515625 267.029296875 -6.478515625 267.029296875 c 2,51,-1
 46.275390625 267.029296875 l 2,52,53
 114.91015625 267.020507812 114.91015625 267.020507812 158.607421875 281.521484375 c 128,-1,54
 202.303710938 296.0234375 202.303710938 296.0234375 222.708007812 322.092773438 c 128,-1,55
 243.112304688 348.162109375 243.112304688 348.162109375 247.987304688 388.573242188 c 2,56,-1
 279.919921875 653.303710938 l 1,57,-1
 503.224609375 653.303710938 l 1,58,-1
 530.921875 390.594726562 l 2,59,60
 538.038085938 322.883789062 538.038085938 322.883789062 567.874023438 294.484375 c 128,-1,61
 597.708984375 266.0859375 597.708984375 266.0859375 659.465820312 266.145507812 c 0,62,63
 696.263671875 266.107421875 696.263671875 266.107421875 719.811523438 277.700195312 c 128,-1,64
 743.359375 289.291992188 743.359375 289.291992188 757.575195312 316.522460938 c 128,-1,65
 771.791015625 343.751953125 771.791015625 343.751953125 776.8203125 389.797851562 c 2,66,-1
 805.70703125 654.231445312 l 1,67,-1
 1030.66113281 654.231445312 l 1,68,-1
 1059.37109375 388.885742188 l 2,69,70
 1066.859375 320.1953125 1066.859375 320.1953125 1092.1953125 293.112304688 c 128,-1,71
 1117.53125 266.029296875 1117.53125 266.029296875 1166.66894531 266.65625 c 0,72,73
 1202.46972656 267.1015625 1202.46972656 267.1015625 1223.17773438 293.716796875 c 128,-1,74
 1243.88574219 320.333007812 1243.88574219 320.333007812 1250.67773438 389.40234375 c 2,0,-1
EndSplineSet
EndChar

StartChar: uniFEBA
Encoding: 65210 65210 197
GlifName: uniF_E_B_A_
Width: 2621
VWidth: 2802
GlyphClass: 2
Flags: W
AnchorPoint: "Anchor-10" 740.104 1165.38 basechar 0
AnchorPoint: "Anchor-7" 563.969 -733.127 basechar 0
LayerCount: 2
Fore
SplineSet
1677.75585938 266.391601562 m 1,0,-1
 1739.48144531 266.391601562 l 2,1,2
 2027.68261719 266.017578125 2027.68261719 266.017578125 2138.21875 331.828125 c 0,3,4
 2258.92675781 403.694335938 2258.92675781 403.694335938 2258.61035156 502.40234375 c 0,5,6
 2258.14257812 560.194335938 2258.14257812 560.194335938 2218.375 596.403320312 c 0,7,8
 2175.70019531 634.924804688 2175.70019531 634.924804688 2094.39160156 634.526367188 c 0,9,10
 2013.62597656 633.55078125 2013.62597656 633.55078125 1907.36816406 542.416015625 c 128,-1,11
 1801.11035156 451.280273438 1801.11035156 451.280273438 1677.75585938 266.391601562 c 1,0,-1
1637.82910156 0 m 2,12,13
 1495.94726562 0 1495.94726562 0 1402.26464844 44.357421875 c 1,14,15
 1390.91894531 -88.39453125 1390.91894531 -88.39453125 1336.38671875 -201.764648438 c 0,16,17
 1314.859375 -246.811523438 1314.859375 -246.811523438 1287.01855469 -285.563476562 c 128,-1,18
 1259.17773438 -324.31640625 1259.17773438 -324.31640625 1225.515625 -356.322265625 c 128,-1,19
 1191.85449219 -388.327148438 1191.85449219 -388.327148438 1152.23632812 -414.034179688 c 128,-1,20
 1112.61816406 -439.741210938 1112.61816406 -439.741210938 1067.51953125 -458.862304688 c 128,-1,21
 1022.421875 -477.983398438 1022.421875 -477.983398438 971.724609375 -490.7890625 c 128,-1,22
 921.02734375 -503.595703125 921.02734375 -503.595703125 865.19140625 -509.977539062 c 128,-1,23
 809.35546875 -516.360351562 809.35546875 -516.360351562 748.27734375 -516.422851562 c 0,24,25
 536.45703125 -516.623046875 536.45703125 -516.623046875 391.08984375 -448.908203125 c 128,-1,26
 245.723632812 -381.194335938 245.723632812 -381.194335938 170.819335938 -246.576171875 c 128,-1,27
 95.916015625 -111.958007812 95.916015625 -111.958007812 95.3291015625 85.541015625 c 0,28,29
 94.986328125 311.9375 94.986328125 311.9375 209.735351562 555.041992188 c 2,30,-1
 225.834960938 589.149414062 l 1,31,-1
 458.350585938 495.670898438 l 1,32,-1
 443.588867188 458.625976562 l 2,33,34
 357.022460938 241.380859375 357.022460938 241.380859375 357.462890625 93.318359375 c 0,35,36
 358.23828125 -23.5673828125 358.23828125 -23.5673828125 400.379882812 -98.9013671875 c 128,-1,37
 442.521484375 -174.236328125 442.521484375 -174.236328125 530.75 -212.075195312 c 128,-1,38
 618.977539062 -249.9140625 618.977539062 -249.9140625 757.182617188 -250.336914062 c 0,39,40
 766.631835938 -250.373046875 766.631835938 -250.373046875 775.83203125 -250.198242188 c 0,41,42
 970.221679688 -246.500976562 970.221679688 -246.500976562 1059.7890625 -152.643554688 c 128,-1,43
 1149.35644531 -58.78515625 1149.35644531 -58.78515625 1145.45507812 137.485351562 c 0,44,45
 1143.79785156 227.234375 1143.79785156 227.234375 1123.81542969 326.784179688 c 128,-1,46
 1103.83300781 426.333984375 1103.83300781 426.333984375 1065.30273438 535.545898438 c 2,47,-1
 1051.95410156 573.381835938 l 1,48,-1
 1299.40332031 659.833984375 l 1,49,-1
 1378.08203125 407.354492188 l 2,50,51
 1396.3515625 349.034179688 1396.3515625 349.034179688 1418.05566406 324.78515625 c 1,52,53
 1762.18554688 909.2421875 1762.18554688 909.2421875 2115.93359375 903.196289062 c 0,54,55
 2341.32910156 899.670898438 2341.32910156 899.670898438 2454.01953125 734.890625 c 0,56,57
 2464.66308594 719.333984375 2464.66308594 719.333984375 2473.56738281 702.912109375 c 128,-1,58
 2482.47070312 686.490234375 2482.47070312 686.490234375 2489.56640625 669.359375 c 128,-1,59
 2496.66210938 652.229492188 2496.66210938 652.229492188 2502.00488281 634.348632812 c 128,-1,60
 2507.34765625 616.46875 2507.34765625 616.46875 2510.8984375 597.940429688 c 128,-1,61
 2514.44824219 579.413085938 2514.44824219 579.413085938 2516.22949219 560.254882812 c 128,-1,62
 2518.01074219 541.096679688 2518.01074219 541.096679688 2518.01367188 521.356445312 c 0,63,64
 2518.00097656 387.766601562 2518.00097656 387.766601562 2464.484375 284.823242188 c 1,65,66
 2487.36132812 279.762695312 2487.36132812 279.762695312 2524.30761719 277.012695312 c 128,-1,67
 2561.25292969 274.262695312 2561.25292969 274.262695312 2610.47167969 274.262695312 c 2,68,-1
 2628.13769531 274.262695312 l 2,69,70
 2639.4609375 274.133789062 2639.4609375 274.133789062 2648.70898438 271.400390625 c 128,-1,71
 2657.95703125 268.666992188 2657.95703125 268.666992188 2664.34375 262.060546875 c 128,-1,72
 2670.73046875 255.455078125 2670.73046875 255.455078125 2675.60742188 250.111328125 c 128,-1,73
 2680.484375 244.768554688 2680.484375 244.768554688 2683.32226562 233.427734375 c 128,-1,74
 2686.16113281 222.0859375 2686.16113281 222.0859375 2688.03613281 216.275390625 c 128,-1,75
 2689.91113281 210.46484375 2689.91113281 210.46484375 2690.57128906 196.53125 c 128,-1,76
 2691.23046875 182.596679688 2691.23046875 182.596679688 2691.47460938 178.4609375 c 128,-1,77
 2691.71875 174.325195312 2691.71875 174.325195312 2691.56933594 159.940429688 c 128,-1,78
 2691.41992188 145.555664062 2691.41992188 145.555664062 2691.41992188 144.836914062 c 2,79,-1
 2691.41992188 127.127929688 l 2,80,81
 2691.41699219 126.618164062 2691.41699219 126.618164062 2691.49511719 112.375 c 128,-1,82
 2691.57324219 98.1318359375 2691.57324219 98.1318359375 2691.30859375 94.1552734375 c 128,-1,83
 2691.04296875 90.1787109375 2691.04296875 90.1787109375 2690.31835938 76.3544921875 c 128,-1,84
 2689.59375 62.5302734375 2689.59375 62.5302734375 2687.69824219 56.8486328125 c 128,-1,85
 2685.80371094 51.166015625 2685.80371094 51.166015625 2682.92773438 39.921875 c 128,-1,86
 2680.05175781 28.677734375 2680.05175781 28.677734375 2675.17773438 23.451171875 c 128,-1,87
 2670.3046875 18.224609375 2670.3046875 18.224609375 2663.92871094 11.7216796875 c 128,-1,88
 2657.55371094 5.2197265625 2657.55371094 5.2197265625 2648.35253906 2.609375 c 128,-1,89
 2639.15234375 0 2639.15234375 0 2627.91015625 0 c 2,90,-1
 2605.32519531 0 l 2,91,92
 2377.46679688 0 2377.46679688 0 2278.05273438 94.65625 c 1,93,94
 2252.72167969 80.6142578125 2252.72167969 80.6142578125 2223.4296875 68.7265625 c 128,-1,95
 2194.13769531 56.837890625 2194.13769531 56.837890625 2161.23242188 47.1533203125 c 128,-1,96
 2128.32714844 37.46875 2128.32714844 37.46875 2091.28515625 29.8173828125 c 128,-1,97
 2054.24414062 22.166015625 2054.24414062 22.166015625 2013.70996094 16.564453125 c 128,-1,98
 1973.17578125 10.9619140625 1973.17578125 10.9619140625 1928.30957031 7.2744140625 c 128,-1,99
 1883.44335938 3.5859375 1883.44335938 3.5859375 1835.20507812 1.79296875 c 128,-1,100
 1786.96777344 0 1786.96777344 0 1734.22265625 0 c 2,101,-1
 1637.82910156 0 l 2,12,13
EndSplineSet
EndChar

StartChar: uniFEBB
Encoding: 65211 65211 198
GlifName: uniF_E_B_B_
Width: 1701
VWidth: 2802
GlyphClass: 2
Flags: W
AnchorPoint: "Anchor-10" 930.896 1362.8 basechar 0
AnchorPoint: "Anchor-7" 690.255 -179.672 basechar 0
LayerCount: 2
Fore
SplineSet
497.64453125 388.512695312 m 2,0,1
 501.879882812 345.791015625 501.879882812 345.791015625 521.627929688 326.365234375 c 1,2,3
 866.545898438 909.237304688 866.545898438 909.237304688 1218.5 903.196289062 c 0,4,5
 1444.37890625 899.670898438 1444.37890625 899.670898438 1556.5703125 734.913085938 c 0,6,7
 1621.04882812 641.380859375 1621.04882812 641.380859375 1620.57910156 521.299804688 c 0,8,9
 1620.69433594 390.051757812 1620.69433594 390.051757812 1568.95605469 291.165039062 c 128,-1,10
 1517.21875 192.27734375 1517.21875 192.27734375 1416.71972656 128.150390625 c 128,-1,11
 1316.22070312 64.0234375 1316.22070312 64.0234375 1171.08691406 32.01171875 c 128,-1,12
 1025.95214844 0 1025.95214844 0 836.788085938 0 c 2,13,-1
 740.39453125 0 l 2,14,15
 473.5546875 0 473.5546875 0 360.614257812 125.649414062 c 1,16,17
 238.845703125 0.3427734375 238.845703125 0.3427734375 9.3232421875 -0 c 2,18,-1
 -6.478515625 0 l 2,19,20
 -60.96484375 0 -60.96484375 0 -92.4443359375 35.4423828125 c 128,-1,21
 -123.922851562 70.8857421875 -123.922851562 70.8857421875 -123.922851562 127.224609375 c 2,22,-1
 -123.922851562 144.817382812 l 2,23,24
 -123.974609375 198.569335938 -123.974609375 198.569335938 -91.9140625 231.766601562 c 128,-1,25
 -59.853515625 264.962890625 -59.853515625 264.962890625 -6.478515625 264.962890625 c 2,26,-1
 8.5 264.962890625 l 2,27,28
 113.694335938 264.979492188 113.694335938 264.979492188 161.233398438 295.99609375 c 128,-1,29
 208.772460938 327.012695312 208.772460938 327.012695312 215.017578125 389.436523438 c 2,30,-1
 243.61328125 675.231445312 l 1,31,-1
 469.221679688 675.231445312 l 1,32,-1
 497.64453125 388.512695312 l 2,0,1
780.245117188 266.391601562 m 1,33,-1
 842.046875 266.391601562 l 2,34,35
 1120.99609375 266.017578125 1120.99609375 266.017578125 1247.59667969 338.384765625 c 0,36,37
 1361.03320312 403.227539062 1361.03320312 403.227539062 1361.17480469 502.610351562 c 0,38,39
 1361.04101562 560.189453125 1361.04101562 560.189453125 1321.07714844 596.279296875 c 0,40,41
 1277.81933594 634.924804688 1277.81933594 634.924804688 1196.95703125 634.526367188 c 0,42,43
 1115.90527344 633.549804688 1115.90527344 633.549804688 1009.66015625 542.4375 c 128,-1,44
 903.4140625 451.326171875 903.4140625 451.326171875 780.245117188 266.391601562 c 1,33,-1
EndSplineSet
EndChar

StartChar: uniFEBC
Encoding: 65212 65212 199
GlifName: uniF_E_B_C_
Width: 1724
VWidth: 2802
GlyphClass: 2
Flags: W
AnchorPoint: "Anchor-7" 690.255 -179.672 basechar 0
AnchorPoint: "Anchor-10" 930.896 1362.8 basechar 0
LayerCount: 2
Fore
SplineSet
780.245117188 266.391601562 m 1,0,-1
 842.046875 266.391601562 l 2,1,2
 1128.71972656 266.014648438 1128.71972656 266.014648438 1245.59960938 337.81640625 c 0,3,4
 1361.03320312 407.583007812 1361.03320312 407.583007812 1361.17480469 502.611328125 c 0,5,6
 1361.04101562 560.189453125 1361.04101562 560.189453125 1321.07714844 596.279296875 c 0,7,8
 1277.81933594 634.924804688 1277.81933594 634.924804688 1196.95703125 634.526367188 c 0,9,10
 1115.90527344 633.549804688 1115.90527344 633.549804688 1009.66015625 542.4375 c 128,-1,11
 903.4140625 451.326171875 903.4140625 451.326171875 780.245117188 266.391601562 c 1,0,-1
1567.17871094 284.841796875 m 1,12,13
 1615.04003906 274.262695312 1615.04003906 274.262695312 1713.03710938 274.262695312 c 2,14,-1
 1730.69921875 274.262695312 l 2,15,16
 1742.02246094 274.13671875 1742.02246094 274.13671875 1751.27050781 271.404296875 c 128,-1,17
 1760.51953125 268.672851562 1760.51953125 268.672851562 1766.90625 262.06640625 c 128,-1,18
 1773.29394531 255.458984375 1773.29394531 255.458984375 1778.17089844 250.1171875 c 128,-1,19
 1783.04785156 244.775390625 1783.04785156 244.775390625 1785.88671875 233.431640625 c 128,-1,20
 1788.72460938 222.086914062 1788.72460938 222.086914062 1790.60058594 216.278320312 c 128,-1,21
 1792.4765625 210.469726562 1792.4765625 210.469726562 1793.13574219 196.532226562 c 128,-1,22
 1793.79589844 182.59375 1793.79589844 182.59375 1794.04003906 178.4609375 c 128,-1,23
 1794.28417969 174.329101562 1794.28417969 174.329101562 1794.13476562 159.939453125 c 128,-1,24
 1793.98535156 145.549804688 1793.98535156 145.549804688 1793.98535156 144.836914062 c 2,25,-1
 1793.98535156 127.231445312 l 2,26,27
 1793.98535156 126.05859375 1793.98535156 126.05859375 1794.07226562 113.974609375 c 128,-1,28
 1794.16015625 101.890625 1794.16015625 101.890625 1794.078125 97.9658203125 c 128,-1,29
 1793.99707031 94.041015625 1793.99707031 94.041015625 1793.40722656 81.9306640625 c 128,-1,30
 1792.81835938 69.8203125 1792.81835938 69.8203125 1791.68945312 64.443359375 c 128,-1,31
 1790.56152344 59.0654296875 1790.56152344 59.0654296875 1788.31445312 48.5048828125 c 128,-1,32
 1786.06738281 37.9453125 1786.06738281 37.9453125 1782.91015625 32.69140625 c 128,-1,33
 1779.75390625 27.4375 1779.75390625 27.4375 1774.86914062 20.00390625 c 128,-1,34
 1769.98339844 12.5693359375 1769.98339844 12.5693359375 1763.81835938 9.0166015625 c 128,-1,35
 1757.65332031 5.462890625 1757.65332031 5.462890625 1749.14941406 2.7314453125 c 128,-1,36
 1740.64550781 0 1740.64550781 0 1730.47558594 0 c 2,37,-1
 1707.890625 0 l 2,38,39
 1479.79980469 0 1479.79980469 0 1380.32421875 95.021484375 c 1,40,41
 1354.14355469 80.8955078125 1354.14355469 80.8955078125 1324.30175781 68.9521484375 c 128,-1,42
 1294.4609375 57.0078125 1294.4609375 57.0078125 1261.26953125 47.28125 c 128,-1,43
 1228.078125 37.5546875 1228.078125 37.5546875 1190.99414062 29.8798828125 c 128,-1,44
 1153.91015625 22.2060546875 1153.91015625 22.2060546875 1113.55859375 16.5888671875 c 128,-1,45
 1073.20703125 10.97265625 1073.20703125 10.97265625 1028.70996094 7.2802734375 c 128,-1,46
 984.212890625 3.5869140625 984.212890625 3.5869140625 936.530273438 1.7939453125 c 128,-1,47
 888.848632812 -0 888.848632812 -0 836.788085938 -0 c 2,48,-1
 740.39453125 0 l 2,49,50
 475.168945312 0 475.168945312 0 360.748046875 124.517578125 c 1,51,52
 239.81640625 0 239.81640625 0 9.3232421875 -0 c 2,53,-1
 -6.478515625 0 l 2,54,55
 -60.96484375 0 -60.96484375 0 -92.4443359375 35.4423828125 c 128,-1,56
 -123.922851562 70.8857421875 -123.922851562 70.8857421875 -123.922851562 127.224609375 c 2,57,-1
 -123.922851562 144.817382812 l 2,58,59
 -123.974609375 198.569335938 -123.974609375 198.569335938 -91.9140625 231.766601562 c 128,-1,60
 -59.853515625 264.962890625 -59.853515625 264.962890625 -6.478515625 264.962890625 c 2,61,-1
 8.5 264.962890625 l 2,62,63
 113.694335938 264.979492188 113.694335938 264.979492188 161.233398438 295.99609375 c 128,-1,64
 208.772460938 327.012695312 208.772460938 327.012695312 215.017578125 389.436523438 c 2,65,-1
 243.61328125 675.231445312 l 1,66,-1
 469.221679688 675.231445312 l 1,67,-1
 497.640625 388.551757812 l 2,68,69
 499.943359375 365.7890625 499.943359375 365.7890625 506.337890625 350.485351562 c 128,-1,70
 512.731445312 335.182617188 512.731445312 335.182617188 521.650390625 326.403320312 c 1,71,72
 866.545898438 909.237304688 866.545898438 909.237304688 1218.5 903.196289062 c 0,73,74
 1444.37890625 899.670898438 1444.37890625 899.670898438 1556.5703125 734.913085938 c 0,75,76
 1621.04882812 641.380859375 1621.04882812 641.380859375 1620.57910156 521.338867188 c 0,77,78
 1620.76660156 455.309570312 1620.76660156 455.309570312 1607.33691406 395.655273438 c 128,-1,79
 1593.90625 336 1593.90625 336 1567.17871094 284.841796875 c 1,12,13
EndSplineSet
EndChar

StartChar: uniFEC2
Encoding: 65218 65218 205
GlifName: uniF_E_C_2
Width: 1549
VWidth: 2802
GlyphClass: 2
Flags: W
AnchorPoint: "Anchor-7" 666.253 -181.983 basechar 0
AnchorPoint: "Anchor-10" 483.007 1597.04 basechar 0
LayerCount: 2
Fore
SplineSet
597.149414062 268.458984375 m 1,0,-1
 659.026367188 268.458984375 l 2,1,2
 961.021484375 268.016601562 961.021484375 268.016601562 1063.12207031 328.80078125 c 0,3,4
 1178.02636719 395.966796875 1178.02636719 395.966796875 1178.15136719 502.610351562 c 0,5,6
 1178.09179688 531.422851562 1178.09179688 531.422851562 1168.19726562 554.2265625 c 128,-1,7
 1158.30273438 577.029296875 1158.30273438 577.029296875 1137.63085938 596.666015625 c 0,8,9
 1095.14746094 634.921875 1095.14746094 634.921875 1013.93066406 634.526367188 c 0,10,11
 931.899414062 633.547851562 931.899414062 633.547851562 825.65625 542.920898438 c 128,-1,12
 719.413085938 452.293945312 719.413085938 452.293945312 597.149414062 268.458984375 c 1,0,-1
1532.41503906 0 m 2,13,14
 1306 0 1306 0 1200.3515625 95.2880859375 c 1,15,16
 1194 92 1194 92 1188.47753906 88.982421875 c 128,-1,17
 1183 86 1183 86 1176.48046875 82.9814453125 c 128,-1,18
 1170 80 1170 80 1164 77 c 128,-1,19
 1158 74 1158 74 1151.5 71.5 c 128,-1,20
 1145 69 1145 69 1138.48925781 66.11328125 c 0,21,22
 981 0 981 0 653.765625 0 c 2,23,-1
 88.9619140625 0 l 1,24,-1
 88.9619140625 266.176757812 l 1,25,-1
 306.048828125 266.3359375 l 1,26,27
 318 286 318 286 358.198242188 340.924804688 c 5,28,-1
 358.198242188 1476.96484375 l 5,29,-1
 615.155273438 1476.96484375 l 1,30,-1
 615.155273438 705.040039062 l 1,31,32
 809 903 809 903 1032.66313298 902.801397174 c 0,33,34
 1253 903 1253 903 1373.33886719 735.213867188 c 0,35,36
 1439 644 1439 644 1439.49796561 519.816304133 c 0,37,38
 1440 396 1440 396 1385.68554688 287.45703125 c 1,39,40
 1429.13493557 274.262695312 1429.13493557 274.262695312 1537.56152344 274.262695312 c 2,41,-1
 1555.21777344 274.262695312 l 2,42,43
 1580 274 1580 274 1589.34681475 264.321004151 c 0,44,45
 1598 255 1598 255 1603 250 c 128,-1,46
 1608 245 1608 245 1610.40917969 233.435546875 c 128,-1,47
 1613 222 1613 222 1615 216 c 128,-1,48
 1617 210 1617 210 1617.5 196.5 c 128,-1,49
 1618 183 1618 183 1618.56347656 178.461914062 c 128,-1,50
 1619 174 1619 174 1619 160 c 128,-1,51
 1619 146 1619 146 1618.50976562 144.836914062 c 2,52,-1
 1618.50976562 127.342773438 l 2,53,54
 1619 54 1619 54 1604 27.5 c 0,55,56
 1589 0 1589 0 1554.99902344 0 c 2,57,-1
 1532.41503906 0 l 2,13,14
EndSplineSet
EndChar

StartChar: uniFEC3
Encoding: 65219 65219 206
GlifName: uniF_E_C_3
Width: 1367
VWidth: 2802
GlyphClass: 2
Flags: W
AnchorPoint: "Anchor-7" 506.253 -181.983 basechar 0
AnchorPoint: "Anchor-10" 323.007 1597.04 basechar 0
LayerCount: 2
Fore
SplineSet
501.006835938 0 m 2,0,-1
 -6.478515625 0 l 2,1,2
 -61 0 -61 0 -92.4443359375 35.4423828125 c 128,-1,3
 -123.922851562 70.9130674411 -123.922851562 70.9130674411 -123.922851562 127.224609375 c 2,4,-1
 -123.922851562 144.818359375 l 2,5,6
 -124 199 -124 199 -92.0302734375 232.375 c 128,-1,7
 -60.1034536404 265.891395599 -60.1034536404 265.891395599 -6.5712890625 265.99609375 c 2,8,-1
 153.209960938 266.30859375 l 1,9,10
 155 269 155 269 205.440429688 341.002929688 c 5,11,-1
 205.440429688 1476.96484375 l 5,12,-1
 462.396484375 1476.96484375 l 1,13,-1
 462.396484375 705.026367188 l 1,14,15
 656 903 656 903 881 903 c 128,-1,16
 1106 903 1106 903 1220.79980469 734.896484375 c 0,17,18
 1285 641 1285 641 1284.79785156 521.331054688 c 0,19,20
 1285 260 1285 260 1084 130 c 128,-1,21
 883 0 883 0 501.006835938 0 c 2,0,-1
444.4921875 268.458984375 m 1,22,-1
 506.270507812 268.458984375 l 2,23,24
 788.846679688 268.020507812 788.846679688 268.020507812 910.5546875 338.913085938 c 0,25,26
 1024.26464844 405.146484375 1024.26464844 405.146484375 1025.39550781 503.024414062 c 0,27,28
 1025.85253906 558.288085938 1025.85253906 558.288085938 985.010742188 596.540039062 c 0,29,30
 942.19921875 634.921875 942.19921875 634.921875 861.172851562 634.526367188 c 0,31,32
 779.524414062 633.548828125 779.524414062 633.548828125 673.264648438 542.891601562 c 128,-1,33
 567.005859375 452.234375 567.005859375 452.234375 444.4921875 268.458984375 c 1,22,-1
EndSplineSet
EndChar

StartChar: uniFEC4
Encoding: 65220 65220 207
GlifName: uniF_E_C_4
Width: 1396
VWidth: 2802
GlyphClass: 2
Flags: W
AnchorPoint: "Anchor-10" 323.007 1597.04 basechar 0
AnchorPoint: "Anchor-7" 506.253 -181.983 basechar 0
LayerCount: 2
Fore
SplineSet
444.4921875 268.458984375 m 1,0,-1
 506.268554688 268.458984375 l 2,1,2
 807.125976562 268.015625 807.125976562 268.015625 910.473632812 328.865234375 c 0,3,4
 1024.24414062 395.133789062 1024.24414062 395.133789062 1025.39550781 503.006835938 c 0,5,6
 1025.85253906 558.288085938 1025.85253906 558.288085938 985.010742188 596.540039062 c 0,7,8
 942.19921875 634.921875 942.19921875 634.921875 861.172851562 634.526367188 c 0,9,10
 779.524414062 633.548828125 779.524414062 633.548828125 673.264648438 542.891601562 c 128,-1,11
 567.005859375 452.234375 567.005859375 452.234375 444.4921875 268.458984375 c 1,0,-1
1233.13671875 287.49609375 m 1,12,13
 1273.20461486 274.262695312 1273.20461486 274.262695312 1384.80273438 274.262695312 c 2,14,-1
 1402.4609375 274.262695312 l 2,15,16
 1427 274 1427 274 1436.26873143 264.318820538 c 0,17,18
 1445 255 1445 255 1450 250 c 128,-1,19
 1455 245 1455 245 1457.5 233.5 c 128,-1,20
 1460 222 1460 222 1462 216 c 0,21,22
 1467 202 1467 202 1466.4002287 187.799313894 c 0,23,24
 1466 174 1466 174 1465.90039062 159.938476562 c 128,-1,25
 1466 146 1466 146 1465.75097656 144.836914062 c 2,26,-1
 1465.75097656 127.287109375 l 2,27,28
 1466 125 1466 125 1466 114 c 0,29,30
 1466 60 1466 60 1460 46.0307036713 c 0,31,32
 1446 14 1446 14 1432.04870129 6.76008310317 c 0,33,34
 1418 0 1418 0 1402.24023438 0 c 2,35,-1
 1379.65625 0 l 2,36,37
 1154 0 1154 0 1047.72949219 95.1240234375 c 1,38,39
 875 0 875 0 501.006835938 0 c 2,40,-1
 -6.478515625 0 l 2,41,42
 -61 0 -61 0 -92.4443359375 35.4423828125 c 128,-1,43
 -123.922851562 70.9130674411 -123.922851562 70.9130674411 -123.922851562 127.224609375 c 2,44,-1
 -123.922851562 144.818359375 l 2,45,46
 -124 199 -124 199 -92.0302734375 232.375 c 128,-1,47
 -60.1032914608 265.891565853 -60.1032914608 265.891565853 -6.5712890625 265.99609375 c 2,48,-1
 153.469726562 266.30859375 l 1,49,50
 179 303 179 303 205.440429688 340.678710938 c 5,51,-1
 205.440429688 1476.96484375 l 5,52,-1
 462.396484375 1476.96484375 l 1,53,-1
 462.396484375 704.830078125 l 1,54,55
 656 903 656 903 879 903 c 0,56,57
 1128 903 1128 903 1243.92089844 697.583984375 c 1,58,59
 1311 567 1311 567 1273.71386719 402.356445312 c 0,60,61
 1260 342 1260 342 1233.13671875 287.49609375 c 1,12,13
EndSplineSet
EndChar

